<svg id="Layer_1" data-name="Layer 1" xmlns="http://www.w3.org/2000/svg" viewBox="0 0 760.33 450.98"><defs><style>.cls-1{fill:#f1f2f2;}.cls-2{fill:#20364d;}.cls-12,.cls-3{fill:#fff;}.cls-19,.cls-20,.cls-29,.cls-3,.cls-30,.cls-31,.cls-32,.cls-4{fill-rule:evenodd;}.cls-4{fill:#4c8eb4;}.cls-5{fill:#609dc1;}.cls-6{fill:#73accd;}.cls-7{fill:#87bbda;}.cls-8{fill:#9acae6;}.cls-20,.cls-9{fill:#ccc;}.cls-10{fill:#fec00f;}.cls-11{fill:#15b0bf;}.cls-13{fill:#00a295;}.cls-14{fill:#ff7c55;}.cls-15{fill:#2c465f;}.cls-16{fill:#eaeaea;}.cls-17{fill:#421f0c;}.cls-18{fill:#502a14;}.cls-19{fill:#b3b3b3;}.cls-21{fill:#104d7c;}.cls-22{fill:#a2d7e7;}.cls-23{fill:#e6e7e8;}.cls-24{fill:#a7a9ac;}.cls-25{fill:#2f4f6b;}.cls-26{fill:#dc1b5e;}.cls-27{fill:#ec3f75;}.cls-28{fill:#f2f2f2;}.cls-29{fill:#000405;}.cls-30{fill:#566673;}.cls-31{fill:#71b2c8;}.cls-32{fill:#e7e7e7;}.cls-33{fill:#103754;}.cls-34{fill:#0e303f;}.cls-35{fill:#f9ffff;}.cls-36{fill:#8cc63e;}.cls-37{fill:#73aa1b;}.cls-38{fill:#e7b28a;}.cls-39{fill:#f4ac3e;}.cls-40{fill:#f45b32;}.cls-41{opacity:0.4;}.cls-42,.cls-49,.cls-51{fill:none;}.cls-43{fill:#a8c5bd;}.cls-44{fill:#6a696e;}.cls-45{fill:#4c5557;}.cls-46{fill:#427782;}.cls-47{fill:#e94150;}.cls-48{fill:#1bb687;}.cls-49{stroke:#fff;stroke-miterlimit:10;stroke-width:1.58px;}.cls-50{fill:#3dbdc4;}.cls-51{stroke:#ffaf39;stroke-linecap:round;stroke-linejoin:round;stroke-width:2.79px;}.cls-52{fill:#ffaf39;}.cls-53{fill:#0a5382;}.cls-54{fill:#c5c7c4;}.cls-55{fill:#353537;}.cls-56{fill:#c3c3c5;}.cls-57{fill:#ffbf61;}</style></defs><title>hero-people</title><path class="cls-1" d="M300.07,271.4a2.19,2.19,0,0,0-1.84-2.48L131.32,238.46a2.19,2.19,0,0,0-2.59,1.67l-11.19,61.33a2.19,2.19,0,0,0,1.83,2.48L286.28,334.4a2.19,2.19,0,0,0,2.59-1.67Z" transform="translate(-16.01 -54.27)"/><rect class="cls-2" x="131.48" y="244.98" width="9.48" height="9.48" rx="0.55" ry="0.55" transform="translate(-149.91 284.63) rotate(-79.66)"/><path class="cls-2" d="M155.15,269.17a0.55,0.55,0,0,1-.64.45l-8.25-1.5a0.55,0.55,0,0,1-.44-0.64l1.51-8.25a0.55,0.55,0,0,1,.63-0.44l8.25,1.5a0.55,0.55,0,0,1,.44.63Z" transform="translate(-16.01 -54.27)"/><path class="cls-2" d="M155.77,281a0.54,0.54,0,0,1-.64.44l-8.25-1.5a0.55,0.55,0,0,1-.44-0.63l1.51-8.25a0.55,0.55,0,0,1,.64-0.44l8.25,1.5a0.55,0.55,0,0,1,.44.63Z" transform="translate(-16.01 -54.27)"/><path class="cls-2" d="M148.14,291.36a0.55,0.55,0,0,1-.64.44l-8.25-1.5a0.55,0.55,0,0,1-.44-0.64l1.5-8.25A0.55,0.55,0,0,1,141,281l8.25,1.5a0.55,0.55,0,0,1,.44.64Z" transform="translate(-16.01 -54.27)"/><path class="cls-2" d="M131.58,301.55a0.55,0.55,0,0,1-.64.44l-8.25-1.5a0.55,0.55,0,0,1-.44-0.64l1.77-9.68a0.55,0.55,0,0,1,.64-0.44l8.25,1.5a0.55,0.55,0,0,1,.44.64Z" transform="translate(-16.01 -54.27)"/><path class="cls-2" d="M142.9,303.62a0.55,0.55,0,0,1-.64.44l-8.24-1.5a0.55,0.55,0,0,1-.44-0.64l1.77-9.68a0.55,0.55,0,0,1,.64-0.44l8.24,1.5a0.55,0.55,0,0,1,.44.64Z" transform="translate(-16.01 -54.27)"/><path class="cls-2" d="M154.23,305.68a0.55,0.55,0,0,1-.64.44l-8.25-1.51a0.55,0.55,0,0,1-.44-0.64l1.77-9.68a0.55,0.55,0,0,1,.64-0.44l8.25,1.51a0.55,0.55,0,0,1,.44.64Z" transform="translate(-16.01 -54.27)"/><path class="cls-2" d="M251,323.33a0.55,0.55,0,0,1-.64.44l-8.25-1.51a0.55,0.55,0,0,1-.44-0.64L243.4,312a0.55,0.55,0,0,1,.64-0.44l8.25,1.5a0.56,0.56,0,0,1,.44.64Z" transform="translate(-16.01 -54.27)"/><path class="cls-2" d="M262.32,325.41a0.55,0.55,0,0,1-.64.44l-8.24-1.5a0.55,0.55,0,0,1-.45-0.64l0.79-4.3a0.55,0.55,0,0,1,.64-0.44l8.24,1.5a0.55,0.55,0,0,1,.44.64Z" transform="translate(-16.01 -54.27)"/><rect class="cls-2" x="278.02" y="321.81" width="5.47" height="9.48" rx="0.55" ry="0.55" transform="translate(-106.91 489.84) rotate(-79.66)"/><path class="cls-2" d="M168.51,308.29a0.54,0.54,0,0,1-.63.44l-11.21-2a0.54,0.54,0,0,1-.44-0.64l1.77-9.68a0.55,0.55,0,0,1,.63-0.44l11.21,2a0.55,0.55,0,0,1,.44.63Z" transform="translate(-16.01 -54.27)"/><path class="cls-2" d="M239.61,321.26a0.55,0.55,0,0,1-.64.44l-11.21-2a0.55,0.55,0,0,1-.44-0.64l1.77-9.68a0.56,0.56,0,0,1,.64-0.44l11.2,2a0.55,0.55,0,0,1,.44.64Z" transform="translate(-16.01 -54.27)"/><path class="cls-2" d="M225.29,318.65a0.55,0.55,0,0,1-.64.44L171,309.3a0.55,0.55,0,0,1-.44-0.64l1.77-9.68a0.56,0.56,0,0,1,.64-0.44l53.67,9.79a0.56,0.56,0,0,1,.44.64Z" transform="translate(-16.01 -54.27)"/><path class="cls-2" d="M159.49,293.43a0.55,0.55,0,0,1-.63.44l-8.25-1.5a0.55,0.55,0,0,1-.44-0.64l1.51-8.25a0.55,0.55,0,0,1,.63-0.44l8.25,1.5a0.55,0.55,0,0,1,.44.64Z" transform="translate(-16.01 -54.27)"/><path class="cls-2" d="M170.84,295.5a0.55,0.55,0,0,1-.63.44l-8.25-1.5a0.55,0.55,0,0,1-.44-0.64l1.5-8.25a0.55,0.55,0,0,1,.64-0.44l8.25,1.5a0.55,0.55,0,0,1,.44.64Z" transform="translate(-16.01 -54.27)"/><path class="cls-2" d="M182.2,297.57a0.55,0.55,0,0,1-.64.44l-8.24-1.5a0.56,0.56,0,0,1-.44-0.64l1.51-8.24a0.56,0.56,0,0,1,.64-0.44l8.25,1.5a0.55,0.55,0,0,1,.44.64Z" transform="translate(-16.01 -54.27)"/><path class="cls-2" d="M193.56,299.64a0.55,0.55,0,0,1-.63.44l-8.25-1.5a0.55,0.55,0,0,1-.44-0.64l1.51-8.25a0.55,0.55,0,0,1,.64-0.44l8.25,1.5a0.55,0.55,0,0,1,.44.64Z" transform="translate(-16.01 -54.27)"/><path class="cls-2" d="M204.91,301.72a0.55,0.55,0,0,1-.64.44l-8.25-1.5a0.55,0.55,0,0,1-.44-0.64l1.51-8.25a0.55,0.55,0,0,1,.63-0.44l8.25,1.51a0.55,0.55,0,0,1,.44.64Z" transform="translate(-16.01 -54.27)"/><path class="cls-2" d="M216.27,303.79a0.55,0.55,0,0,1-.64.44l-8.25-1.5a0.55,0.55,0,0,1-.44-0.64l1.51-8.25a0.55,0.55,0,0,1,.64-0.44l8.25,1.51a0.55,0.55,0,0,1,.44.64Z" transform="translate(-16.01 -54.27)"/><path class="cls-2" d="M227.63,305.86a0.55,0.55,0,0,1-.64.44l-8.24-1.5a0.55,0.55,0,0,1-.44-0.64l1.51-8.25a0.55,0.55,0,0,1,.63-0.44l8.25,1.5a0.55,0.55,0,0,1,.44.64Z" transform="translate(-16.01 -54.27)"/><path class="cls-2" d="M239,307.93a0.55,0.55,0,0,1-.64.44l-8.25-1.51a0.56,0.56,0,0,1-.44-0.64l1.51-8.25a0.55,0.55,0,0,1,.64-0.44L240,299a0.55,0.55,0,0,1,.44.64Z" transform="translate(-16.01 -54.27)"/><path class="cls-2" d="M250.34,310a0.55,0.55,0,0,1-.63.44l-8.25-1.5a0.55,0.55,0,0,1-.44-0.64l1.51-8.25a0.55,0.55,0,0,1,.64-0.44l8.25,1.5a0.55,0.55,0,0,1,.44.64Z" transform="translate(-16.01 -54.27)"/><rect class="cls-2" x="253.04" y="302.36" width="9.48" height="9.48" rx="0.55" ry="0.55" transform="translate(-106.61 451.32) rotate(-79.66)"/><path class="cls-2" d="M287.27,316.74a0.55,0.55,0,0,1-.64.44l-22.47-4.1a0.55,0.55,0,0,1-.44-0.64l1.5-8.25a0.55,0.55,0,0,1,.64-0.44l22.47,4.1a0.55,0.55,0,0,1,.44.64Z" transform="translate(-16.01 -54.27)"/><path class="cls-2" d="M167.12,283.09a0.54,0.54,0,0,1-.63.44L158.24,282a0.54,0.54,0,0,1-.44-0.63l1.5-8.25a0.55,0.55,0,0,1,.63-0.44l8.25,1.51a0.54,0.54,0,0,1,.44.63Z" transform="translate(-16.01 -54.27)"/><path class="cls-2" d="M178.48,285.16a0.55,0.55,0,0,1-.64.44l-8.25-1.5a0.54,0.54,0,0,1-.44-0.63l1.51-8.25a0.55,0.55,0,0,1,.63-0.44l8.25,1.51a0.55,0.55,0,0,1,.44.63Z" transform="translate(-16.01 -54.27)"/><path class="cls-2" d="M189.83,287.23a0.54,0.54,0,0,1-.63.44l-8.25-1.5a0.55,0.55,0,0,1-.44-0.64l1.5-8.25a0.55,0.55,0,0,1,.63-0.44l8.25,1.5a0.54,0.54,0,0,1,.44.63Z" transform="translate(-16.01 -54.27)"/><path class="cls-2" d="M201.19,289.3a0.55,0.55,0,0,1-.63.44l-8.25-1.51a0.54,0.54,0,0,1-.44-0.63l1.5-8.25a0.55,0.55,0,0,1,.63-0.44l8.25,1.51a0.55,0.55,0,0,1,.44.63Z" transform="translate(-16.01 -54.27)"/><path class="cls-2" d="M212.54,291.37a0.55,0.55,0,0,1-.64.44l-8.25-1.5a0.55,0.55,0,0,1-.44-0.64l1.51-8.25a0.55,0.55,0,0,1,.64-0.44l8.25,1.51a0.55,0.55,0,0,1,.44.63Z" transform="translate(-16.01 -54.27)"/><path class="cls-2" d="M215.8,283.74h8.38a0.55,0.55,0,0,1,.55.55v8.38a0.55,0.55,0,0,1-.55.55H215.8a0.54,0.54,0,0,1-.54-0.54v-8.38A0.55,0.55,0,0,1,215.8,283.74Z" transform="translate(-119.29 398.85) rotate(-79.66)"/><path class="cls-2" d="M227.15,285.81h8.39a0.54,0.54,0,0,1,.54.54v8.39a0.55,0.55,0,0,1-.55.55h-8.38a0.54,0.54,0,0,1-.54-0.54v-8.39A0.54,0.54,0,0,1,227.15,285.81Z" transform="translate(-112.01 411.72) rotate(-79.66)"/><path class="cls-2" d="M246.61,297.59a0.55,0.55,0,0,1-.63.44l-8.25-1.5a0.55,0.55,0,0,1-.44-0.63l1.5-8.25a0.55,0.55,0,0,1,.64-0.44l8.25,1.5a0.55,0.55,0,0,1,.44.63Z" transform="translate(-16.01 -54.27)"/><path class="cls-2" d="M258,299.66a0.55,0.55,0,0,1-.64.44l-8.25-1.51a0.55,0.55,0,0,1-.44-0.64l1.51-8.25a0.55,0.55,0,0,1,.63-0.44l8.25,1.51a0.55,0.55,0,0,1,.44.63Z" transform="translate(-16.01 -54.27)"/><path class="cls-2" d="M269.32,301.73a0.55,0.55,0,0,1-.64.44l-8.24-1.5A0.55,0.55,0,0,1,260,300l1.51-8.25a0.55,0.55,0,0,1,.64-0.44l8.25,1.5a0.55,0.55,0,0,1,.44.63Z" transform="translate(-16.01 -54.27)"/><path class="cls-2" d="M280.68,303.81a0.55,0.55,0,0,1-.64.44l-8.25-1.51a0.54,0.54,0,0,1-.43-0.64l1.51-8.25a0.54,0.54,0,0,1,.63-0.44l8.25,1.5a0.55,0.55,0,0,1,.44.63Z" transform="translate(-16.01 -54.27)"/><path class="cls-2" d="M166.51,271.24a0.55,0.55,0,0,1-.64.45l-8.25-1.51a0.55,0.55,0,0,1-.44-0.64l1.51-8.25a0.55,0.55,0,0,1,.64-0.44l8.25,1.5a0.55,0.55,0,0,1,.44.63Z" transform="translate(-16.01 -54.27)"/><path class="cls-2" d="M177.86,273.31a0.55,0.55,0,0,1-.64.45L169,272.25a0.55,0.55,0,0,1-.44-0.64l1.51-8.25a0.55,0.55,0,0,1,.63-0.44l8.25,1.5a0.55,0.55,0,0,1,.44.63Z" transform="translate(-16.01 -54.27)"/><path class="cls-2" d="M189.22,275.38a0.55,0.55,0,0,1-.64.44l-8.25-1.51a0.54,0.54,0,0,1-.43-0.64l1.5-8.25A0.55,0.55,0,0,1,182,265l8.25,1.5a0.55,0.55,0,0,1,.44.63Z" transform="translate(-16.01 -54.27)"/><path class="cls-2" d="M200.57,277.45a0.55,0.55,0,0,1-.63.45l-8.25-1.51a0.55,0.55,0,0,1-.44-0.64l1.51-8.25a0.55,0.55,0,0,1,.64-0.44l8.25,1.5a0.55,0.55,0,0,1,.44.63Z" transform="translate(-16.01 -54.27)"/><path class="cls-2" d="M211.93,279.53a0.55,0.55,0,0,1-.64.45l-8.24-1.5a0.55,0.55,0,0,1-.44-0.64l1.5-8.25a0.55,0.55,0,0,1,.63-0.44l8.25,1.5a0.55,0.55,0,0,1,.44.63Z" transform="translate(-16.01 -54.27)"/><path class="cls-2" d="M223.28,281.6a0.55,0.55,0,0,1-.64.45l-8.25-1.5a0.55,0.55,0,0,1-.44-0.64l1.51-8.25a0.55,0.55,0,0,1,.64-0.44l8.25,1.51a0.54,0.54,0,0,1,.44.63Z" transform="translate(-16.01 -54.27)"/><path class="cls-2" d="M234.64,283.67a0.55,0.55,0,0,1-.63.45l-8.25-1.51a0.55,0.55,0,0,1-.44-0.64l1.51-8.25a0.55,0.55,0,0,1,.63-0.44l8.25,1.51a0.54,0.54,0,0,1,.44.63Z" transform="translate(-16.01 -54.27)"/><rect class="cls-2" x="237.34" y="276.03" width="9.48" height="9.48" rx="0.55" ry="0.55" transform="translate(-93.6 414.25) rotate(-79.66)"/><path class="cls-2" d="M257.35,287.81a0.55,0.55,0,0,1-.63.45l-8.25-1.5a0.55,0.55,0,0,1-.44-0.64l1.5-8.25a0.55,0.55,0,0,1,.63-0.44l8.25,1.51a0.55,0.55,0,0,1,.44.63Z" transform="translate(-16.01 -54.27)"/><path class="cls-2" d="M268.7,289.89a0.55,0.55,0,0,1-.64.44l-8.25-1.5a0.55,0.55,0,0,1-.44-0.64l1.51-8.25a0.55,0.55,0,0,1,.63-0.44l8.25,1.5a0.55,0.55,0,0,1,.44.63Z" transform="translate(-16.01 -54.27)"/><path class="cls-2" d="M280.06,292a0.55,0.55,0,0,1-.63.45l-8.25-1.5a0.55,0.55,0,0,1-.44-0.64l1.5-8.25a0.55,0.55,0,0,1,.64-0.44l8.25,1.5a0.55,0.55,0,0,1,.44.63Z" transform="translate(-16.01 -54.27)"/><path class="cls-2" d="M143.79,267.1a0.55,0.55,0,0,1-.64.44l-14-2.55a0.55,0.55,0,0,1-.44-0.64l1.5-8.25a0.55,0.55,0,0,1,.64-0.44l14,2.55a0.55,0.55,0,0,1,.44.63Z" transform="translate(-16.01 -54.27)"/><rect class="cls-2" x="281.97" y="269.53" width="9.48" height="15.31" rx="0.55" ry="0.55" transform="translate(-53.46 455.19) rotate(-79.66)"/><path class="cls-2" d="M144.41,278.94a0.54,0.54,0,0,1-.64.44l-16.67-3a0.54,0.54,0,0,1-.44-0.64l1.5-8.25a0.55,0.55,0,0,1,.64-0.44l16.67,3a0.55,0.55,0,0,1,.44.63Z" transform="translate(-16.01 -54.27)"/><path class="cls-2" d="M136.78,289.28a0.55,0.55,0,0,1-.64.44l-11.12-2a0.55,0.55,0,0,1-.44-0.64l1.5-8.25a0.55,0.55,0,0,1,.64-0.44l11.11,2a0.55,0.55,0,0,1,.44.64Z" transform="translate(-16.01 -54.27)"/><path class="cls-2" d="M151.48,256.77a0.54,0.54,0,0,1-.64.44l-8.24-1.5a0.55,0.55,0,0,1-.44-0.64l1.5-8.25a0.55,0.55,0,0,1,.64-0.44l8.24,1.5a0.55,0.55,0,0,1,.44.64Z" transform="translate(-16.01 -54.27)"/><path class="cls-2" d="M162.84,258.84a0.55,0.55,0,0,1-.64.44l-8.25-1.5a0.55,0.55,0,0,1-.44-0.64l1.51-8.25a0.55,0.55,0,0,1,.63-0.44l8.25,1.5a0.55,0.55,0,0,1,.44.64Z" transform="translate(-16.01 -54.27)"/><path class="cls-2" d="M174.2,260.91a0.55,0.55,0,0,1-.64.44l-8.25-1.5a0.55,0.55,0,0,1-.44-0.64l1.5-8.24a0.55,0.55,0,0,1,.64-0.44l8.25,1.51a0.55,0.55,0,0,1,.44.64Z" transform="translate(-16.01 -54.27)"/><path class="cls-2" d="M185.55,263a0.55,0.55,0,0,1-.64.44l-8.25-1.5a0.55,0.55,0,0,1-.44-0.64l1.51-8.25a0.55,0.55,0,0,1,.64-0.44l8.25,1.51a0.55,0.55,0,0,1,.44.64Z" transform="translate(-16.01 -54.27)"/><path class="cls-2" d="M188.8,255.34h8.39a0.55,0.55,0,0,1,.55.55v8.38a0.55,0.55,0,0,1-.55.55H188.8a0.54,0.54,0,0,1-.54-0.54v-8.38a0.55,0.55,0,0,1,.55-0.55Z" transform="translate(-113.53 348.96) rotate(-79.65)"/><path class="cls-2" d="M208.26,267.13a0.55,0.55,0,0,1-.64.44l-8.24-1.5a0.55,0.55,0,0,1-.44-0.64l1.5-8.25a0.55,0.55,0,0,1,.64-0.44l8.24,1.5a0.55,0.55,0,0,1,.44.64Z" transform="translate(-16.01 -54.27)"/><path class="cls-2" d="M219.61,269.2a0.54,0.54,0,0,1-.63.44l-8.25-1.5a0.55,0.55,0,0,1-.44-0.64l1.5-8.25a0.55,0.55,0,0,1,.64-0.44l8.25,1.5a0.54,0.54,0,0,1,.44.64Z" transform="translate(-16.01 -54.27)"/><path class="cls-2" d="M231,271.27a0.55,0.55,0,0,1-.64.44l-8.25-1.5a0.55,0.55,0,0,1-.44-0.64l1.51-8.25a0.55,0.55,0,0,1,.63-0.44l8.25,1.51a0.55,0.55,0,0,1,.44.64Z" transform="translate(-16.01 -54.27)"/><path class="cls-2" d="M242.32,273.34a0.54,0.54,0,0,1-.63.44l-8.25-1.5a0.55,0.55,0,0,1-.44-0.64l1.51-8.25a0.55,0.55,0,0,1,.64-0.44l8.24,1.5a0.54,0.54,0,0,1,.44.64Z" transform="translate(-16.01 -54.27)"/><path class="cls-2" d="M253.68,275.41a0.55,0.55,0,0,1-.64.44l-8.25-1.5a0.55,0.55,0,0,1-.44-0.64l1.51-8.24a0.55,0.55,0,0,1,.63-0.44l8.25,1.51a0.55,0.55,0,0,1,.44.64Z" transform="translate(-16.01 -54.27)"/><path class="cls-2" d="M265,277.49a0.55,0.55,0,0,1-.64.44l-8.25-1.5a0.55,0.55,0,0,1-.44-0.64l1.51-8.25a0.55,0.55,0,0,1,.64-0.44l8.25,1.5a0.55,0.55,0,0,1,.44.64Z" transform="translate(-16.01 -54.27)"/><path class="cls-2" d="M276.39,279.56a0.54,0.54,0,0,1-.63.44l-8.25-1.51a0.55,0.55,0,0,1-.44-0.64l1.51-8.25a0.55,0.55,0,0,1,.63-0.44l8.25,1.51a0.54,0.54,0,0,1,.44.64Z" transform="translate(-16.01 -54.27)"/><path class="cls-2" d="M265.18,321.24l-0.83,4.54a0.55,0.55,0,0,0,.09.41,0.56,0.56,0,0,0,.35.23l8.25,1.5a0.54,0.54,0,0,0,.41-0.09,0.53,0.53,0,0,0,.23-0.35l0.83-4.54Z" transform="translate(-16.01 -54.27)"/><path class="cls-2" d="M274.61,322.33l0.83-4.54a0.55,0.55,0,0,0-.44-0.63l-8.25-1.5a0.55,0.55,0,0,0-.41.09,0.54,0.54,0,0,0-.23.35l-0.83,4.54Z" transform="translate(-16.01 -54.27)"/><path class="cls-2" d="M284.23,283.65a0.53,0.53,0,0,0-.41.09,0.54,0.54,0,0,0-.22.35l-1.51,8.25a0.55,0.55,0,0,0,.43.64l2.15,0.39-2,10.81a0.55,0.55,0,0,0,.09.41,0.53,0.53,0,0,0,.35.23l5.56,1a0.55,0.55,0,0,0,.41-0.09,0.54,0.54,0,0,0,.23-0.35l3.58-19.6a0.54,0.54,0,0,0-.44-0.63Z" transform="translate(-16.01 -54.27)"/><polygon class="cls-3" points="600.45 51.83 665.45 1.89 721.08 72.6 671.08 122.54 600.45 51.83"/><polygon class="cls-4" points="643.25 82.09 647.57 77.78 651.49 81.71 647.17 86.03 643.25 82.09"/><rect class="cls-5" x="664.47" y="126.36" width="6.1" height="7.95" transform="translate(87.12 455.6) rotate(-44.97)"/><rect class="cls-6" x="667.5" y="116.63" width="6.1" height="13.52" transform="translate(93.02 455.84) rotate(-44.98)"/><rect class="cls-7" x="673.15" y="113.24" width="6.1" height="11.64" transform="translate(97.63 458.43) rotate(-44.97)"/><rect class="cls-8" x="680.2" y="113.21" width="6.1" height="5.83" transform="translate(101.81 462.62) rotate(-44.97)"/><rect class="cls-6" x="684.28" y="106.47" width="6.1" height="8.02" transform="translate(107.04 463.91) rotate(-44.98)"/><rect class="cls-7" x="688" y="98.39" width="6.1" height="11.64" transform="translate(112.37 464.46) rotate(-44.95)"/><rect class="cls-8" x="690.27" y="86.84" width="6.1" height="19.33" transform="translate(118.58 463.93) rotate(-44.97)"/><rect class="cls-9" x="664.04" y="138.2" width="26.48" height="1.76" transform="translate(83.82 465.09) rotate(-44.97)"/><rect class="cls-9" x="666.22" y="140.38" width="26.48" height="1.76" transform="translate(82.9 467.24) rotate(-44.97)"/><rect class="cls-9" x="668.39" y="142.56" width="26.48" height="1.76" transform="translate(81.99 469.4) rotate(-44.97)"/><rect class="cls-9" x="670.57" y="144.74" width="26.48" height="1.76" transform="translate(81.08 471.55) rotate(-44.97)"/><rect class="cls-9" x="672.75" y="146.91" width="26.48" height="1.76" transform="translate(80.2 473.78) rotate(-44.97)"/><rect class="cls-9" x="674.92" y="149.09" width="26.48" height="1.76" transform="translate(79.26 475.89) rotate(-44.96)"/><rect class="cls-9" x="677.1" y="151.27" width="26.48" height="1.76" transform="translate(78.38 478.09) rotate(-44.97)"/><rect class="cls-9" x="681.21" y="158.13" width="13.24" height="1.76" transform="translate(72.82 478.36) rotate(-44.97)"/><rect class="cls-9" x="686.13" y="116.14" width="26.48" height="1.76" transform="translate(105.86 474.22) rotate(-44.97)"/><rect class="cls-9" x="688.31" y="118.32" width="26.48" height="1.76" transform="translate(104.93 476.36) rotate(-44.97)"/><rect class="cls-9" x="690.48" y="120.49" width="26.48" height="1.76" transform="translate(104.07 478.6) rotate(-44.97)"/><rect class="cls-9" x="692.66" y="122.67" width="26.48" height="1.76" transform="translate(103.13 480.71) rotate(-44.97)"/><rect class="cls-9" x="694.83" y="124.85" width="26.48" height="1.76" transform="translate(102.25 482.92) rotate(-44.97)"/><rect class="cls-9" x="697.01" y="127.03" width="26.48" height="1.76" transform="translate(101.33 485.08) rotate(-44.97)"/><rect class="cls-9" x="699.18" y="129.21" width="26.48" height="1.76" transform="translate(100.45 487.28) rotate(-44.97)"/><rect class="cls-9" x="702.51" y="134.16" width="18.64" height="1.76" transform="translate(96.75 488.27) rotate(-44.97)"/><polygon class="cls-10" points="631.27 68.15 628.57 67.74 632.3 42.98 647.9 40.05 652.56 15.13 655.25 15.64 650.24 42.4 634.72 45.31 631.27 68.15"/><polygon class="cls-10" points="658.77 18.89 657.22 20.44 653.81 17.02 650.4 20.44 648.85 18.89 653.81 13.93 658.77 18.89"/><path class="cls-11" d="M666.72,93.12a3,3,0,1,0,0,4.26,3,3,0,0,0,0-4.26" transform="translate(-16.01 -54.27)"/><path class="cls-11" d="M651.68,96.26a3,3,0,1,0,0,4.25,3,3,0,0,0,0-4.25" transform="translate(-16.01 -54.27)"/><rect class="cls-12" x="689.7" y="125.28" width="99.95" height="70.67" transform="matrix(0, -1, 1, 0, 561.83, 845.76)"/><rect class="cls-9" x="738.56" y="148.31" width="1.76" height="57.29" transform="translate(545.47 861.88) rotate(-89.92)"/><rect class="cls-9" x="738.55" y="151.39" width="1.76" height="57.29" transform="translate(542.4 864.95) rotate(-89.92)"/><rect class="cls-9" x="738.54" y="154.47" width="1.76" height="57.29" transform="translate(539.29 868.02) rotate(-89.92)"/><rect class="cls-9" x="738.54" y="157.55" width="1.76" height="57.29" transform="translate(536.21 871.09) rotate(-89.92)"/><rect class="cls-9" x="738.53" y="160.63" width="1.76" height="57.29" transform="translate(533.15 874.16) rotate(-89.92)"/><rect class="cls-9" x="738.53" y="163.71" width="1.76" height="57.29" transform="translate(530.04 877.23) rotate(-89.92)"/><rect class="cls-9" x="738.52" y="166.78" width="1.76" height="57.29" transform="translate(526.97 880.3) rotate(-89.92)"/><rect class="cls-9" x="716.5" y="191.86" width="1.76" height="13.24" transform="translate(501.77 861.28) rotate(-89.91)"/><path class="cls-13" d="M747.73,147.17a8.32,8.32,0,0,1-1.82,3.11l6.18,8.64a18.93,18.93,0,0,0,6.23-10.57Z" transform="translate(-16.01 -54.27)"/><path class="cls-10" d="M741.43,136.2a8.5,8.5,0,0,1,6.69,7.53l10.58,1.18c0-.12,0-0.24,0-0.36a19,19,0,0,0-17.27-19v10.6Z" transform="translate(-16.01 -54.27)"/><path class="cls-14" d="M733.43,138.82A8.42,8.42,0,0,1,738,136.2V125.6a19,19,0,0,0-13.71,7.82Z" transform="translate(-16.01 -54.27)"/><path class="cls-15" d="M743.11,152.3a8.37,8.37,0,0,1-3.43.73,8.5,8.5,0,0,1-8.49-8.51,8.36,8.36,0,0,1,.49-2.72l-9.16-5.41a19,19,0,0,0,26.76,24.54Z" transform="translate(-16.01 -54.27)"/><path class="cls-12" d="M16,255.52a4.34,4.34,0,0,1,4.25-4.32H30.67l0,8.52H20.29a4.18,4.18,0,0,1-4.28-4.2" transform="translate(-16.01 -54.27)"/><path class="cls-16" d="M30.7,259.72l0-8.52-4.76,0a30.13,30.13,0,0,0,0,8.52Z" transform="translate(-16.01 -54.27)"/><path class="cls-12" d="M30,262.58a26.64,26.64,0,1,1,32.51,19,26.63,26.63,0,0,1-32.51-19" transform="translate(-16.01 -54.27)"/><path class="cls-17" d="M36,261A20.53,20.53,0,1,1,61,275.7,20.53,20.53,0,0,1,36,261" transform="translate(-16.01 -54.27)"/><path class="cls-18" d="M68.51,246.45A20.53,20.53,0,0,1,42.08,271.1a20.53,20.53,0,1,0,20.31-34.71,20.41,20.41,0,0,1,6.13,10.06" transform="translate(-16.01 -54.27)"/><path class="cls-12" d="M387.4,281.2a4.35,4.35,0,0,1-.78-6L393,267l6.73,5.23-6.42,8.2a4.18,4.18,0,0,1-5.95.78" transform="translate(-16.01 -54.27)"/><path class="cls-16" d="M399.77,272.23L393,267l-2.92,3.76a30.15,30.15,0,0,0,6.73,5.23Z" transform="translate(-16.01 -54.27)"/><path class="cls-12" d="M401.61,274.51a26.64,26.64,0,1,1,35-13.87,26.63,26.63,0,0,1-35,13.87" transform="translate(-16.01 -54.27)"/><path class="cls-17" d="M404,268.91a20.53,20.53,0,1,1,27-10.69,20.53,20.53,0,0,1-27,10.69" transform="translate(-16.01 -54.27)"/><path class="cls-18" d="M412.63,234.28a20.53,20.53,0,0,1,3.11,36,20.53,20.53,0,1,0-14.81-37.38,20.39,20.39,0,0,1,11.7,1.38" transform="translate(-16.01 -54.27)"/><path class="cls-3" d="M458.36,236.9l188.33-43a4.52,4.52,0,0,1,5.39,3.39L680,319.41a4.52,4.52,0,0,1-3.39,5.4l-188.33,43a4.52,4.52,0,0,1-5.39-3.39L455,242.29a4.52,4.52,0,0,1,3.39-5.4" transform="translate(-16.01 -54.27)"/><path class="cls-19" d="M466.91,234.94l10.92-2.5,1.43,6.24a1.05,1.05,0,0,1-.79,1.26l-8.87,2a1.06,1.06,0,0,1-1.26-.79Z" transform="translate(-16.01 -54.27)"/><path class="cls-19" d="M627.21,198.32l10.92-2.49,1.43,6.24a1.06,1.06,0,0,1-.79,1.26l-8.87,2a1.05,1.05,0,0,1-1.26-.79Z" transform="translate(-16.01 -54.27)"/><path class="cls-20" d="M426.92,183.12l224.35-51.25c5.39-1.23,7.61.91,6.19,4.89l-7.41,54L453.45,235.66,426.07,192.8c-5.11-5.08-5.09-8.32.86-9.68" transform="translate(-16.01 -54.27)"/><polygon class="cls-3" points="630.65 88.09 626.76 133.97 443.06 175.94 419.5 136.33 630.65 88.09"/><path class="cls-3" d="M425.87,184.22l227.38-51.95a0.9,0.9,0,1,1,.4,1.76L426.27,186a0.9,0.9,0,1,1-.4-1.76" transform="translate(-16.01 -54.27)"/><path class="cls-3" d="M467.17,228.93l7.82-1.79a0.93,0.93,0,0,1,1.11.7l2.11,9.24a0.93,0.93,0,0,1-.7,1.11L469.69,240a0.93,0.93,0,0,1-1.11-.7L466.47,230a0.94,0.94,0,0,1,.7-1.11" transform="translate(-16.01 -54.27)"/><path class="cls-3" d="M627.47,192.31l7.82-1.79a0.93,0.93,0,0,1,1.11.7l2.11,9.24a0.93,0.93,0,0,1-.7,1.11L630,203.36a0.93,0.93,0,0,1-1.11-.7l-2.11-9.24a0.93,0.93,0,0,1,.7-1.11" transform="translate(-16.01 -54.27)"/><path class="cls-20" d="M635.88,214.7l6.08-1.39a1.29,1.29,0,0,1,1.54,1l1,4.52a1.29,1.29,0,0,1-1,1.54l-6.08,1.39a1.29,1.29,0,0,1-1.54-1l-1-4.52a1.29,1.29,0,0,1,1-1.54" transform="translate(-16.01 -54.27)"/><path class="cls-20" d="M638.13,223.26l5.52-1.26a1.58,1.58,0,0,1,1.89,1.18l1.4,6.12a1.58,1.58,0,0,1-1.19,1.89l-5.52,1.26a1.58,1.58,0,0,1-1.89-1.19l-1.4-6.12a1.58,1.58,0,0,1,1.19-1.89" transform="translate(-16.01 -54.27)"/><path class="cls-20" d="M640.59,234l5.52-1.26A1.58,1.58,0,0,1,648,234l1.4,6.12a1.58,1.58,0,0,1-1.19,1.89l-5.52,1.26a1.58,1.58,0,0,1-1.89-1.18l-1.4-6.12a1.58,1.58,0,0,1,1.19-1.88" transform="translate(-16.01 -54.27)"/><path class="cls-20" d="M643.06,244.83l5.52-1.26a1.58,1.58,0,0,1,1.89,1.18l1.4,6.12a1.58,1.58,0,0,1-1.19,1.89L645.16,254a1.58,1.58,0,0,1-1.89-1.18l-1.4-6.12a1.58,1.58,0,0,1,1.19-1.89" transform="translate(-16.01 -54.27)"/><path class="cls-20" d="M645.52,255.61l5.52-1.26a1.58,1.58,0,0,1,1.89,1.18l1.4,6.13a1.58,1.58,0,0,1-1.19,1.89l-5.52,1.26a1.58,1.58,0,0,1-1.89-1.18l-1.4-6.12a1.58,1.58,0,0,1,1.19-1.88" transform="translate(-16.01 -54.27)"/><path class="cls-20" d="M648,266.39l5.52-1.26a1.58,1.58,0,0,1,1.89,1.18l1.4,6.12a1.58,1.58,0,0,1-1.19,1.89l-5.52,1.26a1.58,1.58,0,0,1-1.89-1.18l-1.4-6.12a1.58,1.58,0,0,1,1.18-1.89" transform="translate(-16.01 -54.27)"/><path class="cls-20" d="M625.14,217.15l6.08-1.39a1.3,1.3,0,0,1,1.54,1l1,4.52a1.29,1.29,0,0,1-1,1.54l-6.08,1.39a1.29,1.29,0,0,1-1.54-1l-1-4.52a1.29,1.29,0,0,1,1-1.54" transform="translate(-16.01 -54.27)"/><path class="cls-20" d="M617.57,228l15.23-3.48a1.69,1.69,0,0,1,2,1.27l1.35,5.91a1.69,1.69,0,0,1-1.27,2l-15.23,3.48a1.69,1.69,0,0,1-2-1.27L616.3,230a1.69,1.69,0,0,1,1.27-2" transform="translate(-16.01 -54.27)"/><path class="cls-20" d="M627,237.14l8.24-1.88a1.69,1.69,0,0,1,2,1.27l1.35,5.91a1.69,1.69,0,0,1-1.27,2l-8.24,1.88a1.69,1.69,0,0,1-2-1.27l-1.35-5.91a1.69,1.69,0,0,1,1.27-2" transform="translate(-16.01 -54.27)"/><path class="cls-20" d="M621.29,249.8L637.73,246a1.69,1.69,0,0,1,2,1.27l1.35,5.91a1.69,1.69,0,0,1-1.27,2L623.38,259a1.69,1.69,0,0,1-2-1.26L620,251.82a1.69,1.69,0,0,1,1.27-2" transform="translate(-16.01 -54.27)"/><path class="cls-20" d="M634.78,258.06l5.53-1.26a1.58,1.58,0,0,1,1.89,1.18l1.4,6.12A1.58,1.58,0,0,1,642.4,266l-5.53,1.26a1.58,1.58,0,0,1-1.88-1.18l-1.4-6.12a1.58,1.58,0,0,1,1.19-1.88" transform="translate(-16.01 -54.27)"/><path class="cls-20" d="M637.24,268.85l5.53-1.26a1.58,1.58,0,0,1,1.89,1.18l1.4,6.12a1.58,1.58,0,0,1-1.19,1.88L639.34,278a1.58,1.58,0,0,1-1.89-1.18l-1.4-6.12a1.58,1.58,0,0,1,1.18-1.89" transform="translate(-16.01 -54.27)"/><path class="cls-20" d="M615.21,219.42l5.26-1.2a1.29,1.29,0,0,1,1.55,1l1,4.52a1.29,1.29,0,0,1-1,1.54l-5.26,1.2a1.3,1.3,0,0,1-1.54-1l-1-4.52a1.29,1.29,0,0,1,1-1.54" transform="translate(-16.01 -54.27)"/><path class="cls-20" d="M605.13,221.73l5.26-1.2a1.29,1.29,0,0,1,1.54,1l1,4.52a1.29,1.29,0,0,1-1,1.54l-5.26,1.2a1.29,1.29,0,0,1-1.54-1l-1-4.52a1.29,1.29,0,0,1,1-1.55" transform="translate(-16.01 -54.27)"/><path class="cls-20" d="M595,224l5.26-1.2a1.3,1.3,0,0,1,1.54,1l1,4.52a1.29,1.29,0,0,1-1,1.54l-5.26,1.2a1.29,1.29,0,0,1-1.54-1l-1-4.52a1.29,1.29,0,0,1,1-1.55" transform="translate(-16.01 -54.27)"/><path class="cls-20" d="M585,226.33l5.26-1.2a1.29,1.29,0,0,1,1.54,1l1,4.52a1.29,1.29,0,0,1-1,1.54l-5.26,1.2a1.29,1.29,0,0,1-1.54-1l-1-4.52a1.29,1.29,0,0,1,1-1.54" transform="translate(-16.01 -54.27)"/><path class="cls-20" d="M574.87,228.64l5.26-1.2a1.29,1.29,0,0,1,1.54,1l1,4.52a1.29,1.29,0,0,1-1,1.54l-5.26,1.2a1.3,1.3,0,0,1-1.55-1l-1-4.52a1.3,1.3,0,0,1,1-1.54" transform="translate(-16.01 -54.27)"/><path class="cls-20" d="M564.78,230.94l5.26-1.2a1.29,1.29,0,0,1,1.54,1l1,4.52a1.29,1.29,0,0,1-1,1.54l-5.26,1.2a1.3,1.3,0,0,1-1.54-1l-1-4.52a1.29,1.29,0,0,1,1-1.54" transform="translate(-16.01 -54.27)"/><path class="cls-20" d="M554.7,233.25L560,232a1.29,1.29,0,0,1,1.54,1l1,4.52a1.29,1.29,0,0,1-1,1.54l-5.26,1.2a1.29,1.29,0,0,1-1.54-1l-1-4.52a1.29,1.29,0,0,1,1-1.54" transform="translate(-16.01 -54.27)"/><path class="cls-20" d="M544.61,235.55l5.26-1.2a1.29,1.29,0,0,1,1.54,1l1,4.52a1.29,1.29,0,0,1-1,1.54l-5.26,1.2a1.29,1.29,0,0,1-1.54-1l-1-4.52a1.3,1.3,0,0,1,1-1.54" transform="translate(-16.01 -54.27)"/><path class="cls-20" d="M534.52,237.86l5.26-1.2a1.29,1.29,0,0,1,1.54,1l1,4.52a1.29,1.29,0,0,1-1,1.54l-5.26,1.2a1.29,1.29,0,0,1-1.54-1l-1-4.52a1.29,1.29,0,0,1,1-1.54" transform="translate(-16.01 -54.27)"/><path class="cls-20" d="M524.44,240.16l5.26-1.2a1.29,1.29,0,0,1,1.54,1l1,4.52a1.29,1.29,0,0,1-1,1.54l-5.26,1.2a1.29,1.29,0,0,1-1.54-1l-1-4.52a1.29,1.29,0,0,1,1-1.54" transform="translate(-16.01 -54.27)"/><path class="cls-20" d="M514.35,242.46l5.26-1.2a1.3,1.3,0,0,1,1.54,1l1,4.52a1.29,1.29,0,0,1-1,1.54L516,249.5a1.29,1.29,0,0,1-1.54-1l-1-4.52a1.29,1.29,0,0,1,1-1.54" transform="translate(-16.01 -54.27)"/><path class="cls-20" d="M504.27,244.77l5.26-1.2a1.29,1.29,0,0,1,1.54,1l1,4.52a1.29,1.29,0,0,1-1,1.54l-5.26,1.2a1.29,1.29,0,0,1-1.54-1l-1-4.52a1.29,1.29,0,0,1,1-1.54" transform="translate(-16.01 -54.27)"/><path class="cls-20" d="M494.18,247.07l5.26-1.2a1.29,1.29,0,0,1,1.54,1l1,4.52a1.3,1.3,0,0,1-1,1.54l-5.26,1.2a1.29,1.29,0,0,1-1.55-1l-1-4.52a1.29,1.29,0,0,1,1-1.54" transform="translate(-16.01 -54.27)"/><path class="cls-20" d="M484.1,249.38l5.26-1.2a1.29,1.29,0,0,1,1.54,1l1,4.52a1.29,1.29,0,0,1-1,1.54l-5.26,1.2a1.29,1.29,0,0,1-1.54-1l-1-4.52a1.29,1.29,0,0,1,1-1.54" transform="translate(-16.01 -54.27)"/><path class="cls-20" d="M472.77,252l6.08-1.39a1.29,1.29,0,0,1,1.54,1l1,4.52a1.29,1.29,0,0,1-1,1.54L474.37,259a1.29,1.29,0,0,1-1.54-1l-1-4.52a1.29,1.29,0,0,1,1-1.54" transform="translate(-16.01 -54.27)"/><path class="cls-20" d="M606.69,230.44l5.42-1.24a1.55,1.55,0,0,1,1.85,1.16l1.41,6.18a1.55,1.55,0,0,1-1.16,1.85l-5.42,1.24a1.55,1.55,0,0,1-1.85-1.16l-1.41-6.18a1.55,1.55,0,0,1,1.16-1.85" transform="translate(-16.01 -54.27)"/><path class="cls-20" d="M595.74,232.94l5.42-1.24a1.55,1.55,0,0,1,1.85,1.16l1.41,6.18a1.55,1.55,0,0,1-1.16,1.85l-5.42,1.24A1.55,1.55,0,0,1,596,241l-1.41-6.18a1.55,1.55,0,0,1,1.16-1.85" transform="translate(-16.01 -54.27)"/><path class="cls-20" d="M584.8,235.44l5.42-1.24a1.55,1.55,0,0,1,1.85,1.16l1.41,6.18a1.55,1.55,0,0,1-1.16,1.85l-5.42,1.24a1.55,1.55,0,0,1-1.85-1.17l-1.41-6.18a1.55,1.55,0,0,1,1.16-1.85" transform="translate(-16.01 -54.27)"/><path class="cls-20" d="M573.86,237.94l5.42-1.24a1.55,1.55,0,0,1,1.85,1.17l1.41,6.18a1.55,1.55,0,0,1-1.16,1.85L576,247.14a1.55,1.55,0,0,1-1.85-1.16l-1.41-6.18a1.55,1.55,0,0,1,1.16-1.85" transform="translate(-16.01 -54.27)"/><path class="cls-20" d="M562.91,240.44l5.42-1.24a1.55,1.55,0,0,1,1.85,1.16l1.41,6.18a1.55,1.55,0,0,1-1.16,1.85L565,249.64a1.55,1.55,0,0,1-1.85-1.16l-1.41-6.18a1.55,1.55,0,0,1,1.16-1.85" transform="translate(-16.01 -54.27)"/><path class="cls-20" d="M552,242.94l5.42-1.24a1.55,1.55,0,0,1,1.85,1.16l1.41,6.18a1.55,1.55,0,0,1-1.16,1.85l-5.42,1.24a1.55,1.55,0,0,1-1.85-1.16l-1.41-6.18a1.55,1.55,0,0,1,1.16-1.85" transform="translate(-16.01 -54.27)"/><path class="cls-20" d="M541,245.44l5.42-1.24a1.55,1.55,0,0,1,1.85,1.16l1.41,6.18a1.55,1.55,0,0,1-1.16,1.85l-5.42,1.24a1.55,1.55,0,0,1-1.85-1.16l-1.41-6.18a1.55,1.55,0,0,1,1.16-1.85" transform="translate(-16.01 -54.27)"/><path class="cls-20" d="M530.09,247.94l5.42-1.24a1.55,1.55,0,0,1,1.85,1.16l1.41,6.18a1.55,1.55,0,0,1-1.16,1.85l-5.42,1.24a1.55,1.55,0,0,1-1.85-1.16l-1.41-6.18a1.55,1.55,0,0,1,1.16-1.85" transform="translate(-16.01 -54.27)"/><path class="cls-20" d="M519.14,250.44l5.42-1.24a1.55,1.55,0,0,1,1.85,1.16l1.41,6.18a1.55,1.55,0,0,1-1.16,1.85l-5.42,1.24a1.55,1.55,0,0,1-1.85-1.17L518,252.29a1.55,1.55,0,0,1,1.16-1.85" transform="translate(-16.01 -54.27)"/><path class="cls-20" d="M508.2,252.94l5.42-1.24a1.55,1.55,0,0,1,1.85,1.16l1.41,6.18a1.55,1.55,0,0,1-1.16,1.85l-5.42,1.24a1.55,1.55,0,0,1-1.85-1.16L507,254.79a1.55,1.55,0,0,1,1.16-1.85" transform="translate(-16.01 -54.27)"/><path class="cls-20" d="M497.26,255.44l5.42-1.24a1.55,1.55,0,0,1,1.85,1.16l1.41,6.18a1.55,1.55,0,0,1-1.16,1.85l-5.42,1.24a1.55,1.55,0,0,1-1.85-1.16l-1.41-6.18a1.55,1.55,0,0,1,1.16-1.85" transform="translate(-16.01 -54.27)"/><path class="cls-20" d="M486.32,257.94l5.42-1.24a1.55,1.55,0,0,1,1.85,1.16L495,264a1.55,1.55,0,0,1-1.16,1.85l-5.42,1.24a1.55,1.55,0,0,1-1.85-1.16l-1.41-6.18a1.55,1.55,0,0,1,1.16-1.85" transform="translate(-16.01 -54.27)"/><path class="cls-20" d="M475,260.52l5.52-1.26a1.58,1.58,0,0,1,1.89,1.19l1.4,6.12a1.58,1.58,0,0,1-1.18,1.89l-5.53,1.26a1.58,1.58,0,0,1-1.89-1.18l-1.4-6.12a1.58,1.58,0,0,1,1.19-1.89" transform="translate(-16.01 -54.27)"/><path class="cls-20" d="M477.59,271.28l11.37-2.6a1.69,1.69,0,0,1,2,1.27l1.35,5.91a1.69,1.69,0,0,1-1.27,2l-11.37,2.6a1.69,1.69,0,0,1-2-1.27l-1.35-5.91a1.69,1.69,0,0,1,1.27-2" transform="translate(-16.01 -54.27)"/><path class="cls-20" d="M480,282.07L493.56,279a1.69,1.69,0,0,1,2,1.27l1.35,5.91a1.69,1.69,0,0,1-1.27,2l-13.52,3.09a1.69,1.69,0,0,1-2-1.27l-1.35-5.91a1.69,1.69,0,0,1,1.27-2" transform="translate(-16.01 -54.27)"/><path class="cls-20" d="M482.51,292.85l19.37-4.43a1.69,1.69,0,0,1,2,1.26l1.35,5.91a1.69,1.69,0,0,1-1.27,2L484.61,302a1.69,1.69,0,0,1-2-1.27l-1.35-5.91a1.69,1.69,0,0,1,1.27-2" transform="translate(-16.01 -54.27)"/><path class="cls-20" d="M485,303.63l8-1.84a1.69,1.69,0,0,1,2,1.27l1.35,5.91a1.69,1.69,0,0,1-1.27,2l-8,1.84a1.69,1.69,0,0,1-2-1.27l-1.35-5.91a1.69,1.69,0,0,1,1.27-2" transform="translate(-16.01 -54.27)"/><path class="cls-20" d="M493.57,267.63l5.81-1.33a1.66,1.66,0,0,1,2,1.24l1.36,6a1.66,1.66,0,0,1-1.24,2l-5.81,1.33a1.66,1.66,0,0,1-2-1.25l-1.36-6a1.66,1.66,0,0,1,1.24-2" transform="translate(-16.01 -54.27)"/><path class="cls-20" d="M504.72,265.08l5.81-1.33a1.66,1.66,0,0,1,2,1.24l1.36,6a1.66,1.66,0,0,1-1.25,2l-5.81,1.33a1.66,1.66,0,0,1-2-1.24l-1.36-6a1.66,1.66,0,0,1,1.25-2" transform="translate(-16.01 -54.27)"/><path class="cls-20" d="M515.87,262.54l5.81-1.33a1.66,1.66,0,0,1,2,1.24l1.36,6a1.66,1.66,0,0,1-1.24,2L518,271.73a1.66,1.66,0,0,1-2-1.25l-1.36-6a1.66,1.66,0,0,1,1.25-2" transform="translate(-16.01 -54.27)"/><path class="cls-20" d="M527,260l5.8-1.33a1.66,1.66,0,0,1,2,1.24l1.36,6a1.66,1.66,0,0,1-1.25,2l-5.81,1.33a1.66,1.66,0,0,1-2-1.24l-1.36-6a1.66,1.66,0,0,1,1.25-2" transform="translate(-16.01 -54.27)"/><path class="cls-20" d="M538.17,257.44l5.81-1.33a1.66,1.66,0,0,1,2,1.24l1.36,6a1.66,1.66,0,0,1-1.25,2l-5.81,1.33a1.66,1.66,0,0,1-2-1.25l-1.36-6a1.66,1.66,0,0,1,1.24-2" transform="translate(-16.01 -54.27)"/><path class="cls-20" d="M549.32,254.9l5.81-1.33a1.66,1.66,0,0,1,2,1.24l1.36,6a1.66,1.66,0,0,1-1.25,2l-5.8,1.33a1.66,1.66,0,0,1-2-1.25l-1.36-6a1.66,1.66,0,0,1,1.25-2" transform="translate(-16.01 -54.27)"/><path class="cls-20" d="M560.46,252.35l5.81-1.33a1.66,1.66,0,0,1,2,1.25l1.36,6a1.66,1.66,0,0,1-1.24,2l-5.81,1.33a1.66,1.66,0,0,1-2-1.25l-1.36-6a1.66,1.66,0,0,1,1.25-2" transform="translate(-16.01 -54.27)"/><path class="cls-20" d="M571.61,249.8l5.81-1.33a1.66,1.66,0,0,1,2,1.24l1.36,6a1.66,1.66,0,0,1-1.25,2L573.71,259a1.66,1.66,0,0,1-2-1.25l-1.36-6a1.66,1.66,0,0,1,1.24-2" transform="translate(-16.01 -54.27)"/><path class="cls-20" d="M582.76,247.26l5.81-1.33a1.66,1.66,0,0,1,2,1.24l1.36,6a1.66,1.66,0,0,1-1.24,2l-5.81,1.33a1.66,1.66,0,0,1-2-1.25l-1.36-6a1.66,1.66,0,0,1,1.24-2" transform="translate(-16.01 -54.27)"/><path class="cls-20" d="M593.91,244.71l5.8-1.33a1.66,1.66,0,0,1,2,1.24l1.36,6a1.66,1.66,0,0,1-1.25,2L596,253.9a1.66,1.66,0,0,1-2-1.25l-1.36-6a1.66,1.66,0,0,1,1.25-2" transform="translate(-16.01 -54.27)"/><path class="cls-20" d="M605.06,242.16l5.81-1.33a1.66,1.66,0,0,1,2,1.24l1.36,6a1.66,1.66,0,0,1-1.24,2l-5.81,1.33a1.66,1.66,0,0,1-2-1.25l-1.36-6a1.66,1.66,0,0,1,1.25-2" transform="translate(-16.01 -54.27)"/><path class="cls-20" d="M616.21,239.61l5.81-1.33a1.66,1.66,0,0,1,2,1.24l1.36,6a1.66,1.66,0,0,1-1.25,2l-5.81,1.33a1.66,1.66,0,0,1-2-1.25l-1.36-6a1.66,1.66,0,0,1,1.25-2" transform="translate(-16.01 -54.27)"/><path class="cls-20" d="M499.14,277.71l5.81-1.33a1.66,1.66,0,0,1,2,1.24l1.36,6a1.66,1.66,0,0,1-1.24,2l-5.81,1.33a1.66,1.66,0,0,1-2-1.25l-1.36-6a1.66,1.66,0,0,1,1.25-2" transform="translate(-16.01 -54.27)"/><path class="cls-20" d="M510.29,275.16l5.81-1.33a1.66,1.66,0,0,1,2,1.24l1.36,6a1.66,1.66,0,0,1-1.25,2l-5.81,1.33a1.66,1.66,0,0,1-2-1.25l-1.36-6a1.66,1.66,0,0,1,1.25-2" transform="translate(-16.01 -54.27)"/><path class="cls-20" d="M521.44,272.61l5.81-1.33a1.66,1.66,0,0,1,2,1.24l1.36,6a1.66,1.66,0,0,1-1.25,2l-5.81,1.33a1.66,1.66,0,0,1-2-1.25l-1.36-6a1.66,1.66,0,0,1,1.25-2" transform="translate(-16.01 -54.27)"/><path class="cls-20" d="M532.58,270.07l5.81-1.33a1.66,1.66,0,0,1,2,1.24l1.36,6a1.66,1.66,0,0,1-1.25,2l-5.81,1.33a1.66,1.66,0,0,1-2-1.24l-1.36-6a1.66,1.66,0,0,1,1.25-2" transform="translate(-16.01 -54.27)"/><path class="cls-20" d="M543.73,267.52l5.81-1.33a1.66,1.66,0,0,1,2,1.24l1.36,6a1.66,1.66,0,0,1-1.25,2l-5.81,1.33a1.66,1.66,0,0,1-2-1.25l-1.36-6a1.66,1.66,0,0,1,1.25-2" transform="translate(-16.01 -54.27)"/><path class="cls-20" d="M554.88,265l5.81-1.33a1.66,1.66,0,0,1,2,1.24l1.36,6a1.66,1.66,0,0,1-1.24,2L557,274.16a1.66,1.66,0,0,1-2-1.25l-1.36-6a1.66,1.66,0,0,1,1.25-2" transform="translate(-16.01 -54.27)"/><path class="cls-20" d="M566,262.42l5.8-1.33a1.66,1.66,0,0,1,2,1.24l1.36,6a1.66,1.66,0,0,1-1.24,2l-5.81,1.33a1.66,1.66,0,0,1-2-1.25l-1.36-6a1.66,1.66,0,0,1,1.25-2" transform="translate(-16.01 -54.27)"/><path class="cls-20" d="M577.18,259.88l5.81-1.33a1.66,1.66,0,0,1,2,1.24l1.36,6a1.66,1.66,0,0,1-1.24,2l-5.81,1.33a1.66,1.66,0,0,1-2-1.25l-1.36-6a1.66,1.66,0,0,1,1.24-2" transform="translate(-16.01 -54.27)"/><path class="cls-20" d="M588.33,257.33l5.81-1.33a1.66,1.66,0,0,1,2,1.24l1.36,6a1.66,1.66,0,0,1-1.25,2l-5.8,1.33a1.66,1.66,0,0,1-2-1.25l-1.36-6a1.66,1.66,0,0,1,1.25-2" transform="translate(-16.01 -54.27)"/><path class="cls-20" d="M599.47,254.78l5.81-1.33a1.66,1.66,0,0,1,2,1.24l1.36,6a1.66,1.66,0,0,1-1.24,2L601.57,264a1.66,1.66,0,0,1-2-1.25l-1.36-6a1.66,1.66,0,0,1,1.25-2" transform="translate(-16.01 -54.27)"/><path class="cls-20" d="M610.62,252.24l5.81-1.33a1.66,1.66,0,0,1,2,1.24l1.36,6a1.66,1.66,0,0,1-1.25,2l-5.81,1.33a1.66,1.66,0,0,1-2-1.25l-1.36-6a1.66,1.66,0,0,1,1.25-2" transform="translate(-16.01 -54.27)"/><path class="cls-20" d="M507.44,287.15l5.81-1.33a1.66,1.66,0,0,1,2,1.25l1.36,6a1.66,1.66,0,0,1-1.24,2l-5.81,1.33a1.66,1.66,0,0,1-2-1.25l-1.36-6a1.66,1.66,0,0,1,1.25-2" transform="translate(-16.01 -54.27)"/><path class="cls-20" d="M518.59,284.61l5.81-1.33a1.66,1.66,0,0,1,2,1.25l1.36,6a1.66,1.66,0,0,1-1.25,2l-5.81,1.33a1.66,1.66,0,0,1-2-1.24l-1.36-6a1.66,1.66,0,0,1,1.25-2" transform="translate(-16.01 -54.27)"/><path class="cls-20" d="M529.74,282.06l5.8-1.33a1.66,1.66,0,0,1,2,1.25l1.36,6a1.66,1.66,0,0,1-1.25,2l-5.81,1.33a1.66,1.66,0,0,1-2-1.25l-1.36-6a1.66,1.66,0,0,1,1.25-2" transform="translate(-16.01 -54.27)"/><path class="cls-20" d="M540.88,279.51l5.81-1.33a1.66,1.66,0,0,1,2,1.25l1.36,6a1.66,1.66,0,0,1-1.25,2L543,288.71a1.66,1.66,0,0,1-2-1.25l-1.36-6a1.66,1.66,0,0,1,1.24-2" transform="translate(-16.01 -54.27)"/><path class="cls-20" d="M552,277l5.81-1.33a1.66,1.66,0,0,1,2,1.25l1.36,6a1.66,1.66,0,0,1-1.24,2l-5.81,1.33a1.66,1.66,0,0,1-2-1.25l-1.36-6a1.66,1.66,0,0,1,1.25-2" transform="translate(-16.01 -54.27)"/><path class="cls-20" d="M563.18,274.42l5.81-1.33a1.66,1.66,0,0,1,2,1.25l1.36,6a1.66,1.66,0,0,1-1.25,2l-5.8,1.33a1.66,1.66,0,0,1-2-1.25l-1.36-6a1.66,1.66,0,0,1,1.25-2" transform="translate(-16.01 -54.27)"/><path class="cls-20" d="M574.33,271.87l5.8-1.33a1.66,1.66,0,0,1,2,1.25l1.36,6a1.66,1.66,0,0,1-1.24,2l-5.81,1.33a1.66,1.66,0,0,1-2-1.24l-1.36-6a1.66,1.66,0,0,1,1.25-2" transform="translate(-16.01 -54.27)"/><path class="cls-20" d="M585.48,269.33l5.81-1.33a1.66,1.66,0,0,1,2,1.25l1.36,6a1.66,1.66,0,0,1-1.24,2l-5.81,1.33a1.66,1.66,0,0,1-2-1.25l-1.36-6a1.66,1.66,0,0,1,1.25-2" transform="translate(-16.01 -54.27)"/><path class="cls-20" d="M596.63,266.78l5.81-1.33a1.66,1.66,0,0,1,2,1.25l1.36,6a1.66,1.66,0,0,1-1.25,2l-5.8,1.33a1.66,1.66,0,0,1-2-1.25l-1.36-6a1.66,1.66,0,0,1,1.25-2" transform="translate(-16.01 -54.27)"/><path class="cls-20" d="M607.77,264.23l5.81-1.33a1.66,1.66,0,0,1,2,1.25l1.36,6a1.66,1.66,0,0,1-1.25,2l-5.81,1.33a1.66,1.66,0,0,1-2-1.25l-1.36-6a1.66,1.66,0,0,1,1.25-2" transform="translate(-16.01 -54.27)"/><path class="cls-20" d="M619,261.68l10.5-2.4a1.69,1.69,0,0,1,2,1.26l1.35,5.91a1.69,1.69,0,0,1-1.27,2l-10.5,2.4a1.69,1.69,0,0,1-2-1.27l-1.35-5.91a1.69,1.69,0,0,1,1.27-2" transform="translate(-16.01 -54.27)"/><path class="cls-20" d="M498.57,300.53l5.81-1.33a1.66,1.66,0,0,1,2,1.25l1.36,6a1.66,1.66,0,0,1-1.25,2l-5.81,1.33a1.66,1.66,0,0,1-2-1.24l-1.36-6a1.66,1.66,0,0,1,1.24-2" transform="translate(-16.01 -54.27)"/><path class="cls-20" d="M509.72,298l5.81-1.33a1.66,1.66,0,0,1,2,1.25l1.36,6a1.66,1.66,0,0,1-1.25,2l-5.81,1.33a1.66,1.66,0,0,1-2-1.24l-1.36-6a1.66,1.66,0,0,1,1.24-2" transform="translate(-16.01 -54.27)"/><path class="cls-20" d="M520.87,295.43l5.81-1.33a1.66,1.66,0,0,1,2,1.25l1.36,6a1.66,1.66,0,0,1-1.25,2L523,304.63a1.66,1.66,0,0,1-2-1.25l-1.36-6a1.66,1.66,0,0,1,1.24-2" transform="translate(-16.01 -54.27)"/><path class="cls-20" d="M532,292.89l5.81-1.33a1.66,1.66,0,0,1,2,1.25l1.36,6a1.66,1.66,0,0,1-1.25,2l-5.81,1.33a1.66,1.66,0,0,1-2-1.24l-1.36-6a1.66,1.66,0,0,1,1.25-2" transform="translate(-16.01 -54.27)"/><path class="cls-20" d="M543.17,290.34L549,289a1.66,1.66,0,0,1,2,1.25l1.36,6a1.66,1.66,0,0,1-1.25,2l-5.81,1.33a1.66,1.66,0,0,1-2-1.24l-1.36-6a1.66,1.66,0,0,1,1.25-2" transform="translate(-16.01 -54.27)"/><path class="cls-20" d="M554.31,287.79l5.81-1.33a1.66,1.66,0,0,1,2,1.25l1.36,6a1.66,1.66,0,0,1-1.25,2L556.41,297a1.66,1.66,0,0,1-2-1.24l-1.36-6a1.66,1.66,0,0,1,1.25-2" transform="translate(-16.01 -54.27)"/><path class="cls-20" d="M565.46,285.24l5.8-1.33a1.66,1.66,0,0,1,2,1.25l1.36,6a1.66,1.66,0,0,1-1.24,2l-5.81,1.33a1.66,1.66,0,0,1-2-1.24l-1.36-6a1.66,1.66,0,0,1,1.25-2" transform="translate(-16.01 -54.27)"/><path class="cls-20" d="M576.61,282.7l5.81-1.33a1.66,1.66,0,0,1,2,1.25l1.36,6a1.66,1.66,0,0,1-1.24,2l-5.81,1.33a1.66,1.66,0,0,1-2-1.24l-1.36-6a1.66,1.66,0,0,1,1.24-2" transform="translate(-16.01 -54.27)"/><path class="cls-20" d="M587.76,280.15l5.8-1.33a1.66,1.66,0,0,1,2,1.25l1.36,6a1.66,1.66,0,0,1-1.25,2l-5.8,1.33a1.66,1.66,0,0,1-2-1.24l-1.36-6a1.66,1.66,0,0,1,1.25-2" transform="translate(-16.01 -54.27)"/><path class="cls-20" d="M598.91,277.6l5.81-1.33a1.66,1.66,0,0,1,2,1.25l1.36,6a1.66,1.66,0,0,1-1.24,2L601,286.8a1.66,1.66,0,0,1-2-1.25l-1.36-6a1.66,1.66,0,0,1,1.24-2" transform="translate(-16.01 -54.27)"/><path class="cls-20" d="M610.08,275.05l10.5-2.4a1.69,1.69,0,0,1,2,1.27l1.35,5.91a1.69,1.69,0,0,1-1.27,2l-10.5,2.4a1.69,1.69,0,0,1-2-1.27l-1.35-5.91a1.69,1.69,0,0,1,1.27-2" transform="translate(-16.01 -54.27)"/><path class="cls-20" d="M626.5,271.3L632,270a1.58,1.58,0,0,1,1.88,1.18l1.4,6.12a1.58,1.58,0,0,1-1.18,1.88l-5.52,1.26a1.58,1.58,0,0,1-1.89-1.18l-1.4-6.12a1.58,1.58,0,0,1,1.18-1.89" transform="translate(-16.01 -54.27)"/><path class="cls-20" d="M543.23,308.14l57.93-13.24a1.65,1.65,0,0,1,2,1.24L609.5,324a1.65,1.65,0,0,1-1.24,2L550.33,339.2a1.65,1.65,0,0,1-2-1.24L542,310.11a1.65,1.65,0,0,1,1.24-2" transform="translate(-16.01 -54.27)"/><path class="cls-20" d="M549.53,341.57L578.35,335a0.34,0.34,0,0,1,.41.26l1.32,5.78a0.34,0.34,0,0,1-.26.41L551,348a0.34,0.34,0,0,1-.41-0.26L549.28,342a0.34,0.34,0,0,1,.26-0.41" transform="translate(-16.01 -54.27)"/><path class="cls-20" d="M581.2,334.34L610,327.76a0.34,0.34,0,0,1,.41.26l1.32,5.78a0.34,0.34,0,0,1-.26.41l-28.81,6.58a0.34,0.34,0,0,1-.41-0.26l-1.32-5.78a0.34,0.34,0,0,1,.26-0.41" transform="translate(-16.01 -54.27)"/><polygon class="cls-21" points="629.98 95.69 423.4 142.89 419.49 136.3 630.64 88.06 629.98 95.69"/><polygon class="cls-22" points="628.64 111.83 431.57 156.85 423.4 142.89 629.98 95.69 628.64 111.83"/><polygon class="cls-21" points="505.55 152.07 465.5 161.22 460.64 152.78 502.03 143.32 505.55 152.07"/><polygon class="cls-21" points="552.78 141.28 512.73 150.43 509.47 141.62 553.24 131.62 552.78 141.28"/><polygon class="cls-21" points="600.01 130.49 559.96 139.64 559.97 130.08 601.17 120.67 600.01 130.49"/><path class="cls-23" d="M488.45,182.22c-0.33-1.44-3.69-1.9-7.5-1s-6.64,2.75-6.31,4.19,3.69,1.9,7.5,1,6.64-2.75,6.31-4.19" transform="translate(-16.01 -54.27)"/><rect class="cls-23" x="591.96" y="154.69" width="17.26" height="2.5" transform="translate(-35.66 83.41) rotate(-12.87)"/><rect class="cls-23" x="571.72" y="159.31" width="17.26" height="2.5" transform="translate(-37.2 79.02) rotate(-12.87)"/><rect class="cls-23" x="551.47" y="163.94" width="17.26" height="2.5" transform="translate(-38.74 74.65) rotate(-12.87)"/><rect class="cls-23" x="531.23" y="168.56" width="17.26" height="2.5" transform="translate(-40.28 70.29) rotate(-12.87)"/><polygon class="cls-24" points="506.19 153.78 506.78 155.48 467.16 164.53 466.14 162.93 506.19 153.78"/><polygon class="cls-24" points="507.62 156.41 508.2 158.12 468.58 167.17 467.56 165.56 507.62 156.41"/><polygon class="cls-24" points="560.19 141.44 560.18 143.28 600.02 134.18 600.24 132.29 560.19 141.44"/><polygon class="cls-24" points="560.16 144.41 560.26 146.22 599.88 137.17 600.1 135.28 560.16 144.41"/><polygon class="cls-24" points="513.31 152.15 513.97 153.84 552.75 144.98 552.97 143.09 513.31 152.15"/><polygon class="cls-24" points="514.32 154.88 515 156.56 552.61 147.97 552.83 146.08 514.32 154.88"/><line class="cls-25" x1="697.07" y1="217.38" x2="697.07" y2="216.51"/><rect class="cls-26" x="7.3" y="98.43" width="102.27" height="7.22" transform="translate(-74.81 57) rotate(-64.7)"/><rect class="cls-27" x="41.96" y="83.7" width="102.27" height="69.45" transform="translate(-69.76 97.73) rotate(-64.71)"/><rect class="cls-28" x="85.3" y="96.12" width="15.59" height="44.61" transform="translate(-69.76 97.72) rotate(-64.7)"/><rect class="cls-28" x="101.82" y="65.58" width="11.41" height="44.61" transform="translate(-33.89 93.28) rotate(-64.7)"/><rect class="cls-28" x="83.73" y="125.65" width="2.39" height="18.69" transform="translate(-89.43 99.83) rotate(-64.7)"/><path class="cls-3" d="M298.75,220.2a15.34,15.34,0,0,1-17.84,12.33l-76.45-14a15.34,15.34,0,0,1-12.33-17.84l0.69-3.81a15.34,15.34,0,0,1,17.84-12.33l76.45,13.95a15.34,15.34,0,0,1,12.33,17.84Z" transform="translate(-16.01 -54.27)"/><path class="cls-29" d="M121.89,113.93c0.08,0.53.17,1.08,0.27,1.67l9.66,58.58,231.53,42.25L395,163.76Z" transform="translate(-16.01 -54.27)"/><path class="cls-30" d="M394.86,164l0.69-1.12c1.07-1.66.54-3.83-1.59-4.21l-268.79-49c-2.26-.41-3.74,1.6-3.24,4.57Z" transform="translate(-16.01 -54.27)"/><polygon class="cls-31" points="365.02 113.74 340.68 156.11 124.33 116.63 116.36 68.36 365.02 113.74"/><path class="cls-32" d="M131.79,174.16l1.32,8.14a9.06,9.06,0,0,0,6.81,6.95L350.08,227.6a9.28,9.28,0,0,0,8.93-4l4.3-7.15Z" transform="translate(-16.01 -54.27)"/><path class="cls-12" d="M317.54,286a11.76,11.76,0,0,1,13.7,9.41l5.14,27.72A11.75,11.75,0,0,1,327,336.81l-3.07.57-9.42-50.83Z" transform="translate(-16.01 -54.27)"/><path class="cls-23" d="M311.38,287.12l3.08-.57,9.42,50.83-3.08.57a11.75,11.75,0,0,1-13.69-9.41L302,300.81a11.75,11.75,0,0,1,9.41-13.69" transform="translate(-16.01 -54.27)"/><path class="cls-33" d="M320.59,298.1l0.46,2.48a3.93,3.93,0,0,1-3.13,4.57L316,295a3.92,3.92,0,0,1,4.56,3.14" transform="translate(-16.01 -54.27)"/><path class="cls-34" d="M316,295h0l1.89,10.19a3.92,3.92,0,0,1-4.57-3.14l-0.46-2.48A3.91,3.91,0,0,1,316,295" transform="translate(-16.01 -54.27)"/><rect class="cls-35" x="496.37" y="331.22" width="8.68" height="22.44" transform="translate(109.61 764.93) rotate(-86.17)"/><path class="cls-36" d="M598.64,425.53s-28.35,12.67-48.41,13.71S510,388.87,514,346.72c-14.73-1.12-25.27-1-25.27-1s-5.89,67.84,9.4,92.44,45.15,50.25,45.15,50.25,47.81,0.25,66.09-3.85-10.71-59-10.71-59" transform="translate(-16.01 -54.27)"/><path class="cls-37" d="M551,473s-29.86-25.65-45.15-50.25c-10.67-17.18-11-55.43-10.26-77-4.29-.1-6.82-0.07-6.82-0.07s-5.89,67.84,9.4,92.44,45.15,50.25,45.15,50.25,47.81,0.25,66.09-3.85c5.2-1.17,6.26-7.07,5.13-14.91C594.69,473.23,551,473,551,473" transform="translate(-16.01 -54.27)"/><rect class="cls-35" x="684.76" y="300.96" width="22.44" height="8.68" transform="translate(-79.76 271.24) rotate(-25.21)"/><path class="cls-36" d="M631.77,422.31s35.33-2.65,54.38-9,19.14-61.59,0-99.37c13.31-6.41,23.17-10.13,23.17-10.13s30.21,61,25,89.51-23.72,63.25-23.72,63.25-44.43,17.66-62.94,20.51-15.86-54.77-15.86-54.77" transform="translate(-16.01 -54.27)"/><path class="cls-37" d="M697.79,445s18.46-34.77,23.72-63.25c3.68-19.89-9.94-55.63-18.5-75.4,4-1.66,6.33-2.55,6.33-2.55s30.21,61,25,89.51-23.72,63.25-23.72,63.25-44.43,17.66-62.94,20.51c-5.27.81-8.41-4.3-10.21-12,19.73-3.89,60.38-20,60.38-20" transform="translate(-16.01 -54.27)"/><path class="cls-38" d="M699.81,299.17s-2.45-22-4.22-30.41-4.75-7-10.73-11.84-10.91-10-14.19-9.33l0.06,1.16s-2.39-2.93-5-2.17-0.46,3.34.7,4.9c-2.76-3.18-4.84-3.52-6.48-2.18s-0.31,4.5,1.61,7.09c-2.38-2.75-5-2.53-6.51-1.62s-2.19,4.06,2.06,7.67,13.53,15.82,13.53,15.82-11.81-10.17-12.57-11-5.29,1.75-.19,6.85,8.71,12.81,12.94,18.34,11.7,12.76,16,12.87l13-6.12" transform="translate(-16.01 -54.27)"/><path class="cls-38" d="M493.54,338s-5.73-21.37-7.16-29.86,1.86-8.27,5.68-14.93,6.5-13.32,9.81-13.86l0.37,1.1s1.16-3.6,3.82-3.83,1.65,2.95,1.14,4.82c1.41-4,3.22-5,5.23-4.4s1.93,4.08,1.09,7.19c1.21-3.43,3.73-4.18,5.47-3.88s3.52,3,.88,7.89S513,307.94,513,307.94s7.29-13.77,7.69-14.85,5.57-.3,2.68,6.31S520,314.5,518,321.19s-6.24,16.15-10.16,17.8l-14.34-1" transform="translate(-16.01 -54.27)"/><rect class="cls-35" x="136.15" y="318.24" width="8.68" height="22.44" transform="translate(-233.68 272.76) rotate(-66.52)"/><path class="cls-39" d="M209.83,431.84s-37,10.86-56.2,5.1-21-61-3-99.33c-13.5-6-23.46-9.43-23.46-9.43s-28.37,61.9-22.25,90.22,25.61,62.51,25.61,62.51,51.94,16.32,70.53,18.61,8.77-67.67,8.77-67.67" transform="translate(-16.01 -54.27)"/><path class="cls-40" d="M142.95,469s-19.5-34.2-25.61-62.51c-4.27-19.77,8.27-55.91,16.22-75.92-4-1.54-6.4-2.36-6.4-2.36s-28.37,61.9-22.25,90.22,25.61,62.51,25.61,62.51,51.94,16.32,70.53,18.61c5.29,0.65,8.27-4.55,9.85-12.32-19.84-3.3-68-18.22-68-18.22" transform="translate(-16.01 -54.27)"/><rect class="cls-35" x="324.79" y="354.08" width="22.44" height="8.68" transform="matrix(1, -0.1, 0.1, 1, -49.11, -20.08)"/><path class="cls-39" d="M245.51,435.9s25.16,19.56,45.24,20,38.75-51.56,33.45-93.57c14.69-1.56,25.23-1.75,25.23-1.75s7.93,67.63-6.61,92.68-43.62,51.59-43.62,51.59S251.41,506.53,233,503s12.49-67.09,12.49-67.09" transform="translate(-16.01 -54.27)"/><path class="cls-40" d="M291,489.67s29.08-26.53,43.62-51.59c10.15-17.49,9.35-55.74,7.94-77.23,4.29-.23,6.82-0.27,6.82-0.27s7.93,67.63-6.61,92.68-43.62,51.59-43.62,51.59S251.41,506.53,233,503c-5.23-1-6.47-6.87-5.57-14.75,19.89,3,63.6,1.43,63.6,1.43" transform="translate(-16.01 -54.27)"/><path class="cls-38" d="M340.73,353.6s5.08-21.53,6.25-30.06-2.11-8.21-6.12-14.76-6.9-13.12-10.22-13.56l-0.34,1.11s-1.26-3.56-3.93-3.71-1.56,3-1,4.85c-1.53-3.92-3.37-4.95-5.37-4.24s-1.81,4.13-.87,7.22c-1.32-3.39-3.86-4.07-5.59-3.71s-3.43,3.08-.64,7.92,7.42,19.45,7.42,19.45-7.7-13.55-8.13-14.61-5.57-.13-2.49,6.39,3.9,15,6,21.62,6.72,16,10.69,17.48l14.3-1.39" transform="translate(-16.01 -54.27)"/><path class="cls-38" d="M135.22,322.89s8.79-22,10.31-30.53,4.53-7.17,10.37-12.16,10.6-10.36,13.9-9.75l0,1.16s2.3-3,4.88-2.32,0.56,3.33-.55,4.92c2.66-3.26,4.73-3.67,6.41-2.38s0.45,4.49-1.4,7.14c2.3-2.82,4.92-2.68,6.46-1.81s2.31,4-1.83,7.73-13.05,16.22-13.05,16.22,11.5-10.52,12.24-11.4,5.34,1.59.4,6.84S175,309.62,171,315.27s-18.31,13.11-22.56,13.34l-13.18-5.73" transform="translate(-16.01 -54.27)"/><g id="phone"><path class="cls-12" d="M772.24,232.4h-33.5a4.1,4.1,0,0,0-4.1,4.1V310.4a4.1,4.1,0,0,0,4.1,4.1h33.5a4.1,4.1,0,0,0,4.1-4.1V236.5a4.1,4.1,0,0,0-4.1-4.1" transform="translate(-16.01 -54.27)"/><g class="cls-41"><rect class="cls-42" x="735.71" y="251.03" width="7.2" height="7.2"/><path class="cls-43" d="M751.72,308.89a3.6,3.6,0,1,1,3.6,3.6,3.6,3.6,0,0,1-3.6-3.6" transform="translate(-16.01 -54.27)"/></g><g class="cls-41"><rect class="cls-42" x="737.03" y="252.35" width="4.55" height="4.55"/><path class="cls-44" d="M753,308.89a2.27,2.27,0,1,1,2.27,2.27,2.27,2.27,0,0,1-2.27-2.27" transform="translate(-16.01 -54.27)"/></g><path class="cls-45" d="M760.19,239.39a0.44,0.44,0,0,1-.44.44h-9a0.44,0.44,0,1,1,0-.87h9a0.44,0.44,0,0,1,.44.44" transform="translate(-16.01 -54.27)"/><path class="cls-45" d="M754.07,236.58a1.25,1.25,0,1,1,1.25,1.25,1.25,1.25,0,0,1-1.25-1.25" transform="translate(-16.01 -54.27)"/><path class="cls-45" d="M747.91,239.43a0.57,0.57,0,1,1,.57.57,0.57,0.57,0,0,1-.57-0.57" transform="translate(-16.01 -54.27)"/><rect class="cls-45" x="721.47" y="188.61" width="35.81" height="60.48"/><rect class="cls-46" x="721.47" y="236.65" width="35.81" height="12.45"/><rect class="cls-46" x="721.47" y="188.61" width="35.81" height="3.28"/><rect class="cls-47" x="745.92" y="239.05" width="7.86" height="7.86" rx="1.26" ry="1.26"/><path class="cls-12" d="M767.71,294.88l-3.16,0v2.76a0.7,0.7,0,0,0-.68.21,0.88,0.88,0,0,0-.17,1.24,1,1,0,0,0,1.32,0,1.36,1.36,0,0,0,.42-1.05l0.07-3h1.67v2.61a0.78,0.78,0,0,0-.83.2,0.89,0.89,0,0,0-.23,1.24,0.93,0.93,0,0,0,1.59-.67v-3.56Z" transform="translate(-16.01 -54.27)"/><rect class="cls-48" x="735.22" y="238.83" width="7.86" height="7.86" rx="1.26" ry="1.26"/><path class="cls-12" d="M755.77,296.42a1.48,1.48,0,0,1-.35.82,1.64,1.64,0,0,1-.74.55l-0.5-.35-0.64.85s1.11,1,2.34-.47c1.44-1.75.25-2.71,0.25-2.71l-0.7,1Z" transform="translate(-16.01 -54.27)"/><circle class="cls-49" cx="739.22" cy="242.63" r="2.74"/><rect class="cls-50" x="724.74" y="238.83" width="7.64" height="7.64" rx="1.24" ry="1.24"/><rect class="cls-12" x="725.83" y="240.58" width="5.24" height="4.37" rx="0.2" ry="0.2"/><rect class="cls-42" x="725.83" y="240.58" width="5.24" height="4.37" rx="0.2" ry="0.2"/><path class="cls-12" d="M741.4,294.31c0.2,0,3.2,2.71,3.2,2.71l3.4-2.84" transform="translate(-16.01 -54.27)"/><path class="cls-51" d="M741.4,294.31c0.2,0,3.2,2.71,3.2,2.71l3.4-2.84" transform="translate(-16.01 -54.27)"/><rect class="cls-52" x="724.96" y="194.73" width="7.64" height="7.64" rx="1.23" ry="1.23"/><path class="cls-12" d="M741.74,252.77a2.89,2.89,0,1,1,2.89,2.89,2.89,2.89,0,0,1-2.89-2.89" transform="translate(-16.01 -54.27)"/><path class="cls-47" d="M744.4,252.77a0.24,0.24,0,1,1,.24.24,0.24,0.24,0,0,1-.24-0.24" transform="translate(-16.01 -54.27)"/><rect class="cls-44" x="728.45" y="195.82" width="0.44" height="1.09"/><polygon class="cls-44" points="727.96 197.01 727.76 197.12 727.26 196.25 727.45 196.13 727.96 197.01"/><rect class="cls-44" x="742.71" y="251.15" width="0.22" height="1.01" transform="translate(137.22 714.59) rotate(-59.97)"/><rect class="cls-44" x="725.62" y="198.44" width="1.53" height="0.22"/><polygon class="cls-44" points="727.13 199.16 727.24 199.36 726.37 199.86 726.26 199.67 727.13 199.16"/><rect class="cls-44" x="743.02" y="254.47" width="1.01" height="0.22" transform="matrix(0.5, -0.87, 0.87, 0.5, 136.2, 718)"/><rect class="cls-44" x="728.45" y="199.97" width="0.22" height="1.31"/><rect class="cls-44" x="745.54" y="254.13" width="0.22" height="1.01" transform="translate(-43.36 353.03) rotate(-30.03)"/><rect class="cls-44" x="746.34" y="253.38" width="0.22" height="1.01" transform="translate(137.14 718.88) rotate(-59.98)"/><rect class="cls-44" x="729.98" y="198.44" width="1.31" height="0.44"/><polygon class="cls-44" points="730.11 197.83 730 197.64 730.87 197.13 730.99 197.33 730.11 197.83"/><polygon class="cls-44" points="729.58 197.18 729.39 197.06 729.89 196.19 730.08 196.3 729.58 197.18"/><rect class="cls-47" x="744.44" y="252.13" width="2.13" height="0.34" transform="translate(-46.56 329.07) rotate(-28.28)"/><polygon class="cls-47" points="728.86 198.5 728.73 198.71 726.92 197.59 727.05 197.38 728.86 198.5"/><path class="cls-48" d="M748.62,275.81a1.24,1.24,0,0,1-1.34,1.13h-5.11a1.12,1.12,0,0,1-1.2-1.13V270.7a1.16,1.16,0,0,1,1.2-1.19h5.11a1.29,1.29,0,0,1,1.34,1.19v5.11Z" transform="translate(-16.01 -54.27)"/><path class="cls-53" d="M746.38,272.17c0,0.93-1.63,3.79-1.63,3.79S743,273.13,743,272.2a1.68,1.68,0,0,1,3.35,0" transform="translate(-16.01 -54.27)"/><path class="cls-12" d="M743.79,272.2a0.91,0.91,0,1,1,.93.9,0.92,0.92,0,0,1-.93-0.9" transform="translate(-16.01 -54.27)"/><path class="cls-48" d="M769.58,265.55a1.19,1.19,0,0,1-1.28,1.13h-5.11a1.17,1.17,0,0,1-1.25-1.13v-5.11a1.21,1.21,0,0,1,1.25-1.18h5.11a1.23,1.23,0,0,1,1.28,1.18v5.11Z" transform="translate(-16.01 -54.27)"/><path class="cls-12" d="M768.31,262.69a2.43,2.43,0,0,1-2.54,2.31,2.68,2.68,0,0,1-1.68-.58,2.22,2.22,0,0,1-.86-1.73,2.55,2.55,0,0,1,5.08,0" transform="translate(-16.01 -54.27)"/><path class="cls-12" d="M764.46,263.67s-0.52,1.53-1.24,1.65,2,0.06,2.43-1" transform="translate(-16.01 -54.27)"/><path class="cls-54" d="M736.68,194.73h5.17a1.23,1.23,0,0,1,1.23,1.23v5.17a1.24,1.24,0,0,1-1.24,1.24h-5.17a1.24,1.24,0,0,1-1.24-1.24V196A1.23,1.23,0,0,1,736.68,194.73Z"/><rect class="cls-55" x="736.75" y="196.47" width="5.24" height="4.15" rx="0.9" ry="0.9"/><path class="cls-56" d="M754.11,252.76a1.12,1.12,0,1,1,1.12,1.12,1.12,1.12,0,0,1-1.12-1.12" transform="translate(-16.01 -54.27)"/><path class="cls-44" d="M754.46,252.76a0.77,0.77,0,1,1,.77.77,0.77,0.77,0,0,1-.77-0.77" transform="translate(-16.01 -54.27)"/><rect class="cls-55" x="737.19" y="195.82" width="0.87" height="1.09"/><rect class="cls-47" x="724.96" y="205.21" width="7.42" height="7.42" rx="1.2" ry="1.2"/><path class="cls-47" d="M747.12,194.51h5a1.2,1.2,0,0,1,1.2,1.2v5a1.2,1.2,0,0,1-1.2,1.2h-5a1.21,1.21,0,0,1-1.21-1.21v-5A1.2,1.2,0,0,1,747.12,194.51Z"/><path class="cls-12" d="M746.45,261l-2.86,0v2.63a0.93,0.93,0,0,0-.8.2,0.85,0.85,0,0,0-.24,1.18,0.87,0.87,0,0,0,1.22,0,1,1,0,0,0,.38-0.85l0-2.73h1.58v2.18a0.93,0.93,0,0,0-1,1.37,0.89,0.89,0,0,0,1.23,0,1,1,0,0,0,.36-0.67Z" transform="translate(-16.01 -54.27)"/><path class="cls-12" d="M767.41,251.13l-2.86,0v2.63a0.93,0.93,0,0,0-.8.2,0.85,0.85,0,0,0-.24,1.18,0.87,0.87,0,0,0,1.22,0,1,1,0,0,0,.38-0.85l0-2.73h1.58v2.18a0.84,0.84,0,0,0-.79.19,0.85,0.85,0,0,0-.22,1.18,0.89,0.89,0,0,0,1.23,0,1,1,0,0,0,.36-0.67Z" transform="translate(-16.01 -54.27)"/><rect class="cls-50" x="735.44" y="205.21" width="7.42" height="7.42" rx="1.22" ry="1.22"/><path class="cls-57" d="M756.44,262.58a1.79,1.79,0,1,1-1.79-1.79,1.79,1.79,0,0,1,1.79,1.79" transform="translate(-16.01 -54.27)"/><path class="cls-12" d="M757.94,265.19a0.71,0.71,0,0,0,.28-0.51,0.75,0.75,0,0,0-.68-0.79h-0.2a0.52,0.52,0,0,0,0-.22,0.86,0.86,0,0,0-.2-0.41,0.87,0.87,0,0,0-.58-0.29,0.84,0.84,0,0,0-.3,0,0.88,0.88,0,0,0-.81-0.83,0.9,0.9,0,0,0-.95.81,0.87,0.87,0,0,0,0,.25l-0.18,0a0.93,0.93,0,0,0-1,.85,0.71,0.71,0,0,0,0,.14,1.61,1.61,0,0,0-.38.15,0.57,0.57,0,0,0-.17.86h5.14Z" transform="translate(-16.01 -54.27)"/><rect class="cls-52" x="735.44" y="215.47" width="7.42" height="7.42" rx="1.22" ry="1.22"/><rect class="cls-44" x="738.28" y="220.05" width="1.53" height="1.96" rx="0.42" ry="0.42"/><path class="cls-12" d="M757.19,272.61a2.08,2.08,0,1,0-3.15,1.78,1.08,1.08,0,1,0,2.14,0,2.07,2.07,0,0,0,1-1.78" transform="translate(-16.01 -54.27)"/></g></svg>