<svg id="Layer_1" data-name="Layer 1" xmlns="http://www.w3.org/2000/svg" viewBox="0 0 472.4 396.01"><defs><style>.cls-1{fill:#6dbe45;}.cls-2{fill:#2eaeb7;}.cls-3{fill:#ec441f;}.cls-4{fill:#28bcc4;}.cls-5{fill:#ffbad0;}.cls-6{fill:#f7bc48;}.cls-7{fill:#f5f5f5;}.cls-8{fill:#f26e02;}.cls-9{fill:#fff;}.cls-10{fill:#438ece;}.cls-11{fill:#268187;}.cls-12{fill:#4c9ea3;}.cls-13{fill:#248288;}.cls-14{fill:#248389;}.cls-15{fill:#25838a;}.cls-16{fill:#27848a;}.cls-17{fill:#29858b;}.cls-18{fill:#28858b;}.cls-19{fill:#2c878d;}.cls-20{fill:#2d888e;}.cls-21{fill:#27858b;}.cls-22{fill:#328d93;}.cls-23{fill:#42a4ab;}.cls-24{fill:#479da2;}.cls-25{fill:#3f86bc;}.cls-26{fill:#419499;}.cls-27{fill:#378f95;}.cls-28{fill:#2a868c;}.cls-29{fill:#449fa5;}.cls-30{fill:#338c91;}.cls-31{fill:#388f96;}.cls-32{fill:#399096;}.cls-33{fill:#40a4ab;}.cls-34{fill:#44a1a8;}.cls-35{fill:#358c91;}.cls-36{fill:#348a8d;}.cls-37{fill:#388e94;}.cls-38{fill:#459da3;}.cls-39{fill:#30888d;}.cls-40{fill:#398c91;}.cls-41{fill:#469ba1;}.cls-42{fill:#469ba0;}.cls-43{fill:#378e94;}.cls-44{fill:#388c92;}.cls-45{fill:#459ba0;}.cls-46{fill:#418cc4;}.cls-47{fill:#469ea5;}.cls-48{fill:#41a5ac;}.cls-49{fill:#348a90;}.cls-50{fill:#408f96;}.cls-51{fill:#42a3aa;}.cls-52{fill:#41a3ab;}.cls-53{fill:#3e959b;}.cls-54{fill:#3f9197;}.cls-55{fill:#31888d;}.cls-56{fill:#459fa5;}.cls-57{fill:#40a6af;}.cls-58{fill:#3aa9b1;}.cls-59{fill:#348a8f;}.cls-60{fill:#347cb2;}.cls-61{fill:#3b9095;}.cls-62{fill:#26848a;}.cls-63{fill:#41969b;}.cls-64{fill:#459fa6;}.cls-65{fill:#30898b;}.cls-66{fill:#409fa6;}.cls-67{fill:#4198a0;}.cls-68{fill:#44989d;}.cls-69{fill:#3d989f;}.cls-70{fill:#459ca4;}.cls-71{fill:#4a9fa4;}.cls-72{fill:#429299;}.cls-73{fill:#469da2;}.cls-74{fill:#3ba7af;}.cls-75{fill:#41a5ad;}.cls-76{fill:#40a5ac;}.cls-77{fill:#297b7d;}.cls-78{fill:#dce6e8;}.cls-79{fill:#257e83;}.cls-80{fill:#749982;}.cls-81{fill:#2c858b;}.cls-82{fill:#358a8a;}.cls-83{fill:#2f8b90;}.cls-84{fill:#3aa8b0;}.cls-85{fill:#358b8e;}.cls-86{fill:#41979c;}.cls-87{fill:#3c9096;}.cls-88{fill:#3d9398;}.cls-89{fill:#41a4ab;}.cls-90{fill:#479b9e;}.cls-91{fill:#3caaae;}.cls-92{fill:#429ca2;}.cls-93{fill:#29858c;}.cls-94{fill:#f6bb48;}.cls-95,.cls-96,.cls-97{fill:none;stroke-miterlimit:10;stroke-width:2px;stroke-dasharray:7;}.cls-95{stroke:#fff;}.cls-96{stroke:#1ea1af;}.cls-97{stroke:#2d9e9e;}</style></defs><title>international-exports</title><rect class="cls-1" x="413.41" y="327.31" width="58.99" height="52" rx="1.55" ry="1.55"/><rect class="cls-2" x="95.68" width="47" height="41.43" rx="1.24" ry="1.24"/><rect class="cls-3" x="430.4" y="348.2" width="26.4" height="21.24"/><rect class="cls-3" x="426.83" y="342.47" width="33.45" height="5.55"/><path class="cls-4" d="M496.54,356.95h-8.37c0.18-.15.35-0.3,0.52-0.47a7,7,0,0,0,2-3.55,3.67,3.67,0,0,0-.87-3.39,3.43,3.43,0,0,0-2.49-1,6.59,6.59,0,0,0-4.45,2.06,7.75,7.75,0,0,0-1.27,1.66,7.69,7.69,0,0,0-1.26-1.66,6.59,6.59,0,0,0-4.45-2.06,3.43,3.43,0,0,0-2.49,1c-1.63,1.64-1.15,4.68,1.1,6.93q0.25,0.25.52,0.47h-8.37a3.29,3.29,0,0,0-3.29,3.29v0.86a3.29,3.29,0,0,0,3.29,3.29h0.48V382.6a3.29,3.29,0,0,0,3.29,3.29h22.37a3.29,3.29,0,0,0,3.29-3.29V364.38h0.48a3.29,3.29,0,0,0,3.29-3.29v-0.86a3.29,3.29,0,0,0-3.29-3.29h0ZM484,351.76a5,5,0,0,1,3.33-1.59,1.91,1.91,0,0,1,1.37.5,2.14,2.14,0,0,1,.44,2,5.37,5.37,0,0,1-1.53,2.72,5,5,0,0,1-3.32,1.59,1.91,1.91,0,0,1-1.37-.5c-1-1-.47-3.12,1.1-4.69h0Zm-8.37,3.59c-1.57-1.57-2.07-3.72-1.1-4.69a1.91,1.91,0,0,1,1.37-.5,5,5,0,0,1,3.33,1.59,5.36,5.36,0,0,1,1.53,2.72,2.14,2.14,0,0,1-.44,2,1.91,1.91,0,0,1-1.37.5,5,5,0,0,1-3.33-1.59h0Zm2.63,29H470.4a1.71,1.71,0,0,1-1.7-1.7V364.38h9.53v19.92Zm0-21.51h-11.6a1.71,1.71,0,0,1-1.7-1.7v-0.86a1.7,1.7,0,0,1,1.7-1.7h11.6v4.26Zm5.12,21.51h-3.53V358.53h3.53v25.77Zm11.12-1.7a1.71,1.71,0,0,1-1.7,1.7h-7.83V364.38h9.53V382.6Zm3.77-21.51a1.7,1.7,0,0,1-1.7,1.7h-11.6v-4.26h11.6a1.7,1.7,0,0,1,1.7,1.7v0.86Zm0,0" transform="translate(-37.98 -15.52)"/><rect class="cls-5" x="441.84" y="343.01" width="3.53" height="25.77"/><ellipse class="cls-5" cx="477.29" cy="353.45" rx="2.64" ry="4.23" transform="translate(-147.88 427.08) rotate(-45.15)"/><ellipse class="cls-5" cx="485.57" cy="353.58" rx="4.23" ry="2.64" transform="translate(-149.08 407.25) rotate(-42.68)"/><rect class="cls-6" y="27.97" width="73.73" height="65" rx="1.94" ry="1.94"/><path class="cls-7" d="M62.24,77.56H48.78a1.64,1.64,0,1,0,0,3.29H62.24a1.64,1.64,0,0,0,0-3.29h0Zm0,0" transform="translate(-37.98 -15.52)"/><path class="cls-7" d="M63.88,71H53.71a1.64,1.64,0,1,0,0,3.29H63.88a1.64,1.64,0,0,0,0-3.29h0Zm0,0" transform="translate(-37.98 -15.52)"/><path class="cls-7" d="M65.53,64.4H58.64a1.64,1.64,0,0,0,0,3.29h6.88a1.64,1.64,0,1,0,0-3.29h0Zm0,0" transform="translate(-37.98 -15.52)"/><path class="cls-7" d="M84.79,79.22a6.4,6.4,0,1,0,6.4,6.41,6.41,6.41,0,0,0-6.4-6.41h0Zm0,9.52a3.12,3.12,0,1,1,3.12-3.12,3.12,3.12,0,0,1-3.12,3.12h0Zm0,0" transform="translate(-37.98 -15.52)"/><path class="cls-7" d="M91.54,72.64h-1a1.1,1.1,0,0,1-1-.73L85.41,60.68a1.1,1.1,0,0,0-1-.73H73a1.1,1.1,0,0,0-1.08.89L67.46,84a1.1,1.1,0,0,0,1.08,1.31h7.41a8.84,8.84,0,0,1,17.68,0h1.11a1.1,1.1,0,0,0,1.1-1.1V77a4.34,4.34,0,0,0-4.3-4.33h0Zm-6-3.42a0.64,0.64,0,0,1-.51.25H73.57a0.63,0.63,0,0,1-.63-0.74l1-5.72a0.64,0.64,0,0,1,.63-0.53h8.78a0.63,0.63,0,0,1,.61.46l1.68,5.72a0.64,0.64,0,0,1-.1.56h0Zm0,0" transform="translate(-37.98 -15.52)"/><rect class="cls-8" x="388.96" y="7.1" width="58.99" height="52" rx="1.55" ry="1.55"/><path class="cls-9" d="M469.38,34.69a18.3,18.3,0,1,1-12.94-5.36,18.18,18.18,0,0,1,12.94,5.36h0ZM467.76,59a15.9,15.9,0,0,0,4.37-8.12c-0.48.71-.94,1-1.23-0.61-0.29-2.59-2.67-.94-4.16-1.85-1.57,1.06-5.11-2.06-4.51,1.46,0.93,1.59,5-2.12,3,1.23-1.3,2.35-4.74,7.54-4.29,10.23,0.06,3.92-4,.82-5.41-0.48-0.94-2.61-.32-7.16-2.78-8.44-2.67-.12-5-0.36-6-3.35-0.62-2.14.66-5.32,3-5.81,3.35-2.11,4.55,2.47,7.7,2.55,1-1,3.64-1.35,3.86-2.49-2.06-.36,2.62-1.74-0.2-2.52-1.55.18-2.55,1.61-1.73,2.82-3,.7-3.11-4.36-6-2.76-0.07,2.52-4.73.82-1.61,0.31,1.07-.47-1.75-1.82-0.22-1.58,0.75,0,3.26-.92,2.58-1.52,1.4-.87,2.58,2.08,4-0.07,1-1.65-.42-2-1.66-1.12-0.7-.78,1.24-2.48,2.94-3.21a3.39,3.39,0,0,1,1.53-.34c0.86,1,2.45,1.17,2.53-.12a16.05,16.05,0,0,0-16.46,1.6c0.74,0.34,1.16.76,0.45,1.3-0.55,1.65-2.79,3.86-4.76,3.54a15.81,15.81,0,0,0-2,5.74c1.65,0.54,2,1.62,1.67,2a5.42,5.42,0,0,0-1.62,2.91A16,16,0,0,0,467.76,59h0Zm0,0" transform="translate(-37.98 -15.52)"/><path class="cls-7" d="M172.31,26.44l0-.07a0.89,0.89,0,0,0-.15-0.28v0l-3.45-4.24A0.93,0.93,0,1,0,167.24,23l1.66,2a17,17,0,0,0-4.88.15,14.87,14.87,0,0,0-12.34,17,0.93,0.93,0,0,0,.91.78h0.15a0.93,0.93,0,0,0,.77-1.06A13,13,0,0,1,164.35,27a15.19,15.19,0,0,1,4.78-.07l-2.49,1.5a0.93,0.93,0,0,0,1,1.59l4.3-2.58,0.06-.05,0,0,0,0a0.93,0.93,0,0,0,.2-0.25h0a0.92,0.92,0,0,0,.09-0.3,0.54,0.54,0,0,0,0-.09s0-.06,0-0.1a1.26,1.26,0,0,0,0-.16h0Zm0,0" transform="translate(-37.98 -15.52)"/><path class="cls-7" d="M169.73,33.35a0.93,0.93,0,0,0-.93.93V47.87a0.93,0.93,0,0,1-.93.93H145.94a0.93,0.93,0,0,1-.93-0.93v-22a0.93,0.93,0,0,1,.93-0.93h11a0.93,0.93,0,0,0,0-1.86h-11a2.79,2.79,0,0,0-2.78,2.79v22a2.79,2.79,0,0,0,2.78,2.79h21.93a2.79,2.79,0,0,0,2.78-2.78V34.28a0.93,0.93,0,0,0-.93-0.93h0Zm0,0" transform="translate(-37.98 -15.52)"/><circle class="cls-10" cx="237.43" cy="214.99" r="181.02"/><path class="cls-10" d="M219,59.73c12.75-3.05,25.44-6.23,38.6-7.37C294,49.18,328.07,56.44,360,73.82c4.74,2.57,9.17,5.71,13.74,8.59,0.65,1.25,2,1.48,3.07,2.13l1,0.91c-4,3.36-3.87,2.81-8.44-.55-2.07-1.52-5.79-1.69-8.82-2.1A62.92,62.92,0,0,0,335.94,84a7.26,7.26,0,0,1-4.41.22c-7.74-2.87-16-2.64-24-4.24-6.43-1.3-12.88.62-19,2.71-4,1.36-9,1.27-10.32,7-0.38,1.65-2.57,1.86-4.34,1.51a9.28,9.28,0,0,0-5.91.6,26.38,26.38,0,0,0,2.73.81,2.64,2.64,0,0,1,1.5,1.46c0.2,2.68-1.76,3.25-3.73,3.77-2.87.76-5.86,1.05-8.69,2-5.63,1.93-5.87,2.57-2.9,7.82,0.9,0.66,1.92,1.21,2.19,2.43a1.76,1.76,0,0,1-.6,1.18c-2.19,1.72-5,2.11-7.24,3.24a58.5,58.5,0,0,0,8.35-3.53,3.76,3.76,0,0,1,1.37-.13c1.76,0.17,4.43,3.17,4.63-1.51a11,11,0,0,1,7.68-4.47c2.14,1.23,4.15.12,6.2-.37,0.8-.23,1.84,0,2.4-0.48,5.41-4.27,10.69-.71,15.94.3,3.16,0.61,4.45,3.32,4.68,6.29,0.2,2.66.16,5.1,2.7,7,2,1.47.26,3.26-.55,4.82-0.58,1-.12,2,0.28,3,0.33,3-3.13,5.35-1.63,8.61-2.47,3.19-1.68,6.94-1.82,10.54-2.31,4.24-6,7.51-8,12-3.3,7.18-2.61,14.05,2.61,20.06,1.14,1.31,2.2,2.83,1.91,4.47-0.88,5,2.36,9.09,2.93,13.84,0.33,2.73,2.79,5.66,3.68,8.79q0.2,0.41.42,0.8c0.13-.17-0.06-0.26-0.11-0.38a18.31,18.31,0,0,1-1-2c-0.23-4.56-2.73-8.4-4.17-12.57-0.75-2.15-.7-3.86.53-5.59a2.52,2.52,0,0,1,3.12-.88c2,0.75,2.52,2.52,2.74,4.4,0.66,5.7,4.14,10.07,7.07,14.65,2.45,3.82,5,7.4,4.53,12.32-0.27,2.64,1.51,4.36,3.66,5.48,6,3.09,11.35,7.83,18.86,6.51a3.66,3.66,0,0,1,3.24,1c3.36,3.77,7.87,5.36,12.41,7,2.82,1,4.46,3.45,5.6,6.09,1.69,3.9,5,6,8.31,8.23,2.11,1.46,3.31.51,4.61-1,1.72-1.25,3.34-1.22,4.85.34,4.66,8.34,4.25,14.32-1.64,21.5-2.74,3.35-5.14,6.68-2.81,11.26a1.19,1.19,0,0,1,.16,1c-3.84,5.33.31,8.79,2.83,12.74a31.57,31.57,0,0,1,3.56,9.29c0,2.13-1.6,2.25-3,2.21-3.26-.09-6.4.7-9.6,1.09-10.18-.89-20.43.3-30.61-1-2.5-.33-5-1.17-7.78-0.45-2.15.57-3.56-1.26-4.24-3.34,0.13-4.27,1.59-8.19,3-12-1.89.87-3.31,3.52-6.2,2.53-3.15-4.64-10.9-5.38-17.19-1.73s-12.38,8.05-19.11,11.19c-2.12,1-4.35,1.49-6.43,2.44-1.68-.28-1.56,1.16-2,2.12a43.2,43.2,0,0,1-9.5,6.29c-9.77,4.59-10.84,11.16-3.54,19.28,8.53,9.49,16,19.85,24.6,29.32,4.93,5.45,10.06,8.71,17.39,4.7,0.52-.28,1.29.16,1.94,0.23,2.16-.55,1.56-2.57,2.07-4,0.66-1.79.83-3.83,2.94-4.71,17.71,0.42,35.47.25,52.94-2.43a141.47,141.47,0,0,0,27.27-6.84c2.9-1.06,6-3.09,9.29-.74a6.59,6.59,0,0,1-.79,6.35c-12.76,14-27.9,24.84-44.38,34-1.87,1-3.71,2.12-5.57,3.18a27.36,27.36,0,0,1-16.09,7c-9.89,3-19.78,6.09-29.93,8.19-6.15,4.12-13.37,3.48-20.18,4.13a118.2,118.2,0,0,1-28.74-.44c-1.81-.27-3.62-0.49-5.06-1.79-14.75-2.45-29.33-5.47-43.34-10.94a182.67,182.67,0,0,1-62.22-40.45c-1.06-1-2.19-2-3.28-3-4.07-1.59-6.15-5.35-8.83-8.38a150.93,150.93,0,0,1-11.61-15.55c-21-31.66-31.14-66.44-30-104.45a4.56,4.56,0,0,1,.84-2.13c0.66-.29.84-0.87,0.37-1.27a2.6,2.6,0,0,1-1-2.22c0.67-6.27.59-12.64,2.35-18.77a2.1,2.1,0,0,1,1.43-1.29c4.5,1.32,4.87,6.18,7.69,8.94-0.11,4,3.16,6.72,3.4,11.11,2-2.19,2.13-5.5,5.52-4.63,2.29,2.91,2.32,6.84,4.41,9.84,0.22,0.69.29,1.41,0.5,2.1-0.89,7,1.47,13,5.15,19,1.79,2.87,2.17,6.62,5.56,8.66,0.13-4.41-1.71-7.31-5-10.22-3.58-3.18-7.15-7.11-5.22-13,0.57-1.72-.37-3.59-0.48-5.41a2.16,2.16,0,0,1,1.41-2.28c6.62,1.45,9.76,7.29,14.86,11.14,0.73-.33,1.4-1.52,2.35-2.4,4.64-4.26,4.88-8.43.78-13.23-1.71-2-3.81-3.67-5.41-5.79a10.18,10.18,0,0,1-1.76-6.58,6.41,6.41,0,0,1,3.35-3.85c2.44-1.09,4.85-1.48,7.09.45,1.16,1.9.42,3.92,0.2,6.18,1.46-2-.25-4.05.57-5.86,1.29-2,3.63-2.06,5.53-2.92,2.29-.88,4.68-1.54,6.94-2.51a5.25,5.25,0,0,0,2.3-2c1.62-1.81,2.82-4,4.74-5.53,2.42,0.23,3.13,2,3.68,4a4,4,0,0,1-.22,2c-0.23.6-.77,1.19-0.16,1.85,2-.75.82-2.69,1.51-3.9a21.46,21.46,0,0,1,1.86-4c3.15-6.17,1.86-8.61-5-9.43a2.9,2.9,0,0,1-2.53-2.12c-0.67-3.53-3.17-5.85-5.5-8.15-2.86-2.82-3.85-5.44.13-9-3.56.07-6.32-.34-8.66-2.06-2-1.44-2.58-3.12-.54-4.93,2.56-2.28,4.79-6.37,8.89-2,8.32-.16,11.76,6,15.35,11.92,0.44,0.73.87,1.61,1.84,1.15,1.2-.57.86-1.66,0.41-2.58a12.32,12.32,0,0,0-2.51-3.09c-4.77-4.9-5.08-6.94-2-13,0.89-1.73,2.13-3.05,4.22-3,3,0.06,4-1.92,4.67-4.3,1.27-4.46,1.58-8.83-1-13-0.87-1.4-1.78-2.87-1.12-4.67,2.27-1.53,3.67.1,5,1.51s2.49,3,3.77,4.49a50.19,50.19,0,0,0-7.58-8.27c-0.48-.45-0.54-1.22-1.2-1.51a1.73,1.73,0,0,1-.64,1.75c-4.12-1.26-8.55-.94-12.62-2.33-4.67-1.6-5.16-2.85-3.41-7.37,0.6-1.55,1.26-3.08,1.78-4.66,0.83-2.52,2.72-4.16,5.2-3.89,5.45,0.58,11-1.06,16.64.83,0.94-1.85,0-4.39,2.11-5.71s4.11-.93,6.21-0.15a2.15,2.15,0,0,0,2.2-.59c2.89-2.16,5.19-1.13,5.76,2.58a14.23,14.23,0,0,1-1.21,7.31,5,5,0,0,0,1.12,5.93c3,3.06,5.92,6.28,10.14,8.68,0-5.38-.13-10.18-5.45-13a4.88,4.88,0,0,1-2.48-5.12c0.35-2.23,2.61-2.67,4.3-2.67,5.45,0,10-2.35,14.36-5.3,0.27,0.09,0,.23-0.36,0-2.13-1.12-6.19-.82-5.19-4.57,0.86-3.24,4.17-3.26,7.16-2.8,2.3,0.36,4.41,1.49,6.85,1.67-0.36-2-2.11-1.91-3.29-2.09-9.89-1.46-19.31-5.14-29.28-6.14-3.17-.32-6.22-1.29-9.58.57-2.32,1.29-5.08-.5-7.11-2.42-0.19-1.81,1-2.78,2.32-3.51C193,69.27,204.93,62,219,59.73Z" transform="translate(-37.98 -15.52)"/><path class="cls-11" d="M416.63,344l-1.85,3.47-13,12.43c-2.37-3.34-1.19-7.05-.83-10.68C405.58,345.36,410.33,341.93,416.63,344Z" transform="translate(-37.98 -15.52)"/><path class="cls-12" d="M403.64,343.64c0.46,2.95-.87,6.09,1,8.89a3.21,3.21,0,0,1-1.94,1.92q0-3.42,0-6.84a3.18,3.18,0,0,1-1-1.88,3,3,0,0,1,.61-2A1.07,1.07,0,0,1,403.64,343.64Z" transform="translate(-37.98 -15.52)"/><path class="cls-13" d="M383.52,84.68l15.23,13.17a1.29,1.29,0,0,1,.14,1.8c-3.83,2.77-4.81,6.85-5.31,11.17a3.78,3.78,0,0,0,.48,3.32c0.71,1.45,2,3,.54,4.57s-3.35,1.07-5.28.3c-0.71,1.15-.19,2.46-0.45,3.66,4.91-2,6-1.51,6.24,3.28,2.88-4.34,6.66-5.8,11.53-3.94,2.85,4.4,5.35,1.47,7.9-.39a5,5,0,0,1,5.17,1c2.77-1.39,5.22-.22,7.91.64-1.17,2.39-3.32.32-4.62,1.78,3.12,5.54,7.26,10.58,9.9,16.49,0.91,3.28-2,3.51-3.73,4.23-4.14,1.7-8.75,2.56-10.37,7.66a2.43,2.43,0,0,1-2,1.38c-5.8.87-8.86,5.57-12.8,9-0.77.67-1.66,1.38-1.68,2.39-0.12,5-3.93,7-7.47,9.18-1.84,1.14-3.58,2.43-5.41,3.58-4.33,2.71-6.1,6.38-4.9,11.44a13.35,13.35,0,0,1,.33,5c-0.29,2-.68,4.22-3.11,4.54-2.19.29-3.07-1.63-3.88-3.3a11.8,11.8,0,0,1-1-3.35c-0.31-2,.54-4.61-2.33-5.46-3.32-1-7-2.78-10-.34-2.77,2.21-5.29,2.09-8.35,1.48A11.19,11.19,0,0,0,343,196.74c-0.6,1.92-1.45,3.72-2.15,5.59a13.15,13.15,0,0,0-.21,9.75c1,2.44,1.61,5.43,5,5.45s6.81-.26,8.37-4.07c1.32-3.21,3.79-4.54,7.1-4.38q5.4,0.24,3.32,5.26c-1,2.3-2.28,4.45-3.18,6.78-1,2.53-.89,4.32,2.59,3.9a9.86,9.86,0,0,1,2.49.06c4.34,0.58,5.74,2.39,5.19,6.76-0.17,1.32-.52,2.61-0.72,3.93-0.8,5.29.56,7.39,5.93,9.16,0.69,0.36,1.27.78,0.93,1.7-1.88,3.94-3.29,4.22-8,.14-2.69-2.34-6.12-4.1-7-8.39-0.55-2.6-2.88-4.6-6-5.36-4-1-8-2-10.37-6.15-0.91-1.6-2.91-1.44-4.58-1.23-9.18,1.14-15.21-5-21.91-9.5a2.39,2.39,0,0,1-1-2.67c1.89-5-1.29-8.37-3.6-12.2-3.21-5.34-7.89-10.09-7.62-17.06,0.05-1.46-1.1-2.94-2.52-2.27-1.92.9-2.44,2.8-1.5,5,1.89,4.39,4.34,8.62,4.18,13.64,0.65,1.16.74,2-1,2-2.06-2.78-1.39-7.31-5.58-8.72,3.63-4.87-3.16-8.52-1.53-13.29,0.65-1.89-.19-3.81-1.77-5.42-1.39-1.41-4.15-1.21-4.22-4.3-0.11-4.73-1.94-9.8,0-14.11,2.41-5.31,5.33-10.66,10.27-14.35,2.61-.28,3,3.74,5.86,3,1.19-.58,3.69-0.39,1.6-2.83a1.5,1.5,0,0,1-.09-0.5c1.18-7.14,1.18-7.14-5.42-10.22-1.65-1.47-2.68-2.83-.51-4.88,0.73-.69,2.33-1.63,1.41-3.29-0.57-.94.07-2.29-1-3-0.11-1.59,6.13-3.8-.53-5-0.65-.12-1.52-3.55-1.12-5.87,0.56-3.29-.84-5.64-4.5-6.27-2.7-.46-5.53-0.52-7.91-2.26a2,2,0,0,0-2.72.24c-2,2.35-4.64,2.19-7.26,2.32-0.79-1.43.64-1.87,1.43-3a13.34,13.34,0,0,1-6.43,2.86c-3,.53-5,3.21-7.89,4-1.2,2-3.29,1.61-5.11,1.93q-0.46.06-.92,0.08c-1.07.37-1.28-.14-1.07-1.07l0,0c1-2.3-1.62-1-2-1.92-1-.36-3.29.09-3-0.57,1.19-2.47-4-5.43,1-7.63a63.21,63.21,0,0,1,12.79-3.73c1.65-.34,3.33-0.29,4.24-2,0.47-1.18.14-1.57-1.07-1.07-2.1-.7-6.44,1.34-6-1.45,0.46-3,5.51-3.31,8.19-2.63,4,1,6,1.36,4.6-3.64-0.46-1.64.63-2.05,1.87-2.25,7.84-1.23,15.07-4.8,23.16-5.43,3.87-.3,7.13.86,10.62,1.45,6.31,1.07,12.71,1.15,19,3.18,3.59,1.15,8.26-.94,12.42-1.71,9-1.66,17.83.12,26.33,2.64,5.11,1.52,4.87,2.3,7,1.67Z" transform="translate(-37.98 -15.52)"/><path class="cls-10" d="M376.85,84.54c-1.58.09-3,0-3.07-2.13A4.73,4.73,0,0,1,376.85,84.54Z" transform="translate(-37.98 -15.52)"/><path class="cls-13" d="M107.73,162.65a23,23,0,0,0,3.06-7,224.27,224.27,0,0,1,27.94-43c8.91-9.34,18.12-18.34,28.56-26a68.26,68.26,0,0,1,11.21-7.17c1.28,0.31,2.58.95,3.82,0.84,1-.09,3.87,4.25,3.31-1.07-0.06-.61,1.06,0,1.64,0A128.4,128.4,0,0,1,217.48,85c3.48,1.05,7.24.66,10.68,2.19,1.65,0.74,2.5,1.3,2,3.17-0.62,2.2-2.09,1.06-3.2.79-1.93-.48-3.77-1.35-5.71-1.77-2.8-.61-5.54-0.64-7.1,2.52L222.61,96c-4,.75-7.27,1.16-8.58,4.75-0.71,2-2.23,1-3.36.62-2.89-1-5.57.26-7.94,1.25-2.58,1.08-.35,4.1.39,4.38,8.66,3.27,6.06,10.83,7.48,17.9a74,74,0,0,1-14.83-12.86c-1.43-1.57-1-3.16-.1-5,2.63-5.57,2.36-7.36-1.21-11.21-0.49,3.31-.79,6.31-5.11,2.75-2.72-2.24-6.46.1-5.47,3.19,1.39,4.3-1.88,3.53-3.2,2.91-5.15-2.46-10.38.27-15.59-.77-3.54-.7-3.3,3.46-4.35,5.68-0.87,1.87-2.43,5.15-1.85,5.65,2.15,1.84,4.84,3.41,8.12,2.72,3.06-.64,5.37,1.1,7.66,2.77a1.81,1.81,0,0,1,1,1.9c0.52,4.12,4.7,6.76,4.15,11.52a52.53,52.53,0,0,1-2,9.68c-0.66,2.12-1.93,3.16-4.06,2.64-3.88-1-3.4,2-4.74,4.16-3.57,5.86,1.3,7.7,4,10.77,1.38,1.59,3.38,3.28,2.09,5.58-0.61,1.09-2.43,1.88-3.81,2.07-2.17.31-1.1-1.89-1.71-2.84-1.48-2.32-1.22-6.16-5.38-6.23-0.88,0-1.23-1-1.43-1.82-0.88-3.79-3.31-4.25-6.33-2.63-1.56.83-2.33,1-2.71-1C153,150.71,151,152.12,150,154s-4.76,2.46-3.33,4.37c1.19,1.59,3.8,3.66,6.9,2.45,1.47-.57,2.84.56,4.63,1.17-4.39,2.89-6,5.69-.76,9.26,3.23,2.19,4.28,6.29,6.37,9.49-1.53,3.36-1.2,7.06-1.95,10.57,0.29,3.29-2.61,4.43-4.29,6.41-2.06,1.73-5.35.44-7.11,2.91a8.88,8.88,0,0,0-1.81,1.91l-5.92,2q-0.53.89-1.08,0c-2.37-1.14-4.74-.79-7.1,0a7.4,7.4,0,0,0-6.27.47c-5.15,2.93-9.83,1.87-14.51-1a29.86,29.86,0,0,0-5.16-2.3c2.3,2.1,4.08,3.14,5.52,4.53,2.56,2.48,2.27,4-1,5.59-3.88,1.94-6.21,1.33-8.61-2.26-3.4-2.2-4.36-6.27-7-9.08,1.12-11.38,4.73-22.13,8.44-32.85C106.62,166.08,107.16,164.36,107.73,162.65Z" transform="translate(-37.98 -15.52)"/><path class="cls-13" d="M222.29,291.25c0.9,7.81,4.41,13.77,6.05,20.42,1.16,4.68,5.36,9.46,8.34,14.09,3.57,5.54,2,10.42-.36,15.33a34,34,0,0,1-7.78,10.26,107.1,107.1,0,0,0-9,9.91c-2.71,3.26-7.47,4.19-11.86,4.19a17.82,17.82,0,0,1-3.75-.16c-2.84-.69-7.46.62-6.06-5.67,1-4.62-2.89-7-6.73-4.87-2-7.14-7.11-9.6-14.19-7.26-8.64,2.85-17.39,5.37-26.12,7.95a4.37,4.37,0,0,1-4.65-.94c-2-2,.92-2.28,1.26-3.48a20.24,20.24,0,0,0,1.29-6.3c-0.14-5.44-.54-10.87-0.09-16.35,0.39-4.78,3.62-9,9.38-10.66,2.69-.8,5.4-1.55,8.08-2.37,1.63-.5,3.54-1.27,4-2.78,1.52-5.13,7.23-6.1,9.69-10.34,1.56-2.69,4.16-3.68,7.13-1.13,1.72,1.48,2.85,1.15,4-1.29,2.68-5.66,10-7.8,15.43-5,1.83,0.92.81,1.91,0.06,2.71-3.54,3.8-1.88,6,1.94,8.34,6.82,4.25,9.38,3.19,10.38-4.95C219.18,297,219.61,295.73,222.29,291.25Z" transform="translate(-37.98 -15.52)"/><path class="cls-13" d="M447.53,278.39c-0.27.1-.54,0.18-0.82,0.26-5.36,5.36-11.46,9.9-17.17,14.83-4.76,4.11-11.07,6.46-16.84,9.29-6.4,3.14-13.87,2.73-20.34,6-2.7,1.36-6.35-.12-9.09,2a2.38,2.38,0,0,1-1.36.15c-1.06-.45-0.63-1.64-1.16-2.35a21.4,21.4,0,0,1-2.17-4.39c-0.93-3.31-2.05-6.75-5.23-8.76a3.94,3.94,0,0,1-1.8-4.33c2.49-6.38-1-14.31,5.77-19.69,5.39-4.26,4.19-10.18,2-15.85a19.74,19.74,0,0,1-.65-2.88c-0.38-.89.16-1.28,0.85-1.59,2-.1,3.89-0.29,4.92-2.44,1.78-3.72,5.09-4.77,8.88-4.9,1.09,0.07,2,.8,3.16.67,2.89-2.26,5.51-2.06,8.4.28a8.66,8.66,0,0,0,7.56,1.66c4.44-1.32,7.33.77,10.28,3.27a84.09,84.09,0,0,1,6.43,6.21,10.56,10.56,0,0,0,6,3.33c9.4,1.67,11.54,3.7,13.48,12.43Z" transform="translate(-37.98 -15.52)"/><path class="cls-14" d="M131.84,207.56a18.19,18.19,0,0,0,5.32,9.14c7.52,7.13,7.48,11.15.36,18.25-1,1-2.16,2-3.27,3-3-6.09-8.6-9.39-13.6-13.26-1.67-5.57,1.22-14.19,5.64-16.5C128,207.31,129.8,206.17,131.84,207.56Z" transform="translate(-37.98 -15.52)"/><path class="cls-14" d="M158.19,272.22a14,14,0,0,1-13.66-10.52c-0.63-2.5-.82-3.39,2.64-4.57,5.47-1.86,9.22-7.06,13.13-11.41,1.29-1.44,1.9-2.95,3.56-.82,1,1.31,4.87,1.46,2,4.61-1.7,1.86-1.63,4.13-1.14,6.54,0.3,1.45,2.87,2.23,2,2.94-4.08,3.29-3.75,8.84-6.93,12.47A4.21,4.21,0,0,1,158.19,272.22Z" transform="translate(-37.98 -15.52)"/><path class="cls-14" d="M203.65,268.67c1.71,2.4,3.4,2.66,5.05-.06,1.48-1.17,2.69-3,5-2.06,1.52,0.66,3,1.69,4.56,1.92,6.64,1,11,5.59,15.91,9.43,0.52,0.41,1.08.83,0.56,1.61-1.89,2.81,1.21,4,1.93,6,0.51,1.38,3.8,1.81,2,3.64-1.49,1.5-3.35-.26-4.62-1.62-0.91-1-1.6-2.15-2.57-3-2.19-2-4.59-3.1-6.69,0-1.82,2.71-4.3,2.94-6.31,1.07s-4-1.86-6.41-1.26c2.64-6.67,1.87-7.69-4.71-10.53-2.31-1-6.28,0-6.73-4.2C201.52,268.86,202.3,267.83,203.65,268.67Z" transform="translate(-37.98 -15.52)"/><path class="cls-10" d="M305.7,362.61a13.26,13.26,0,0,1,3.12,4.77c-2.86.51-4.8,3.21-8.44,2.46-2.84-.59-5.65-1-7.66-2.94a174,174,0,0,1-17.33-20.19,157.7,157.7,0,0,0-11.58-13.42c-7.49-8-6.65-15,2.79-20.5,3.67-2.12,7.42-4.12,11.13-6.17,1-.8,1.76-0.46,2.38.51,0,4.09-4.1,4.19-6.23,6.16-2.71,2.51-7,3-8.76,6.81-2.61,3.56-1,6.79,1.2,9.57,8.38,10.56,17.17,20.79,26,30.94C296.75,365.64,301.19,366,305.7,362.61Z" transform="translate(-37.98 -15.52)"/><path class="cls-10" d="M313.78,358.61l0.3-2c6.14-1.87,12.43-.68,18.64-0.87,11.89-.37,23.83-0.93,35.49-2.91A179.43,179.43,0,0,0,397,345.35c1.86-.65,3.95-2.42,5.72.27q0,1,0,2c-10.35,2.93-20.63,6-31.2,8.23-16.89,3.62-33.89,3.19-50.9,3.75C318.28,359.66,315.9,360,313.78,358.61Z" transform="translate(-37.98 -15.52)"/><path class="cls-14" d="M137.74,267.89a51.59,51.59,0,0,0-1.84,5c-0.38,1.53.21,3.54-2,4-1.86.41-2.44-1.43-3.59-2.26-4.69-3.37-6.09-9-9-13.57a69.43,69.43,0,0,0-8.79-11.2c-0.67-.69-1.56-1.32-1.17-2.79,2.68,0.42,5.24.43,7.08,3.35a19.2,19.2,0,0,0,5.81,5.3c3.16,2.08,6.38,3.55,7.19,8.1A5,5,0,0,0,137.74,267.89Z" transform="translate(-37.98 -15.52)"/><path class="cls-10" d="M322.7,292.58a4.43,4.43,0,0,1-3,1.85c-6.47-4.94-12-1-17.34,2.16-5.69,3.4-11.5,6.62-16.93,10.45-1.39,1-2.84,2.5-4.91,1.37a21.24,21.24,0,0,1-.8-3.81c0.11-1,.18-2.17,1.41-2.28,4.63-.45,8.16-3.14,12.1-5.23,8.16-4.34,15.26-11.64,26.12-9.23C322.88,288.61,323.36,289.71,322.7,292.58Z" transform="translate(-37.98 -15.52)"/><path class="cls-15" d="M194.68,159.56a7.6,7.6,0,0,0-1-4.93,3.6,3.6,0,0,1,0-4c6.4,3.18,4.61,10,6.75,15.14a1.57,1.57,0,0,1-.58,1.09c-3.69-.75-5.41,5.41-9.93,2.68-1-.63-2.1,3-3.57,3.2-3.13,0,2.29-4.76-2.7-3.15-1.85.09-1.64-.86-1-2l0-.09C188.09,167,191,162.68,194.68,159.56Z" transform="translate(-37.98 -15.52)"/><path class="cls-16" d="M117.71,227.52l2-1a3.35,3.35,0,0,1,.95,3.66c-1.82,7,1.38,11.63,6.8,15.27,2,1.32,3.26,3.05,3.13,5.3-0.15,2.59,1.34,4.68,1.83,7-1.7,1.08-2.41-.28-3.08-1-6.43-6.85-10.72-14.69-11.09-24.33C118.19,230.76,117.9,229.14,117.71,227.52Z" transform="translate(-37.98 -15.52)"/><path class="cls-10" d="M330.37,307.77l-1.69-.24c-1.24-.67-3.27-0.8-2.08-3.1l0.38-1.76c1.31,1.36,2.46,3.75,4.71,1.38,2.1-2.22,2.78,1,4.57,1,9.58,0,19.14,1.09,28.75.56,1.3-.07,2.7-0.23,3.69,1-0.91,2.43-3,2.11-5,2.17-3.28.11-6.57-.15-9.81,0.53-5.41,0-10.8-.72-16.21-0.65l-1-.07C334.77,306.87,332.47,308.08,330.37,307.77Z" transform="translate(-37.98 -15.52)"/><path class="cls-17" d="M157.16,284.5c-6.44.76-12.78-1.45-19.15-3.28-0.93-.27-2.45-0.8-1.66-2.42a1.81,1.81,0,0,1,2.54-.88C144.46,282,152.69,278.18,157.16,284.5Z" transform="translate(-37.98 -15.52)"/><path class="cls-18" d="M173.74,273.58l-1.67-4.42c-2.45,1.91-.44,4.91-2.24,7.18-2.6-3.9-2.13-7.8-1.12-11.76,1.56-2.41,3.67-.49,5.51-0.72,0.87,0.26,1.87.42,1.48,1.74-4.24,2.35,1.27,4.62.06,6.94C175.81,274.28,175,274.32,173.74,273.58Z" transform="translate(-37.98 -15.52)"/><path class="cls-10" d="M353.71,308.6c3.06-2.16,6.55-.78,9.82-1.07,1.79-.16,3.55,0,5.18-0.93,3.71-2.48,8.09-.94,12-2l1,2a1.24,1.24,0,0,1-1.2,1.72c-8.52,1.07-17.06,2-25.67,1.17A1.85,1.85,0,0,1,353.71,308.6Z" transform="translate(-37.98 -15.52)"/><path class="cls-10" d="M173.7,264.62c-1.69,2.16-3.32-1.89-5,0,0.14-2.42-.31-5.14,3-6,0.74,1.06,1.91,1,3,1.07a8.14,8.14,0,0,0,1.74.33,1,1,0,0,1-.77-1.38,20.11,20.11,0,0,0,3.8-.58c1.23-.42,2.69-2.37,3.41-0.05,0.43,1.37-1,3-2.73,3.47a20.29,20.29,0,0,1-3.34.33,0.49,0.49,0,0,0-.23.38,1.23,1.23,0,0,0,.17.45C177,265.17,174.35,263.41,173.7,264.62Z" transform="translate(-37.98 -15.52)"/><path class="cls-19" d="M175.7,122.63l-1-1.9c0.49-.73-0.77-3.81,1.76-1.74a97.46,97.46,0,0,1,9.15,9.11c1.23,1.32.29,2.65-.65,4C181.41,129.25,180.35,124.15,175.7,122.63Z" transform="translate(-37.98 -15.52)"/><path class="cls-17" d="M168.66,222.6c-3.24-2.82-.41-6.21-0.79-9.3-0.18-1.51,1.48-1,2.25-.64,2.09,1,2.95,3.21,1.83,4.83-1.54,2.23-.61,4-0.22,6.06a1,1,0,0,1,0,1.3C169.39,225.83,169.49,223.6,168.66,222.6Z" transform="translate(-37.98 -15.52)"/><path class="cls-20" d="M191.74,141.56a34.81,34.81,0,0,0,5,2c1.49,0.34,3.52.44,3,2.24-0.3,1.14-2.32,2.11-3.75,2.58-0.92.3-2.18-.45-3.29-0.72a2.46,2.46,0,0,1-2.09,1c-2.52-2,1.95-4,0-6C190.44,141.67,190.78,141.3,191.74,141.56Z" transform="translate(-37.98 -15.52)"/><path class="cls-21" d="M183.69,236.64c0,2.19,2.76,4.61-.36,6.51-1.1.67,0.26,3.31-2.09,2.54-1.9-.62-2.4-2.13-1.59-4a3.24,3.24,0,0,1-.72-2.28C179.82,237.3,180.74,235.23,183.69,236.64Z" transform="translate(-37.98 -15.52)"/><path class="cls-22" d="M203.65,268.67l-3,.9a3.31,3.31,0,0,0-1.11-2.05c-0.94-1.06-3.65-1.09-2.64-3.21a3.58,3.58,0,0,1,3.92-1.46c2,0.47,3.17,1.63,2.92,3.86C203.65,267.36,203.67,268,203.65,268.67Z" transform="translate(-37.98 -15.52)"/><path class="cls-19" d="M113.65,215.94c3-2.15,4.66-2.14,4.15,2.25-0.28,2.44-.26,4.92-0.37,7.38C114.93,222.85,114.5,219.31,113.65,215.94Z" transform="translate(-37.98 -15.52)"/><path class="cls-18" d="M182.7,167.61a2.22,2.22,0,0,0,1,2c-2.45,1.79.64,3.35,0.23,5.11-0.19.82,1,2-.34,2.56s-1.57-.76-2.3-1.35C176.8,172.3,180.88,170.16,182.7,167.61Z" transform="translate(-37.98 -15.52)"/><path class="cls-23" d="M168.66,222.6c1.08,0.52,1.44,2.16,3,1.94a4.29,4.29,0,0,1,4.15,1.08,1.55,1.55,0,0,1,0,1.24c-0.95,1.17-.21,2.56-0.48,3.81a4.9,4.9,0,0,1-1.57,2.9C172.54,229.69,168.54,227.1,168.66,222.6Z" transform="translate(-37.98 -15.52)"/><path class="cls-24" d="M189.85,255a4.23,4.23,0,0,1,.5.69c0.9,3,1,5.91-1.36,8.35a1.76,1.76,0,0,1-1.23-.28C187.69,260.85,186.83,257.69,189.85,255Z" transform="translate(-37.98 -15.52)"/><path class="cls-25" d="M194.68,159.56c-2.36,5.13-6.63,7.38-12,8a1.94,1.94,0,0,1,.33-0.88c3.86-.82,7.12-2.21,8.37-6.54C191.84,158.48,193.43,158.93,194.68,159.56Z" transform="translate(-37.98 -15.52)"/><path class="cls-26" d="M273.69,105.61c2.62-2.43,5.85-3.22,9.89-4.21-1.15,3-4.54,1.83-4.88,4.32C277,105.41,275.26,110,273.69,105.61Z" transform="translate(-37.98 -15.52)"/><path class="cls-27" d="M258.69,110.58l1.07,1.07c-3.68,2.59-8,3.41-11.91,5.29l-0.55-1.42Z" transform="translate(-37.98 -15.52)"/><path class="cls-28" d="M141.66,204.63l1.08,0c-0.25,1.59.78,2.78,1.22,4.16,0.49,1.55-.49,2.89-2,3.56a2,2,0,0,1-2.61-.85c-0.91-1.37.17-2.14,1.12-2.79C142,207.63,141.6,206.07,141.66,204.63Z" transform="translate(-37.98 -15.52)"/><path class="cls-29" d="M175.7,223.63c3.85-.57,2.12,4.55,5,4.93,0.36,1.85-.77,2.44-2.28,2.7-2.68-.51-4-1.79-2.75-4.65l0,0C176.59,225.6,174.8,224.63,175.7,223.63Z" transform="translate(-37.98 -15.52)"/><path class="cls-10" d="M183.69,236.64c-2,.06-3.06,1.42-4,2.93-1.48,1.06-2.37.4-3-1q0-.44,0-0.89c0.62-2,2.14-2.79,4.06-3.06C182.86,233.66,184.9,232.83,183.69,236.64Z" transform="translate(-37.98 -15.52)"/><path class="cls-30" d="M246.74,274.62c-2.2,3.44-4.85,5.4-9.5,2.55,2.8-1.2,6.59.31,7.49-3.53C246,272.83,246.71,273,246.74,274.62Z" transform="translate(-37.98 -15.52)"/><path class="cls-31" d="M260.68,111.57c1.46-1.29,3.29-1.6,5.11-1.93,0.74,0.57,2.15,1.21,2.1,1.7-0.13,1.24-1.61,1.41-2.61,1.91C263.18,114.29,262,112.86,260.68,111.57Z" transform="translate(-37.98 -15.52)"/><path class="cls-32" d="M167.16,284.89a9.73,9.73,0,0,1-1,.7,6.45,6.45,0,0,1-6,.11,2.28,2.28,0,0,1-.08-1.25C162.37,284.14,164.83,282.64,167.16,284.89Z" transform="translate(-37.98 -15.52)"/><path class="cls-33" d="M254.7,278.6c3,1.11,4.78,3,4.41,6.43-3.78.64-2.06-3.87-4.45-4.47A1.35,1.35,0,0,1,254.7,278.6Z" transform="translate(-37.98 -15.52)"/><path class="cls-29" d="M180.76,234.59c-0.79,1.77-2.6,2.18-4.06,3.06l-1-1c0.12-1.35.43-2.67,0.52-4a2.34,2.34,0,0,1,2.22-1.38c1.32,0.24,1.86,1.26,2.32,2.35C180.73,233.94,180.74,234.26,180.76,234.59Z" transform="translate(-37.98 -15.52)"/><path class="cls-34" d="M173.67,284.61c2.68-1.15,5.37-1.87,8,0,0.23,0.91-.08,1.27-1,1-1.72-2-3.36-.12-5,0.18s-3.39,1.6-5-.12C171.4,284.5,172.91,285.61,173.67,284.61Z" transform="translate(-37.98 -15.52)"/><path class="cls-35" d="M180.71,285.6l1-1,2-.07c1.14-.57,2.13-0.83,2,1-3.21.06-4.93,3.36-8.1,4.15C177.42,287,179.91,287,180.71,285.6Z" transform="translate(-37.98 -15.52)"/><path class="cls-36" d="M164.79,195.56c1,0.81,1.95-5.22,2.93-5.91,0.08,1.62-.06,9.18-0.77,10.67-0.3.62-.21,1.89-1.36,1.25-0.54-.3-0.68-1.35-1-2.05a1.22,1.22,0,0,1-.1-1.66Z" transform="translate(-37.98 -15.52)"/><path class="cls-37" d="M176.7,238.54l3,1q0,1.06,0,2.12c-2.12-.23-4.15-0.18-5.52,2.09A5.22,5.22,0,0,1,176.7,238.54Z" transform="translate(-37.98 -15.52)"/><path class="cls-38" d="M213.74,266.55l-5,2.06c-0.74-1.37-2.12-2.54-1.07-4.8C209,266.5,211.88,265.07,213.74,266.55Z" transform="translate(-37.98 -15.52)"/><path class="cls-39" d="M175.66,258.63c1,1.35,2.68.69,3.9,2-2.29,0-4.59,0-6.88,0-1.63,0-1.27-1-1-2Z" transform="translate(-37.98 -15.52)"/><path class="cls-10" d="M279.71,304.58c2.53,0.28.7,2,1,3a0.53,0.53,0,0,1-1,0,2.21,2.21,0,0,0-2-1,8.94,8.94,0,0,1-.15-1c0-1.16-1.84-2.66.07-3.37C279,301.77,278.51,304.19,279.71,304.58Z" transform="translate(-37.98 -15.52)"/><path class="cls-10" d="M346.47,272.81a1.77,1.77,0,0,1,1.76,1.48c0.13,1.28-1,1.59-1.95,1.85-1.13.32-1.45-.52-1.49-1.41C344.75,273.6,345.13,272.75,346.47,272.81Z" transform="translate(-37.98 -15.52)"/><path class="cls-40" d="M176.71,232.59c-0.11,1.42.39,3-1,4.07-1.57-.45.48-3.17-1.93-3.08,0-1.12-.16-2.27,1-3C176.51,230.11,176.54,231.43,176.71,232.59Z" transform="translate(-37.98 -15.52)"/><path class="cls-41" d="M173.7,264.62l3-2c1.71,0.19,2.28,1.3,1.76,2.73-0.63,1.75-1.82.51-2.8,0.24A2,2,0,0,0,173.7,264.62Z" transform="translate(-37.98 -15.52)"/><path class="cls-42" d="M162.68,238.61c1.41-2.2,3.48-3.91,4.92-6.16-0.49,2.55-1.38,4.83-3.87,6.21A0.67,0.67,0,0,1,162.68,238.61Z" transform="translate(-37.98 -15.52)"/><path class="cls-43" d="M303.73,204.55a2.18,2.18,0,0,0,1-2c0.91,1.65,3.32,2.69,2.11,5.65A8.46,8.46,0,0,1,303.73,204.55Z" transform="translate(-37.98 -15.52)"/><path class="cls-44" d="M196.1,271.21h-6.58l-0.09-1.28C191.21,269.41,193,269.17,196.1,271.21Z" transform="translate(-37.98 -15.52)"/><path class="cls-45" d="M263.27,287.87c1.13-1,1.84-2.77,3.7-2.17a0.91,0.91,0,0,1,.33.83C266.49,288.31,265,288.48,263.27,287.87Z" transform="translate(-37.98 -15.52)"/><path class="cls-46" d="M190.66,148.61a2.2,2.2,0,0,1,2.08-1l1,3.07,0,4Z" transform="translate(-37.98 -15.52)"/><path class="cls-47" d="M191.57,138.07c-1.66-.74-3.27,1-4.39-1.09a1.32,1.32,0,0,1,.58-1.12C189.33,135.42,190.71,135.61,191.57,138.07Z" transform="translate(-37.98 -15.52)"/><path class="cls-48" d="M246.7,271.61L241.06,269c2.6-.41,4.83-0.17,5.66,2.63h0Z" transform="translate(-37.98 -15.52)"/><path class="cls-49" d="M379.74,247.6l-1.07,1.06a3.12,3.12,0,0,0-4,0l-1-1C376,243.9,377.39,243.9,379.74,247.6Z" transform="translate(-37.98 -15.52)"/><path class="cls-26" d="M180.73,233.61a3.57,3.57,0,0,1-2-2,0.53,0.53,0,0,1-.28-0.66,0.45,0.45,0,0,1,.31-0.32l2-2C182.56,230.25,181.45,231.93,180.73,233.61Z" transform="translate(-37.98 -15.52)"/><path class="cls-50" d="M150,200.41c1.81-.91,3.73-0.74,5.64-0.59l-7,2.74A2.44,2.44,0,0,1,150,200.41Z" transform="translate(-37.98 -15.52)"/><path class="cls-25" d="M241.68,95.48l-5.95-1.35C238.6,93.41,240.29,93.41,241.68,95.48Z" transform="translate(-37.98 -15.52)"/><path class="cls-51" d="M184.62,267.59a4.83,4.83,0,0,1-4.41-.82C182.12,265.19,183.35,265.57,184.62,267.59Z" transform="translate(-37.98 -15.52)"/><path class="cls-52" d="M185.69,285.6a2.22,2.22,0,0,0-2-1c-0.46-1.11-.8-2.71.81-2.5S187.21,283.76,185.69,285.6Z" transform="translate(-37.98 -15.52)"/><path class="cls-53" d="M170.32,288.32a0.73,0.73,0,0,1-.85.9c-1-.16-2-0.43-2.22-1.55-0.14-.89.7-1,1.36-0.87A2,2,0,0,1,170.32,288.32Z" transform="translate(-37.98 -15.52)"/><path class="cls-54" d="M175.7,223.63c0.32,1,1.54,2,0,3l-4.05-2,0.06-1Z" transform="translate(-37.98 -15.52)"/><path class="cls-55" d="M173.74,273.58a2.15,2.15,0,0,0,2-1c1.41,0.9,2.71,2.27.79,3.4S175.07,274,173.74,273.58Z" transform="translate(-37.98 -15.52)"/><path class="cls-56" d="M246.74,274.62a2.06,2.06,0,0,0-2-1l2-2h0c1,0.16,1.94.44,1.79,1.74C248.39,274.35,247.53,274.47,246.74,274.62Z" transform="translate(-37.98 -15.52)"/><path class="cls-57" d="M123.37,269.56c-1.65-.34-3-1.06-3-3.25C122.56,266.45,122.28,268.68,123.37,269.56Z" transform="translate(-37.98 -15.52)"/><path class="cls-58" d="M249.7,292.91a4.54,4.54,0,0,1-1.48.51c-0.7,0-1.28-.55-0.8-1.2a2.52,2.52,0,0,1,1.71-.49C249.56,291.71,250.1,291.94,249.7,292.91Z" transform="translate(-37.98 -15.52)"/><path class="cls-59" d="M173.67,284.61c-0.72,1.14-1.9.95-3,1a2.43,2.43,0,0,1-1.15-.58,0.88,0.88,0,0,1,1-1.14A24.07,24.07,0,0,1,173.67,284.61Z" transform="translate(-37.98 -15.52)"/><path class="cls-60" d="M260.6,122.43a3.66,3.66,0,0,1,1.49,1c0.32,0.88-.51,1-1.15,1a1.17,1.17,0,0,1-1.35-1A2.9,2.9,0,0,1,260.6,122.43Z" transform="translate(-37.98 -15.52)"/><path class="cls-61" d="M254.7,278.6q0,1,0,2a8.54,8.54,0,0,1-1.54-1.1c-0.59-.65-1.76-1.56-0.62-2.29C253.43,276.57,253.85,278.25,254.7,278.6Z" transform="translate(-37.98 -15.52)"/><path class="cls-62" d="M299.26,120.94c0.16,1.78-.43,3.18-1.38,3.09-1.79-.18-0.51-1.29-0.11-1.94A6.66,6.66,0,0,1,299.26,120.94Z" transform="translate(-37.98 -15.52)"/><path class="cls-60" d="M264.32,123.29c0.75-1.88,2-1.79,3.28-1.45C267.05,123.63,265.84,123.52,264.32,123.29Z" transform="translate(-37.98 -15.52)"/><path class="cls-63" d="M204.63,278.23c-0.16.88-.42,1.53-1.18,1.57a1.4,1.4,0,0,1-.58-1A1.24,1.24,0,0,1,204,277.4,1.93,1.93,0,0,1,204.63,278.23Z" transform="translate(-37.98 -15.52)"/><path class="cls-64" d="M195.14,283.86a2.23,2.23,0,0,1,2.15-2.52C197.34,282.91,196.58,283.59,195.14,283.86Z" transform="translate(-37.98 -15.52)"/><path class="cls-65" d="M197.61,75.83c-0.82.93-1.76,1.52-2.94,0.9C195,74.27,196.73,76.49,197.61,75.83Z" transform="translate(-37.98 -15.52)"/><path class="cls-60" d="M220.42,115.1c-0.31.91-.78,0.82-1.22,0.63-0.6-.27-1.23-0.62-0.92-1.43a0.9,0.9,0,0,1,.82-0.31A9.87,9.87,0,0,1,220.42,115.1Z" transform="translate(-37.98 -15.52)"/><path class="cls-66" d="M256.68,108.63a16.33,16.33,0,0,1,1.87,0,8,8,0,0,1,2,.37c0,1.16-1.17,1.17-1.94,1.59Z" transform="translate(-37.98 -15.52)"/><path class="cls-67" d="M191.74,141.56l-1.06,1.06c-0.81-.61-2.41-1.25-1.32-2.35S191.11,140.76,191.74,141.56Z" transform="translate(-37.98 -15.52)"/><path class="cls-68" d="M302.73,122.55c2.45,0.29,1.56,1.73,1,3C302.55,124.89,302.74,123.69,302.73,122.55Z" transform="translate(-37.98 -15.52)"/><path class="cls-69" d="M142.61,269.68a4.94,4.94,0,0,1-1.42.75,0.58,0.58,0,0,1-.63-0.9,1,1,0,0,1,.74-0.52A4.77,4.77,0,0,1,142.61,269.68Z" transform="translate(-37.98 -15.52)"/><path class="cls-70" d="M117.56,258.65c0,0.72-.08,1.28-0.68,1.13a1.76,1.76,0,0,1-.79-1,1.14,1.14,0,0,1,.46-0.68A5.87,5.87,0,0,1,117.56,258.65Z" transform="translate(-37.98 -15.52)"/><path class="cls-71" d="M103.87,229.47v-3C105.32,227.5,104.32,228.55,103.87,229.47Z" transform="translate(-37.98 -15.52)"/><path class="cls-72" d="M270.69,93.61c0.71-.82,1.74-1.42,2.4-0.36s-0.57,1.21-1.33,1.43Z" transform="translate(-37.98 -15.52)"/><path class="cls-10" d="M162.68,238.61l1.05,0c-0.16.94-.37,2.45-1.34,2.13C161.17,240.37,161.93,239.28,162.68,238.61Z" transform="translate(-37.98 -15.52)"/><path class="cls-73" d="M263,283.27l-0.2,1a7,7,0,0,1-1.51-.85c-0.31-.29-0.35-1,0.21-1A3.86,3.86,0,0,1,263,283.27Z" transform="translate(-37.98 -15.52)"/><path class="cls-74" d="M142.43,251.47a5.33,5.33,0,0,1-.69.62,2.22,2.22,0,0,1-.85-0.91c-0.13-.49.15-1,0.77-0.75A2.89,2.89,0,0,1,142.43,251.47Z" transform="translate(-37.98 -15.52)"/><path class="cls-75" d="M112.89,255.47l-0.72-.88a3.35,3.35,0,0,1,1.05-.51,0.94,0.94,0,0,1,.65.59C114.08,255.32,113.62,255.46,112.89,255.47Z" transform="translate(-37.98 -15.52)"/><path class="cls-76" d="M234.25,266.66l0.69,0.69a3.13,3.13,0,0,1-1,.88,0.61,0.61,0,0,1-.75-0.86A2.64,2.64,0,0,1,234.25,266.66Z" transform="translate(-37.98 -15.52)"/><path class="cls-10" d="M379.74,247.6c-2-2.25-4-2.25-6.06,0-4.25.75-8.42-3.52-7.76-8,0.24-1.63.63-3.25,1-4.87,1.11-5.51,0-6.73-5.65-6.39-6.09.37-6.24,0.32-4.44-5.32a29.46,29.46,0,0,1,3.66-7.47c2-2.94-.2-3.27-2-3.24-2.56,0-5.34,0-6.11,3.68-1.17,5.56-6.29,4.77-10.07,5.33-3.34.49-4.37-2.72-5.55-5.39-1.7-3.85-2.09-7.68-.43-11.52,2.33-5.34,2.49-11.91,9.85-14.28a14.57,14.57,0,0,1,9.05-.18c2.07,0.59,3.57,1.06,4.83-1.57,1.65-3.46,5.47-1.5,7.56-1.2,3.82,0.54,9.56.8,7.68,8-0.44,1.71.53,6,3.38,5.63,2.66-.39,2.49-4.12,1.72-6.42-2.87-8.51,1.94-13,8.31-16.83,4.36-2.64,10.2-4.17,9.08-11.26,4.89-2.32,6.83-8.36,12.43-9.8,2.4-.62,4.71-0.76,5.49-4.28,0.59-2.67,3.91-3.77,6.68-4.61s5.87-1.13,7.51-4.07l1.69,3c-0.13.3-.66,0.47-0.42,0.87a0.71,0.71,0,0,0,.77,0c10,17.69,15.63,36.78,18.86,56.72,0.74,4.56.34,9.26,1.87,13.7a2.41,2.41,0,0,1,0,2.6c0.39,14.38-.24,28.69-2.94,42.85-0.28,1.45-.75,2.86-1.13,4.29-2.85-2.27-1.93-7.08-5.92-8.63-1.36-.53-2.69-2.22-3.83-2.05-8.08,1.17-11.28-5.6-16.25-9.52-2.85-2.25-5-5.92-10-3.24-1.87,1-6.45.18-7.66-1.42-3.45-4.56-6.11-1.47-9.12-.15-1.05-.33.1-3-2.19-2-3.88.8-7.46,1.71-8.91,6.31C383.95,249.25,381.74,249.58,379.74,247.6Z" transform="translate(-37.98 -15.52)"/><path class="cls-10" d="M410.67,124.65c-0.36,2.39-1.72,3.92-4.14,3.8-2.25-.11-2.49-2.13-2.77-3.9-0.61-1.34-.31-2.77-0.41-4.16-4-2.54-7.72-5.72-12.71-6.27-0.69-.27-1.32-0.57-0.88-1.5-2.84-6.53,3.26-8.87,6-12.77a103.09,103.09,0,0,1,17.09,18.67c0,1.25.23,2.54-.38,3.73C412.13,123.25,410.91,123.58,410.67,124.65Z" transform="translate(-37.98 -15.52)"/><path class="cls-17" d="M431.94,147.42c-1,1-2,2.22-3.79,1.57,0-2.54,1.91-2.25,3.45-2.47A1.32,1.32,0,0,1,431.94,147.42Z" transform="translate(-37.98 -15.52)"/><path class="cls-77" d="M427.35,324.29L424.54,332l-3.65,5.53c-6.12,1.86-10.8,10.27-16.72,13.09a10.09,10.09,0,0,0-1.26-.14,7.11,7.11,0,0,1-.08-5.7c8.35-9.15,16.92-17.63,24.68-28.59,0.63-.68,1.24-0.65,1.82.21A10.43,10.43,0,0,1,427.35,324.29Z" transform="translate(-37.98 -15.52)"/><path class="cls-78" d="M447.71,279.6l0.94-5,1,0c0.13,4.05.88,8.15-1,12h0C446.37,284.55,446.9,282.1,447.71,279.6Z" transform="translate(-37.98 -15.52)"/><path class="cls-10" d="M402.67,341.39l0.06,2.19q0,1,0,2c-5.26-.52-9.91,2.18-14.55,3.65-18.17,5.78-36.83,7-55.6,7.71-6.13.23-12.33,0.85-18.46-.38,0.5-2,.28-4,3.75-3.75,28.42,2.43,56.29.33,82.94-10.91A16.77,16.77,0,0,1,402.67,341.39Z" transform="translate(-37.98 -15.52)"/><path class="cls-10" d="M372.84,141.09c3.92-3.1,8.1-4.08,12-5.64,2.19-.88,3.32.65,4.63,2a2,2,0,0,1,.48,2.63,3.14,3.14,0,0,1-4.28,1.47C381.61,139.77,377.52,141.74,372.84,141.09Z" transform="translate(-37.98 -15.52)"/><path class="cls-10" d="M388.75,144.51c-3.76.58-6.27,2.5-7.3,6.32a11,11,0,0,1-2,3.38c-0.59.8-1.5,1.5-2.54,0.82s-0.57-1.75-.13-2.63c4-7.87,4.8-10.15,13.88-9.77C391.18,144.44,389.55,144,388.75,144.51Z" transform="translate(-37.98 -15.52)"/><path class="cls-10" d="M388.75,144.51l1.94-1.88a7,7,0,0,1,6,1c-0.4,1-.2,2.17-1,3-1.12.94-2.56,1.67-3.28,2.85-1.62,2.67-2.63.29-3.94-.17-0.6-.21-1.46,0-0.78-1,0.35-.51,1.07-0.76,1.47-1.26C389.94,146.11,389.54,145.26,388.75,144.51Z" transform="translate(-37.98 -15.52)"/><path class="cls-10" d="M367.67,124.31c0.4-2.59,2.65-3,4.85-4.2-1.14,3.88-.54,7.91-3.94,11.07-0.87-1.52.57-3.36-.87-4.42A9,9,0,0,1,367.67,124.31Z" transform="translate(-37.98 -15.52)"/><path class="cls-10" d="M397.75,150.63c-2.77,3.9-6.63,5.12-11.12,4.83,2.6-3.44,7.73-2.08,10.11-5.81A1.53,1.53,0,0,1,397.75,150.63Z" transform="translate(-37.98 -15.52)"/><path class="cls-10" d="M397.75,150.63l-1-1a18.88,18.88,0,0,1,9.71-2.15C404.56,151.91,400.81,150.29,397.75,150.63Z" transform="translate(-37.98 -15.52)"/><path class="cls-10" d="M395.7,146.64c-0.49-1.28-1.58-2.75,1-3C397.91,145.13,398.54,146.45,395.7,146.64Z" transform="translate(-37.98 -15.52)"/><path class="cls-79" d="M382.7,306.6a2.79,2.79,0,0,1,3-2.72c7,1.22,12.67-3.9,19.66-4,3.25,0,7.79-2.37,11.53-4.36,8-4.28,15-10.05,22.09-15.57,2.48-1.92,3.29-6.18,7.71-5.29-2.68,6.79-8.51,10.72-13.83,15a86.41,86.41,0,0,1-48.44,19.25C383.18,308.65,382.16,308.2,382.7,306.6Z" transform="translate(-37.98 -15.52)"/><path class="cls-10" d="M282.71,319.62c-3.14,1.89-1.2,3.82,0,5.69q9,14.17,18,28.31c0.88,3.52-1.26,2.71-3.18,2.23-7.31-7.84-13.7-16.47-20.79-24.5-2.25-2.54-4.45-5.65-1.65-9.35a11.8,11.8,0,0,1,4.06-3.38C280.47,318.07,282.2,316.91,282.71,319.62Z" transform="translate(-37.98 -15.52)"/><path class="cls-10" d="M279.72,307.59h1c7.33-2.76,13.12-8.18,20.07-11.6,4.16-2.05,7.64-5.6,12.84-5.45,3,0.08,5.06,1,6.1,3.88-1.63,1.17-2.85,2.91-4.92,3.45-1.42-2.06-2.74-2.49-5.44-1.38-8.15,3.36-15.06,8.8-22.8,12.81-1.6.83-3.07,1.92-4.7,2.74a10.77,10.77,0,0,1-1.26.58c-4.26,1.52-7.79,4.59-12.18,5.84-1.15.64-2.12,1.86-3.69,1.16-0.55-3.37,2.48-3.76,4.33-4.87A81.8,81.8,0,0,0,279.72,307.59Z" transform="translate(-37.98 -15.52)"/><path class="cls-10" d="M264.7,319.6l3-2c2.52,0.63.84,2,.35,2.86-1.8,3.21-1.16,6.11,1,8.75q11.19,13.66,22.64,27.11c3.53,4.15,7.41,6.95,13.18,5.16l0.81,1.13c-0.12,4.23-3.14,4.29-6,3.76a15.76,15.76,0,0,1-9.18-5.54q-12.57-15-25.07-30C261.29,325.87,261.08,322.78,264.7,319.6Z" transform="translate(-37.98 -15.52)"/><path class="cls-10" d="M304.89,361.48c-4,3.38-7.51,2.4-10.87-1-9.45-9.7-17.54-20.56-26.35-30.8-3.58-4.16-1.5-8,0-12,4.53-1.56,8.18-5,13-6,1.3,2.57-.73,3.53-2.3,4.68a23.44,23.44,0,0,1-5.79,2.86c-1.08-.26-2.33-0.82-2.09,1.22-1.73,3.37-1,6.26,1.27,9.19,4.87,6.3,10.2,12.2,15.42,18.2a13.54,13.54,0,0,1,1.33,1.62c1.73,2.91,4.45,4.91,6.67,7.38s4.62,3.09,7.57,1.6A4.71,4.71,0,0,1,304.89,361.48Z" transform="translate(-37.98 -15.52)"/><path class="cls-10" d="M271.7,318.61c2.78-2.62,7.81-2.34,9-7h0c6.05-1.16,10.35-5.71,15.71-8.21,3.15-1.47,5.94-3.69,9-5.31s4.56-1.2,6.21,1.45a62.56,62.56,0,0,1-11,7.82c-4.05.71-7,3.53-10.35,5.57-5.25,3.23-11.21,4.89-16.47,8C272.59,320.65,271.37,320.32,271.7,318.61Z" transform="translate(-37.98 -15.52)"/><path class="cls-10" d="M311.67,299.53c-2.23-2.83-4.55-.91-6.48.18q-10.08,5.7-19.9,11.87a4,4,0,0,1-4.57,0c9.49-5.9,18.66-12.34,29.1-16.59,3.11-1.26,4.7-.53,5,2.85A4,4,0,0,1,311.67,299.53Z" transform="translate(-37.98 -15.52)"/><path class="cls-10" d="M382.7,306.6l1.74,2.33c-15.6,2.83-31.17,2.35-46.73-.28,5.33-1.42,10.67-.59,16,0a108.68,108.68,0,0,0,28-2.06Z" transform="translate(-37.98 -15.52)"/><path class="cls-10" d="M287.7,349.61l-1-1c-4.85-6.84-10.87-12.72-15.92-19.4-2.25-3-2.94-5.84-.21-8.86a1.65,1.65,0,0,1,1.84.93c-0.18,5.41,2.73,9.29,6.32,12.88,4.45,4.46,8,9.67,12.08,14.46a34.56,34.56,0,0,0,5.89,6c1.62,1.56,2.57,1.11,3-1a4.83,4.83,0,0,1,2.11,3.83c-1.3,3.57-3.65,2.26-5.49.86A45.62,45.62,0,0,1,287.7,349.61Z" transform="translate(-37.98 -15.52)"/><path class="cls-10" d="M273.73,320.59c0.43-.68.72-1.8,1.3-2,8.46-2.58,15.65-7.66,23.35-11.72a1.87,1.87,0,0,1,2.26.47c-6.19,4.26-12.29,8.68-18.92,12.27-3.46-1.64-4.65,2-7,3l-0.61-.26A1.37,1.37,0,0,1,273.73,320.59Z" transform="translate(-37.98 -15.52)"/><path class="cls-10" d="M287.7,349.61c2.41,2.23,4.71,4.58,7.25,6.64,2,1.59,4.07,3.7,6.85,1.2l1,0.92c-1,3.48-4.07,2.86-5.54,1.68C293.58,357.12,289.46,354.37,287.7,349.61Z" transform="translate(-37.98 -15.52)"/><path class="cls-10" d="M330.37,307.77c2.28-1.09,4.57-2.25,6.33.8C334.54,308.67,332.34,309.14,330.37,307.77Z" transform="translate(-37.98 -15.52)"/><path class="cls-80" d="M423.93,327.64a4.69,4.69,0,0,1-1.79,2.94l-1.61-.18A7.67,7.67,0,0,1,423.93,327.64Z" transform="translate(-37.98 -15.52)"/><path class="cls-10" d="M326.61,304.44c0,1.52,1.31,2.11,2.08,3.1C326.29,307.65,325,307,326.61,304.44Z" transform="translate(-37.98 -15.52)"/><path class="cls-81" d="M393.61,240.53c0.67-.92,1.18-2,2.63-2.22-0.15,1.46-.3,2.86-0.44,4.26Z" transform="translate(-37.98 -15.52)"/><path class="cls-10" d="M169.74,186.21c-0.38,2.32-1.53,3.54-3.7,3.43a3.13,3.13,0,0,1-3.18-3.62,3.21,3.21,0,0,1,3.59-3.26C168.54,182.88,169.51,184.41,169.74,186.21Z" transform="translate(-37.98 -15.52)"/><path class="cls-82" d="M308.75,139.29c-0.42,2.34-1.61,3.51-3.77,3.36a3.43,3.43,0,0,1,.51-6.83A3.52,3.52,0,0,1,308.75,139.29Z" transform="translate(-37.98 -15.52)"/><path class="cls-10" d="M178.73,230.61q0,0.49,0,1l-2,1-2-2c0.86-1.18-3.55-3.68,1-4C175.37,229,176.92,229.88,178.73,230.61Z" transform="translate(-37.98 -15.52)"/><path class="cls-28" d="M378.75,208.59c5,0.67,8.14,4.69,13,6.69-2.52,1.87-5.07,2.08-6.6.57-3-3-6.89-4.32-10.47-6.24C375.46,206.92,377.22,208.22,378.75,208.59Z" transform="translate(-37.98 -15.52)"/><path class="cls-83" d="M395.73,216.57c4-.4,7.36.58,10,4.92-3.41-1-6.07,1.06-9,.13a4.41,4.41,0,0,1-1.56-2.17C394.44,216.84,394.44,216.84,395.73,216.57Z" transform="translate(-37.98 -15.52)"/><path class="cls-84" d="M422.2,235.54c1.46-3.7-2.32-7.33.39-11.92C423.28,228.22,424.32,231.87,422.2,235.54Z" transform="translate(-37.98 -15.52)"/><path class="cls-85" d="M378.75,208.59c-1.39.15-3-.42-4,1-1.35-.93-2.66-0.1-4,0.06-1,.29-1.27-0.16-1-1.08C372.71,207.33,375.73,206.83,378.75,208.59Z" transform="translate(-37.98 -15.52)"/><path class="cls-58" d="M392.71,208.6c-3.06-1.8-3-5.56-5-8,4.07,1.17,3.52,5.22,5,8h0Z" transform="translate(-37.98 -15.52)"/><path class="cls-86" d="M395.71,219.59a2.27,2.27,0,0,1,1,2c-1.26.11-2.53,0.19-3.79,0.33s-2.16-.4-1.71-1.46c0.53-1.25,1.61-.07,2.45.09A6.25,6.25,0,0,1,395.71,219.59Z" transform="translate(-37.98 -15.52)"/><path class="cls-87" d="M386.2,221.94a3.39,3.39,0,0,1-4.29-.26C383.46,220.22,384.62,220.4,386.2,221.94Z" transform="translate(-37.98 -15.52)"/><path class="cls-88" d="M412.15,221.59a1.15,1.15,0,0,1-1.42.91c-0.63,0-1.39,0-1.39-.91s0.76-.9,1.4-0.9S412,220.72,412.15,221.59Z" transform="translate(-37.98 -15.52)"/><path class="cls-89" d="M395.71,219.59a2.1,2.1,0,0,1-2,1,4.06,4.06,0,0,0,.23-2.85c-0.27-1.42.14-2.45,1.81-1.15C394.62,217.57,396,218.59,395.71,219.59Z" transform="translate(-37.98 -15.52)"/><path class="cls-58" d="M387.63,200.75c-1-1.52-1.38-3.08-.21-3.44,1.51-.47,1.13,1,0.89,1.94A10.73,10.73,0,0,1,387.63,200.75Z" transform="translate(-37.98 -15.52)"/><path class="cls-90" d="M384.53,204.73a4.93,4.93,0,0,1-.64-1.48c-0.08-.68.37-1.4,1.11-1a2.6,2.6,0,0,1,.63,1.68C385.7,204.37,385.49,204.83,384.53,204.73Z" transform="translate(-37.98 -15.52)"/><path class="cls-91" d="M392.71,208.6c1.2,0.19,2.47.26,3.09,1.69-1.72.58-2.83,0.23-3.09-1.68h0Z" transform="translate(-37.98 -15.52)"/><path class="cls-92" d="M369.69,208.6l1,1.07a5.24,5.24,0,0,1-3.45,1.77A3.88,3.88,0,0,1,369.69,208.6Z" transform="translate(-37.98 -15.52)"/><path class="cls-93" d="M403.61,120.77c-6.45,1.4-10-2.44-13-7.24,2.22-1.88,4.51-.38,5.82.82a11.37,11.37,0,0,0,7.46,3.34c1,0,2.2.22,2,1.58C405.79,120.46,404.55,120.51,403.61,120.77Z" transform="translate(-37.98 -15.52)"/><path class="cls-10" d="M296.7,354.61c-5.06-1.21-6.54-6.22-9.68-9.4-4.59-4.64-8.26-10.17-12.66-15a10.42,10.42,0,0,1-2.65-8.58c1.32-.63,2,0.54,3,1h0c-2.44,4.78,1.48,7.51,3.88,10.18C284.92,339.82,290.66,347.34,296.7,354.61Z" transform="translate(-37.98 -15.52)"/><path class="cls-10" d="M270.72,320.6c-3.17,5.86,1.25,9.23,4.4,12.84,4.2,4.81,8.77,9.31,11.59,15.17a162,162,0,0,1-17.41-20.22c-2.09-2.78-1.63-5.95.43-8.79C270.66,319.32,271,319.67,270.72,320.6Z" transform="translate(-37.98 -15.52)"/><path class="cls-10" d="M270.72,320.6l-1-1c-0.07-1.78.91-1.47,2-1l2,2,1,2-3-1Z" transform="translate(-37.98 -15.52)"/><path class="cls-94" d="M451.87,270.77s-29.49,53.81-127.7,36.45l2.88-20.89-49.75,34.21,34.35,51.28,4.65-21.13S433.08,375.35,451.87,270.77Z" transform="translate(-37.98 -15.52)"/><path class="cls-95" d="M199.67,162.93s32.72-18.56,66.29-15" transform="translate(-37.98 -15.52)"/><path class="cls-96" d="M453.66,214.06" transform="translate(-37.98 -15.52)"/><path class="cls-96" d="M420.8,123.16" transform="translate(-37.98 -15.52)"/><path class="cls-95" d="M412.84,118.52C362.19,122,312.64,146,312.64,146" transform="translate(-37.98 -15.52)"/><path class="cls-97" d="M446,169.76s36.74-44.58-22.06-51.24" transform="translate(-37.98 -15.52)"/><path class="cls-97" d="M584.48,145.16" transform="translate(-37.98 -15.52)"/><path class="cls-6" d="M195.14,142.75a7.24,7.24,0,0,0-7.23,7.23,7.06,7.06,0,0,0,.63,3,45.58,45.58,0,0,0,6.29,9.31,0.4,0.4,0,0,0,.61,0,45.57,45.57,0,0,0,6.29-9.31,7,7,0,0,0,.63-3,7.24,7.24,0,0,0-7.23-7.23h0Zm0,11a3.75,3.75,0,1,1,3.75-3.75,3.76,3.76,0,0,1-3.75,3.75h0Zm0,0" transform="translate(-37.98 -15.52)"/><path class="cls-6" d="M304.27,130.33a8.38,8.38,0,0,0-8.37,8.37,8.18,8.18,0,0,0,.73,3.42,52.78,52.78,0,0,0,7.29,10.79,0.46,0.46,0,0,0,.71,0,52.84,52.84,0,0,0,7.29-10.79,8.17,8.17,0,0,0,.73-3.42,8.39,8.39,0,0,0-8.37-8.37h0Zm0,12.72a4.35,4.35,0,1,1,4.35-4.35,4.36,4.36,0,0,1-4.35,4.35h0Zm0,0" transform="translate(-37.98 -15.52)"/><path class="cls-9" d="M373,124.55a2.25,2.25,0,0,0-2.75-1.42l-7.65,2.45-10.51-8.89-2.77.89,7,10L348.73,130l-3-2.11-2.08.67,2.95,4.42,0.17,5.3,2.08-.67,1.19-3.44,7.65-2.45L357.8,144l2.77-.89L364,129.75l7.65-2.45a2.24,2.24,0,0,0,1.42-2.75h0Zm0,0" transform="translate(-37.98 -15.52)"/><path class="cls-9" d="M270.68,148a1.57,1.57,0,0,0,1.53,1.54h5.62l5.11,8.17h2l-2.56-8.17h5.62l1.53,2h1.53l-1-3.58,1-3.57h-1.53l-1.53,2h-5.62L285,138.3h-2l-5.11,8.17h-5.62a1.57,1.57,0,0,0-1.53,1.53h0Zm0,0" transform="translate(-37.98 -15.52)"/></svg>