<svg id="Layer_1" data-name="Layer 1" xmlns="http://www.w3.org/2000/svg" xmlns:xlink="http://www.w3.org/1999/xlink" viewBox="0 0 152.51 160.88"><defs><style>.cls-1,.cls-31,.cls-4,.cls-58{fill:none;}.cls-2{isolation:isolate;}.cls-3{clip-path:url(#clip-path);}.cls-4{stroke:#000;stroke-miterlimit:10;}.cls-4,.cls-58{stroke-width:0.25px;}.cls-5{clip-path:url(#clip-path-2);}.cls-6{clip-path:url(#clip-path-3);}.cls-7{clip-path:url(#clip-path-4);}.cls-8{clip-path:url(#clip-path-5);}.cls-9{clip-path:url(#clip-path-6);}.cls-10{clip-path:url(#clip-path-7);}.cls-11{clip-path:url(#clip-path-8);}.cls-12{clip-path:url(#clip-path-9);}.cls-13{clip-path:url(#clip-path-10);}.cls-14{clip-path:url(#clip-path-11);}.cls-15{clip-path:url(#clip-path-12);}.cls-16{clip-path:url(#clip-path-13);}.cls-17{clip-path:url(#clip-path-14);}.cls-18{clip-path:url(#clip-path-15);}.cls-19{clip-path:url(#clip-path-16);}.cls-20{clip-path:url(#clip-path-17);}.cls-21{clip-path:url(#clip-path-18);}.cls-22{clip-path:url(#clip-path-19);}.cls-23{clip-path:url(#clip-path-20);}.cls-24{clip-path:url(#clip-path-21);}.cls-25{clip-path:url(#clip-path-22);}.cls-26{clip-path:url(#clip-path-23);}.cls-27{clip-path:url(#clip-path-24);}.cls-28{clip-path:url(#clip-path-25);}.cls-29{clip-path:url(#clip-path-26);}.cls-30{opacity:0.85;}.cls-31{stroke:#00687c;stroke-width:1.5px;}.cls-32{clip-path:url(#clip-path-53);}.cls-33{clip-path:url(#clip-path-54);}.cls-34{clip-path:url(#clip-path-55);}.cls-35{clip-path:url(#clip-path-56);}.cls-36{clip-path:url(#clip-path-57);}.cls-37{clip-path:url(#clip-path-58);}.cls-38{clip-path:url(#clip-path-59);}.cls-39{clip-path:url(#clip-path-60);}.cls-40{clip-path:url(#clip-path-61);}.cls-41{clip-path:url(#clip-path-62);}.cls-42{clip-path:url(#clip-path-63);}.cls-43{clip-path:url(#clip-path-64);}.cls-44{clip-path:url(#clip-path-65);}.cls-45{clip-path:url(#clip-path-66);}.cls-46{clip-path:url(#clip-path-67);}.cls-47{clip-path:url(#clip-path-68);}.cls-48{clip-path:url(#clip-path-69);}.cls-49{clip-path:url(#clip-path-70);}.cls-50{clip-path:url(#clip-path-71);}.cls-51{clip-path:url(#clip-path-72);}.cls-52{clip-path:url(#clip-path-73);}.cls-53{clip-path:url(#clip-path-74);}.cls-54{clip-path:url(#clip-path-75);}.cls-55{clip-path:url(#clip-path-76);}.cls-56{clip-path:url(#clip-path-77);}.cls-57{clip-path:url(#clip-path-78);}.cls-58{stroke:#842679;}</style><clipPath id="clip-path" transform="translate(-79.55 -22.73)"><path class="cls-1" d="M178.15,33l32.93-2.69,0.76,133.26L172,166.86l-0.27-48-25.21,42-25.86-37.87,0.27,48-39.85,3.26L80.31,41l32.93-2.69,32.85,48.48ZM193,149.14L192.46,47.85l-4.87.4-41.35,69.14L104,55.08l-4.87.4,0.58,101.29,4.87-.4L104,64.67l42.28,61.71,41.35-68.55,0.52,91.7,4.87-.4"/></clipPath><clipPath id="clip-path-2" transform="translate(-79.55 -22.73)"><path class="cls-1" d="M197.62,41.23l32.93-2.69,0.76,133.26L191.45,175l-0.27-48-25.21,42-25.86-37.87,0.27,48-39.85,3.26L99.77,49.22l32.93-2.69L165.54,95Zm14.89,116.11L211.93,56l-4.87.4-41.35,69.14L123.44,63.28l-4.87.4L119.15,165l4.87-.4-0.52-91.7,42.28,61.71L207.12,66l0.52,91.7,4.87-.4"/></clipPath><clipPath id="clip-path-3" transform="translate(-79.55 -22.73)"><polygon class="cls-1" points="197.62 41.23 178.15 33.03 211.07 30.34 230.54 38.54 197.62 41.23"/></clipPath><clipPath id="clip-path-4" transform="translate(-79.55 -22.73)"><polygon class="cls-1" points="230.54 38.54 231.3 171.79 211.84 163.6 211.07 30.34 230.54 38.54"/></clipPath><clipPath id="clip-path-5" transform="translate(-79.55 -22.73)"><polygon class="cls-1" points="231.3 171.79 191.45 175.05 171.99 166.85 211.84 163.6 231.3 171.79"/></clipPath><clipPath id="clip-path-6" transform="translate(-79.55 -22.73)"><polygon class="cls-1" points="191.45 175.05 171.99 166.85 171.71 118.9 191.18 127.1 191.45 175.05"/></clipPath><clipPath id="clip-path-7" transform="translate(-79.55 -22.73)"><polygon class="cls-1" points="191.18 127.1 165.97 169.13 146.5 160.94 171.71 118.9 191.18 127.1"/></clipPath><clipPath id="clip-path-8" transform="translate(-79.55 -22.73)"><polygon class="cls-1" points="165.97 169.13 146.5 160.94 120.64 123.08 140.11 131.27 165.97 169.13"/></clipPath><clipPath id="clip-path-9" transform="translate(-79.55 -22.73)"><polygon class="cls-1" points="140.11 131.27 140.38 179.22 120.91 171.03 120.64 123.08 140.11 131.27"/></clipPath><clipPath id="clip-path-10" transform="translate(-79.55 -22.73)"><polygon class="cls-1" points="140.38 179.22 100.53 182.48 81.06 174.28 120.91 171.03 140.38 179.22"/></clipPath><clipPath id="clip-path-11" transform="translate(-79.55 -22.73)"><polygon class="cls-1" points="100.53 182.48 81.06 174.28 80.31 41.03 99.77 49.22 100.53 182.48"/></clipPath><clipPath id="clip-path-12" transform="translate(-79.55 -22.73)"><polygon class="cls-1" points="99.77 49.22 80.31 41.03 113.23 38.34 132.7 46.53 99.77 49.22"/></clipPath><clipPath id="clip-path-13" transform="translate(-79.55 -22.73)"><polygon class="cls-1" points="132.7 46.53 165.54 95.01 146.08 86.82 113.23 38.34 132.7 46.53"/></clipPath><clipPath id="clip-path-14" transform="translate(-79.55 -22.73)"><polygon class="cls-1" points="165.54 95.01 146.08 86.82 178.15 33.03 197.62 41.23 165.54 95.01"/></clipPath><clipPath id="clip-path-15" transform="translate(-79.55 -22.73)"><polygon class="cls-1" points="212.51 157.33 193.04 149.14 192.47 47.85 211.93 56.05 212.51 157.33"/></clipPath><clipPath id="clip-path-16" transform="translate(-79.55 -22.73)"><polygon class="cls-1" points="211.93 56.05 207.07 56.44 187.6 48.25 192.47 47.85 211.93 56.05"/></clipPath><clipPath id="clip-path-17" transform="translate(-79.55 -22.73)"><polygon class="cls-1" points="207.07 56.44 165.72 125.58 146.25 117.39 187.6 48.25 207.07 56.44"/></clipPath><clipPath id="clip-path-18" transform="translate(-79.55 -22.73)"><polygon class="cls-1" points="165.72 125.58 146.25 117.39 103.97 55.08 123.44 63.28 165.72 125.58"/></clipPath><clipPath id="clip-path-19" transform="translate(-79.55 -22.73)"><polygon class="cls-1" points="123.44 63.28 118.57 63.67 99.11 55.48 103.97 55.08 123.44 63.28"/></clipPath><clipPath id="clip-path-20" transform="translate(-79.55 -22.73)"><polygon class="cls-1" points="118.57 63.67 119.15 164.96 99.68 156.77 99.11 55.48 118.57 63.67"/></clipPath><clipPath id="clip-path-21" transform="translate(-79.55 -22.73)"><polygon class="cls-1" points="119.15 164.96 99.68 156.77 104.55 156.37 124.02 164.56 119.15 164.96"/></clipPath><clipPath id="clip-path-22" transform="translate(-79.55 -22.73)"><polygon class="cls-1" points="124.02 164.56 104.55 156.37 104.03 64.67 123.49 72.86 124.02 164.56"/></clipPath><clipPath id="clip-path-23" transform="translate(-79.55 -22.73)"><polygon class="cls-1" points="123.49 72.86 165.77 134.57 146.3 126.38 104.03 64.67 123.49 72.86"/></clipPath><clipPath id="clip-path-24" transform="translate(-79.55 -22.73)"><polygon class="cls-1" points="165.77 134.57 146.3 126.38 187.65 57.84 207.12 66.03 165.77 134.57"/></clipPath><clipPath id="clip-path-25" transform="translate(-79.55 -22.73)"><polygon class="cls-1" points="207.12 66.03 207.64 157.73 188.18 149.54 187.65 57.84 207.12 66.03"/></clipPath><clipPath id="clip-path-26" transform="translate(-79.55 -22.73)"><polygon class="cls-1" points="207.64 157.73 188.18 149.54 193.04 149.14 212.51 157.33 207.64 157.73"/></clipPath><clipPath id="clip-path-53" transform="translate(-79.55 -22.73)"><path class="cls-1" d="M184.48,24.3L219.19,23l-0.91,133.22-42,1.61,0.33-47.93-27.09,41-26.74-38.91-0.33,47.93-42,1.61L81.35,28.25l34.71-1.33,34,49.82ZM198.67,141l0.69-101.26-5.13.2L149.81,107.3l-43.72-64-5.13.2-0.69,101.26,5.13-.2L106,52.87l43.72,63.42,44.42-66.79-0.63,91.67,5.13-.2"/></clipPath><clipPath id="clip-path-54" transform="translate(-79.55 -22.73)"><path class="cls-1" d="M196.46,33.21l34.71-1.33L230.26,165.1l-42,1.61,0.33-47.93-27.09,41-26.74-38.91-0.33,47.93-42,1.61L93.33,37.16,128,35.83l34,49.82Zm14.19,116.67,0.69-101.26-5.13.2-44.43,67.39-43.72-64-5.13.2-0.69,101.26,5.13-.2L118,61.77l43.72,63.42L206.15,58.4l-0.63,91.67,5.13-.2"/></clipPath><clipPath id="clip-path-55" transform="translate(-79.55 -22.73)"><polygon class="cls-1" points="196.46 33.21 184.48 24.3 219.19 22.98 231.17 31.88 196.46 33.21"/></clipPath><clipPath id="clip-path-56" transform="translate(-79.55 -22.73)"><polygon class="cls-1" points="231.17 31.88 230.26 165.1 218.28 156.19 219.19 22.98 231.17 31.88"/></clipPath><clipPath id="clip-path-57" transform="translate(-79.55 -22.73)"><polygon class="cls-1" points="230.26 165.1 188.25 166.7 176.27 157.8 218.28 156.19 230.26 165.1"/></clipPath><clipPath id="clip-path-58" transform="translate(-79.55 -22.73)"><polygon class="cls-1" points="188.25 166.7 176.27 157.8 176.6 109.87 188.58 118.77 188.25 166.7"/></clipPath><clipPath id="clip-path-59" transform="translate(-79.55 -22.73)"><polygon class="cls-1" points="188.58 118.77 161.49 159.75 149.51 150.84 176.6 109.87 188.58 118.77"/></clipPath><clipPath id="clip-path-60" transform="translate(-79.55 -22.73)"><polygon class="cls-1" points="161.49 159.75 149.51 150.84 122.77 111.93 134.75 120.83 161.49 159.75"/></clipPath><clipPath id="clip-path-61" transform="translate(-79.55 -22.73)"><polygon class="cls-1" points="134.75 120.83 134.42 168.76 122.44 159.86 122.77 111.93 134.75 120.83"/></clipPath><clipPath id="clip-path-62" transform="translate(-79.55 -22.73)"><polygon class="cls-1" points="134.42 168.76 92.42 170.37 80.44 161.47 122.44 159.86 134.42 168.76"/></clipPath><clipPath id="clip-path-63" transform="translate(-79.55 -22.73)"><polygon class="cls-1" points="92.42 170.37 80.44 161.47 81.35 28.25 93.33 37.16 92.42 170.37"/></clipPath><clipPath id="clip-path-64" transform="translate(-79.55 -22.73)"><polygon class="cls-1" points="93.33 37.16 81.35 28.25 116.06 26.92 128.04 35.83 93.33 37.16"/></clipPath><clipPath id="clip-path-65" transform="translate(-79.55 -22.73)"><polygon class="cls-1" points="128.04 35.83 162 85.65 150.02 76.74 116.06 26.92 128.04 35.83"/></clipPath><clipPath id="clip-path-66" transform="translate(-79.55 -22.73)"><polygon class="cls-1" points="162 85.65 150.02 76.74 184.48 24.3 196.46 33.21 162 85.65"/></clipPath><clipPath id="clip-path-67" transform="translate(-79.55 -22.73)"><polygon class="cls-1" points="210.65 149.88 198.67 140.97 199.37 39.71 211.35 48.62 210.65 149.88"/></clipPath><clipPath id="clip-path-68" transform="translate(-79.55 -22.73)"><polygon class="cls-1" points="211.35 48.62 206.22 48.81 194.24 39.91 199.37 39.71 211.35 48.62"/></clipPath><clipPath id="clip-path-69" transform="translate(-79.55 -22.73)"><polygon class="cls-1" points="206.22 48.81 161.79 116.21 149.81 107.3 194.24 39.91 206.22 48.81"/></clipPath><clipPath id="clip-path-70" transform="translate(-79.55 -22.73)"><polygon class="cls-1" points="161.79 116.21 149.81 107.3 106.09 43.28 118.07 52.19 161.79 116.21"/></clipPath><clipPath id="clip-path-71" transform="translate(-79.55 -22.73)"><polygon class="cls-1" points="118.07 52.19 112.94 52.38 100.96 43.48 106.09 43.28 118.07 52.19"/></clipPath><clipPath id="clip-path-72" transform="translate(-79.55 -22.73)"><polygon class="cls-1" points="112.94 52.38 112.25 153.64 100.27 144.74 100.96 43.48 112.94 52.38"/></clipPath><clipPath id="clip-path-73" transform="translate(-79.55 -22.73)"><polygon class="cls-1" points="112.25 153.64 100.27 144.74 105.4 144.54 117.38 153.45 112.25 153.64"/></clipPath><clipPath id="clip-path-74" transform="translate(-79.55 -22.73)"><polygon class="cls-1" points="117.38 153.45 105.4 144.54 106.03 52.87 118.01 61.77 117.38 153.45"/></clipPath><clipPath id="clip-path-75" transform="translate(-79.55 -22.73)"><polygon class="cls-1" points="118.01 61.77 161.73 125.19 149.75 116.28 106.03 52.87 118.01 61.77"/></clipPath><clipPath id="clip-path-76" transform="translate(-79.55 -22.73)"><polygon class="cls-1" points="161.73 125.19 149.75 116.28 194.17 49.49 206.15 58.4 161.73 125.19"/></clipPath><clipPath id="clip-path-77" transform="translate(-79.55 -22.73)"><polygon class="cls-1" points="206.15 58.4 205.53 150.07 193.54 141.17 194.17 49.49 206.15 58.4"/></clipPath><clipPath id="clip-path-78" transform="translate(-79.55 -22.73)"><polygon class="cls-1" points="205.53 150.07 193.54 141.17 198.67 140.97 210.65 149.88 205.53 150.07"/></clipPath></defs><title>MashM</title><g id="Emm"><g class="cls-2"><g class="cls-2"><g class="cls-3"><path class="cls-4" d="M178.15,33l32.93-2.69,0.76,133.26L172,166.86l-0.27-48-25.21,42-25.86-37.87,0.27,48-39.85,3.26L80.31,41l32.93-2.69,32.85,48.48ZM193,149.14L192.46,47.85l-4.87.4-41.35,69.14L104,55.08l-4.87.4,0.58,101.29,4.87-.4L104,64.67l42.28,61.71,41.35-68.55,0.52,91.7,4.87-.4" transform="translate(-79.55 -22.73)"/></g></g><g class="cls-2"><g class="cls-5"><path class="cls-4" d="M197.62,41.23l32.93-2.69,0.76,133.26L191.45,175l-0.27-48-25.21,42-25.86-37.87,0.27,48-39.85,3.26L99.77,49.22l32.93-2.69L165.54,95Zm14.89,116.11L211.93,56l-4.87.4-41.35,69.14L123.44,63.28l-4.87.4L119.15,165l4.87-.4-0.52-91.7,42.28,61.71L207.12,66l0.52,91.7,4.87-.4" transform="translate(-79.55 -22.73)"/></g></g><g class="cls-2"><g class="cls-6"><polygon class="cls-4" points="118.07 18.5 98.6 10.31 131.53 7.62 150.99 15.81 118.07 18.5"/></g></g><g class="cls-2"><g class="cls-7"><polygon class="cls-4" points="150.99 15.81 151.75 149.07 132.29 140.87 131.53 7.62 150.99 15.81"/></g></g><g class="cls-2"><g class="cls-8"><polygon class="cls-4" points="151.75 149.07 111.9 152.32 92.44 144.13 132.29 140.87 151.75 149.07"/></g></g><g class="cls-2"><g class="cls-9"><polygon class="cls-4" points="111.9 152.32 92.44 144.13 92.16 96.17 111.63 104.37 111.9 152.32"/></g></g><g class="cls-2"><g class="cls-10"><polygon class="cls-4" points="111.63 104.37 86.42 146.41 66.95 138.21 92.16 96.17 111.63 104.37"/></g></g><g class="cls-2"><g class="cls-11"><polygon class="cls-4" points="86.42 146.41 66.95 138.21 41.09 100.35 60.56 108.54 86.42 146.41"/></g></g><g class="cls-2"><g class="cls-12"><polygon class="cls-4" points="60.56 108.54 60.83 156.5 41.37 148.3 41.09 100.35 60.56 108.54"/></g></g><g class="cls-2"><g class="cls-13"><polygon class="cls-4" points="60.83 156.5 20.98 159.75 1.52 151.56 41.37 148.3 60.83 156.5"/></g></g><g class="cls-2"><g class="cls-14"><polygon class="cls-4" points="20.98 159.75 1.52 151.56 0.76 18.3 20.22 26.5 20.98 159.75"/></g></g><g class="cls-2"><g class="cls-15"><polygon class="cls-4" points="20.22 26.5 0.76 18.3 33.68 15.61 53.15 23.81 20.22 26.5"/></g></g><g class="cls-2"><g class="cls-16"><polygon class="cls-4" points="53.15 23.81 86 72.29 66.53 64.09 33.68 15.61 53.15 23.81"/></g></g><g class="cls-2"><g class="cls-17"><polygon class="cls-4" points="86 72.29 66.53 64.09 98.6 10.31 118.07 18.5 86 72.29"/></g></g><g class="cls-2"><g class="cls-18"><polygon class="cls-4" points="132.96 134.61 113.49 126.41 112.92 25.12 132.38 33.32 132.96 134.61"/></g></g><g class="cls-2"><g class="cls-19"><polygon class="cls-4" points="132.38 33.32 127.52 33.72 108.05 25.52 112.92 25.12 132.38 33.32"/></g></g><g class="cls-2"><g class="cls-20"><polygon class="cls-4" points="127.52 33.72 86.17 102.85 66.7 94.66 108.05 25.52 127.52 33.72"/></g></g><g class="cls-2"><g class="cls-21"><polygon class="cls-4" points="86.17 102.85 66.7 94.66 24.42 32.35 43.89 40.55 86.17 102.85"/></g></g><g class="cls-2"><g class="cls-22"><polygon class="cls-4" points="43.89 40.55 39.02 40.95 19.56 32.75 24.42 32.35 43.89 40.55"/></g></g><g class="cls-2"><g class="cls-23"><polygon class="cls-4" points="39.02 40.95 39.6 142.24 20.14 134.04 19.56 32.75 39.02 40.95"/></g></g><g class="cls-2"><g class="cls-24"><polygon class="cls-4" points="39.6 142.24 20.14 134.04 25 133.64 44.47 141.84 39.6 142.24"/></g></g><g class="cls-2"><g class="cls-25"><polygon class="cls-4" points="44.47 141.84 25 133.64 24.48 41.94 43.95 50.13 44.47 141.84"/></g></g><g class="cls-2"><g class="cls-26"><polygon class="cls-4" points="43.95 50.13 86.22 111.85 66.75 103.65 24.48 41.94 43.95 50.13"/></g></g><g class="cls-2"><g class="cls-27"><polygon class="cls-4" points="86.22 111.85 66.75 103.65 108.11 35.11 127.57 43.3 86.22 111.85"/></g></g><g class="cls-2"><g class="cls-28"><polygon class="cls-4" points="127.57 43.3 128.09 135 108.63 126.81 108.11 35.11 127.57 43.3"/></g></g><g class="cls-2"><g class="cls-29"><polygon class="cls-4" points="128.09 135 108.63 126.81 113.49 126.41 132.96 134.61 128.09 135"/></g></g></g><g class="cls-30"><g class="cls-3"><path class="cls-31" d="M178.15,33l32.93-2.69,0.76,133.26L172,166.86l-0.27-48-25.21,42-25.86-37.87,0.27,48-39.85,3.26L80.31,41l32.93-2.69,32.85,48.48ZM193,149.14L192.46,47.85l-4.87.4-41.35,69.14L104,55.08l-4.87.4,0.58,101.29,4.87-.4L104,64.67l42.28,61.71,41.35-68.55,0.52,91.7,4.87-.4" transform="translate(-79.55 -22.73)"/></g><g class="cls-5"><path class="cls-31" d="M197.62,41.23l32.93-2.69,0.76,133.26L191.45,175l-0.27-48-25.21,42-25.86-37.87,0.27,48-39.85,3.26L99.77,49.22l32.93-2.69L165.54,95Zm14.89,116.11L211.93,56l-4.87.4-41.35,69.14L123.44,63.28l-4.87.4L119.15,165l4.87-.4-0.52-91.7,42.28,61.71L207.12,66l0.52,91.7,4.87-.4" transform="translate(-79.55 -22.73)"/></g><g class="cls-6"><polygon class="cls-31" points="118.07 18.5 98.6 10.31 131.53 7.62 150.99 15.81 118.07 18.5"/></g><g class="cls-7"><polygon class="cls-31" points="150.99 15.81 151.75 149.07 132.29 140.87 131.53 7.62 150.99 15.81"/></g><g class="cls-8"><polygon class="cls-31" points="151.75 149.07 111.9 152.32 92.44 144.13 132.29 140.87 151.75 149.07"/></g><g class="cls-9"><polygon class="cls-31" points="111.9 152.32 92.44 144.13 92.16 96.17 111.63 104.37 111.9 152.32"/></g><g class="cls-10"><polygon class="cls-31" points="111.63 104.37 86.42 146.41 66.95 138.21 92.16 96.17 111.63 104.37"/></g><g class="cls-11"><polygon class="cls-31" points="86.42 146.41 66.95 138.21 41.09 100.35 60.56 108.54 86.42 146.41"/></g><g class="cls-12"><polygon class="cls-31" points="60.56 108.54 60.83 156.5 41.37 148.3 41.09 100.35 60.56 108.54"/></g><g class="cls-13"><polygon class="cls-31" points="60.83 156.5 20.98 159.75 1.52 151.56 41.37 148.3 60.83 156.5"/></g><g class="cls-14"><polygon class="cls-31" points="20.98 159.75 1.52 151.56 0.76 18.3 20.22 26.5 20.98 159.75"/></g><g class="cls-15"><polygon class="cls-31" points="20.22 26.5 0.76 18.3 33.68 15.61 53.15 23.81 20.22 26.5"/></g><g class="cls-16"><polygon class="cls-31" points="53.15 23.81 86 72.29 66.53 64.09 33.68 15.61 53.15 23.81"/></g><g class="cls-17"><polygon class="cls-31" points="86 72.29 66.53 64.09 98.6 10.31 118.07 18.5 86 72.29"/></g><g class="cls-18"><polygon class="cls-31" points="132.96 134.61 113.49 126.41 112.92 25.12 132.38 33.32 132.96 134.61"/></g><g class="cls-19"><polygon class="cls-31" points="132.38 33.32 127.52 33.72 108.05 25.52 112.92 25.12 132.38 33.32"/></g><g class="cls-20"><polygon class="cls-31" points="127.52 33.72 86.17 102.85 66.7 94.66 108.05 25.52 127.52 33.72"/></g><g class="cls-21"><polygon class="cls-31" points="86.17 102.85 66.7 94.66 24.42 32.35 43.89 40.55 86.17 102.85"/></g><g class="cls-22"><polygon class="cls-31" points="43.89 40.55 39.02 40.95 19.56 32.75 24.42 32.35 43.89 40.55"/></g><g class="cls-23"><polygon class="cls-31" points="39.02 40.95 39.6 142.24 20.14 134.04 19.56 32.75 39.02 40.95"/></g><g class="cls-24"><polygon class="cls-31" points="39.6 142.24 20.14 134.04 25 133.64 44.47 141.84 39.6 142.24"/></g><g class="cls-25"><polygon class="cls-31" points="44.47 141.84 25 133.64 24.48 41.94 43.95 50.13 44.47 141.84"/></g><g class="cls-26"><polygon class="cls-31" points="43.95 50.13 86.22 111.85 66.75 103.65 24.48 41.94 43.95 50.13"/></g><g class="cls-27"><polygon class="cls-31" points="86.22 111.85 66.75 103.65 108.11 35.11 127.57 43.3 86.22 111.85"/></g><g class="cls-28"><polygon class="cls-31" points="127.57 43.3 128.09 135 108.63 126.81 108.11 35.11 127.57 43.3"/></g><g class="cls-29"><polygon class="cls-31" points="128.09 135 108.63 126.81 113.49 126.41 132.96 134.61 128.09 135"/></g></g></g><g id="Emm-2" data-name="Emm"><g class="cls-2"><g class="cls-2"><g class="cls-32"><path class="cls-4" d="M184.48,24.3L219.19,23l-0.91,133.22-42,1.61,0.33-47.93-27.09,41-26.74-38.91-0.33,47.93-42,1.61L81.35,28.25l34.71-1.33,34,49.82ZM198.67,141l0.69-101.26-5.13.2L149.81,107.3l-43.72-64-5.13.2-0.69,101.26,5.13-.2L106,52.87l43.72,63.42,44.42-66.79-0.63,91.67,5.13-.2" transform="translate(-79.55 -22.73)"/></g></g><g class="cls-2"><g class="cls-33"><path class="cls-4" d="M196.46,33.21l34.71-1.33L230.26,165.1l-42,1.61,0.33-47.93-27.09,41-26.74-38.91-0.33,47.93-42,1.61L93.33,37.16,128,35.83l34,49.82Zm14.19,116.67,0.69-101.26-5.13.2-44.43,67.39-43.72-64-5.13.2-0.69,101.26,5.13-.2L118,61.77l43.72,63.42L206.15,58.4l-0.63,91.67,5.13-.2" transform="translate(-79.55 -22.73)"/></g></g><g class="cls-2"><g class="cls-34"><polygon class="cls-4" points="116.91 10.48 104.93 1.58 139.64 0.25 151.62 9.15 116.91 10.48"/></g></g><g class="cls-2"><g class="cls-35"><polygon class="cls-4" points="151.62 9.15 150.71 142.37 138.73 133.46 139.64 0.25 151.62 9.15"/></g></g><g class="cls-2"><g class="cls-36"><polygon class="cls-4" points="150.71 142.37 108.71 143.98 96.72 135.07 138.73 133.46 150.71 142.37"/></g></g><g class="cls-2"><g class="cls-37"><polygon class="cls-4" points="108.71 143.98 96.72 135.07 97.05 87.14 109.03 96.05 108.71 143.98"/></g></g><g class="cls-2"><g class="cls-38"><polygon class="cls-4" points="109.03 96.05 81.94 137.02 69.96 128.11 97.05 87.14 109.03 96.05"/></g></g><g class="cls-2"><g class="cls-39"><polygon class="cls-4" points="81.94 137.02 69.96 128.11 43.22 89.2 55.2 98.11 81.94 137.02"/></g></g><g class="cls-2"><g class="cls-40"><polygon class="cls-4" points="55.2 98.11 54.87 146.04 42.89 137.13 43.22 89.2 55.2 98.11"/></g></g><g class="cls-2"><g class="cls-41"><polygon class="cls-4" points="54.87 146.04 12.87 147.64 0.89 138.74 42.89 137.13 54.87 146.04"/></g></g><g class="cls-2"><g class="cls-42"><polygon class="cls-4" points="12.87 147.64 0.89 138.74 1.8 5.52 13.78 14.43 12.87 147.64"/></g></g><g class="cls-2"><g class="cls-43"><polygon class="cls-4" points="13.78 14.43 1.8 5.52 36.51 4.19 48.49 13.1 13.78 14.43"/></g></g><g class="cls-2"><g class="cls-44"><polygon class="cls-4" points="48.49 13.1 82.45 62.92 70.47 54.02 36.51 4.19 48.49 13.1"/></g></g><g class="cls-2"><g class="cls-45"><polygon class="cls-4" points="82.45 62.92 70.47 54.02 104.93 1.58 116.91 10.48 82.45 62.92"/></g></g><g class="cls-2"><g class="cls-46"><polygon class="cls-4" points="131.1 127.15 119.12 118.24 119.82 16.98 131.8 25.89 131.1 127.15"/></g></g><g class="cls-2"><g class="cls-47"><polygon class="cls-4" points="131.8 25.89 126.67 26.09 114.69 17.18 119.82 16.98 131.8 25.89"/></g></g><g class="cls-2"><g class="cls-48"><polygon class="cls-4" points="126.67 26.09 82.24 93.48 70.26 84.57 114.69 17.18 126.67 26.09"/></g></g><g class="cls-2"><g class="cls-49"><polygon class="cls-4" points="82.24 93.48 70.26 84.57 26.54 20.55 38.52 29.46 82.24 93.48"/></g></g><g class="cls-2"><g class="cls-50"><polygon class="cls-4" points="38.52 29.46 33.39 29.66 21.41 20.75 26.54 20.55 38.52 29.46"/></g></g><g class="cls-2"><g class="cls-51"><polygon class="cls-4" points="33.39 29.66 32.7 130.91 20.72 122.01 21.41 20.75 33.39 29.66"/></g></g><g class="cls-2"><g class="cls-52"><polygon class="cls-4" points="32.7 130.91 20.72 122.01 25.85 121.81 37.83 130.72 32.7 130.91"/></g></g><g class="cls-2"><g class="cls-53"><polygon class="cls-4" points="37.83 130.72 25.85 121.81 26.48 30.14 38.46 39.04 37.83 130.72"/></g></g><g class="cls-2"><g class="cls-54"><polygon class="cls-4" points="38.46 39.04 82.18 102.46 70.2 93.56 26.48 30.14 38.46 39.04"/></g></g><g class="cls-2"><g class="cls-55"><polygon class="cls-4" points="82.18 102.46 70.2 93.56 114.62 26.77 126.6 35.67 82.18 102.46"/></g></g><g class="cls-2"><g class="cls-56"><polygon class="cls-4" points="126.6 35.67 125.98 127.35 114 118.44 114.62 26.77 126.6 35.67"/></g></g><g class="cls-2"><g class="cls-57"><polygon class="cls-4" points="125.98 127.35 114 118.44 119.12 118.24 131.1 127.15 125.98 127.35"/></g></g></g><g class="cls-32"><path class="cls-58" d="M184.48,24.3L219.19,23l-0.91,133.22-42,1.61,0.33-47.93-27.09,41-26.74-38.91-0.33,47.93-42,1.61L81.35,28.25l34.71-1.33,34,49.82ZM198.67,141l0.69-101.26-5.13.2L149.81,107.3l-43.72-64-5.13.2-0.69,101.26,5.13-.2L106,52.87l43.72,63.42,44.42-66.79-0.63,91.67,5.13-.2" transform="translate(-79.55 -22.73)"/></g><g class="cls-33"><path class="cls-58" d="M196.46,33.21l34.71-1.33L230.26,165.1l-42,1.61,0.33-47.93-27.09,41-26.74-38.91-0.33,47.93-42,1.61L93.33,37.16,128,35.83l34,49.82Zm14.19,116.67,0.69-101.26-5.13.2-44.43,67.39-43.72-64-5.13.2-0.69,101.26,5.13-.2L118,61.77l43.72,63.42L206.15,58.4l-0.63,91.67,5.13-.2" transform="translate(-79.55 -22.73)"/></g><g class="cls-34"><polygon class="cls-58" points="116.91 10.48 104.93 1.58 139.64 0.25 151.62 9.15 116.91 10.48"/></g><g class="cls-35"><polygon class="cls-58" points="151.62 9.15 150.71 142.37 138.73 133.46 139.64 0.25 151.62 9.15"/></g><g class="cls-36"><polygon class="cls-58" points="150.71 142.37 108.71 143.98 96.72 135.07 138.73 133.46 150.71 142.37"/></g><g class="cls-37"><polygon class="cls-58" points="108.71 143.98 96.72 135.07 97.05 87.14 109.03 96.05 108.71 143.98"/></g><g class="cls-38"><polygon class="cls-58" points="109.03 96.05 81.94 137.02 69.96 128.11 97.05 87.14 109.03 96.05"/></g><g class="cls-39"><polygon class="cls-58" points="81.94 137.02 69.96 128.11 43.22 89.2 55.2 98.11 81.94 137.02"/></g><g class="cls-40"><polygon class="cls-58" points="55.2 98.11 54.87 146.04 42.89 137.13 43.22 89.2 55.2 98.11"/></g><g class="cls-41"><polygon class="cls-58" points="54.87 146.04 12.87 147.64 0.89 138.74 42.89 137.13 54.87 146.04"/></g><g class="cls-42"><polygon class="cls-58" points="12.87 147.64 0.89 138.74 1.8 5.52 13.78 14.43 12.87 147.64"/></g><g class="cls-43"><polygon class="cls-58" points="13.78 14.43 1.8 5.52 36.51 4.19 48.49 13.1 13.78 14.43"/></g><g class="cls-44"><polygon class="cls-58" points="48.49 13.1 82.45 62.92 70.47 54.02 36.51 4.19 48.49 13.1"/></g><g class="cls-45"><polygon class="cls-58" points="82.45 62.92 70.47 54.02 104.93 1.58 116.91 10.48 82.45 62.92"/></g><g class="cls-46"><polygon class="cls-58" points="131.1 127.15 119.12 118.24 119.82 16.98 131.8 25.89 131.1 127.15"/></g><g class="cls-47"><polygon class="cls-58" points="131.8 25.89 126.67 26.09 114.69 17.18 119.82 16.98 131.8 25.89"/></g><g class="cls-48"><polygon class="cls-58" points="126.67 26.09 82.24 93.48 70.26 84.57 114.69 17.18 126.67 26.09"/></g><g class="cls-49"><polygon class="cls-58" points="82.24 93.48 70.26 84.57 26.54 20.55 38.52 29.46 82.24 93.48"/></g><g class="cls-50"><polygon class="cls-58" points="38.52 29.46 33.39 29.66 21.41 20.75 26.54 20.55 38.52 29.46"/></g><g class="cls-51"><polygon class="cls-58" points="33.39 29.66 32.7 130.91 20.72 122.01 21.41 20.75 33.39 29.66"/></g><g class="cls-52"><polygon class="cls-58" points="32.7 130.91 20.72 122.01 25.85 121.81 37.83 130.72 32.7 130.91"/></g><g class="cls-53"><polygon class="cls-58" points="37.83 130.72 25.85 121.81 26.48 30.14 38.46 39.04 37.83 130.72"/></g><g class="cls-54"><polygon class="cls-58" points="38.46 39.04 82.18 102.46 70.2 93.56 26.48 30.14 38.46 39.04"/></g><g class="cls-55"><polygon class="cls-58" points="82.18 102.46 70.2 93.56 114.62 26.77 126.6 35.67 82.18 102.46"/></g><g class="cls-56"><polygon class="cls-58" points="126.6 35.67 125.98 127.35 114 118.44 114.62 26.77 126.6 35.67"/></g><g class="cls-57"><polygon class="cls-58" points="125.98 127.35 114 118.44 119.12 118.24 131.1 127.15 125.98 127.35"/></g></g></svg>