<svg id="Layer_1" data-name="Layer 1" xmlns="http://www.w3.org/2000/svg" xmlns:xlink="http://www.w3.org/1999/xlink" viewBox="0 0 471.63 400.47"><defs><style>.cls-1{fill:none;}.cls-2{fill:#aee7f8;}.cls-3{fill:#b6c8ca;}.cls-4{fill:#e7e7e7;}.cls-5{fill:#174f78;}.cls-6{fill:#ccc;}.cls-7{fill:#f28f1d;}.cls-8{fill:#dd3f18;}.cls-9{fill:#fff;}.cls-10{fill:#5e605f;}.cls-11{fill:#d4dcdd;}.cls-12{fill:#383838;}.cls-13{fill:#ededed;}.cls-14{fill:#4c5557;}.cls-15{fill:#ffaf39;}.cls-16{fill:#e94150;}.cls-17{fill:#6a696e;}.cls-18{fill:#1bb687;}.cls-19{fill:#0a5382;}.cls-20{fill:#c5c7c4;}.cls-21{fill:#353537;}.cls-22{fill:#c3c3c5;}.cls-23{fill:#3dbdc4;}.cls-24{fill:#ffbf61;}.cls-25{fill:#6dbe45;}.cls-26{fill:#f04a57;}.cls-27{fill:#fffffd;}.cls-28{fill:#035786;}.cls-29{fill:#f04b58;}.cls-30{fill:#e3e8e9;}.cls-31{fill:#ffd7a3;}.cls-32{fill:#fdc88e;}.cls-33{fill:#ffe1b2;}.cls-34{fill:#a2cde2;}.cls-35{clip-path:url(#clip-path);}.cls-36{fill:#545465;}.cls-37{fill:#29394a;}.cls-38{fill:#b5e0f0;}.cls-39{fill:#4a698e;}.cls-40{fill:#416185;}.cls-41{fill:#395a7f;}.cls-42{fill:#ff7513;}.cls-43{fill:#d94801;}.cls-44{fill:#223b56;}.cls-45{fill:#ffda44;}.cls-46{fill:#fbb02f;}.cls-47{fill:#f15a2b;}.cls-48{fill:#ffcc75;}.cls-49{fill:#274b6d;}.cls-50{fill:#f2484b;}.cls-51{fill:#6da8d6;}.cls-52{fill:#f2ebd9;}.cls-53{fill:#082947;}.cls-54{fill:#185f8d;}.cls-55{fill:#9c0;}</style><clipPath id="clip-path" transform="translate(-54.9 -13.54)"><rect class="cls-1" x="463.27" y="21.41" width="29.92" height="36.91"/></clipPath></defs><title>software-development</title><path class="cls-2" d="M488.21,228.93A183.87,183.87,0,0,1,304.35,412.8c-101.55,0-183.87-82.32-183.87-183.87A183.87,183.87,0,0,1,304.35,45.06c101.55,0,183.87,82.32,183.87,183.87" transform="translate(-54.9 -13.54)"/><path class="cls-3" d="M266.51,348.48q-4.83,19.73-9.65,39.46h90.09l-9.65-39.46H266.51Z" transform="translate(-54.9 -13.54)"/><path class="cls-4" d="M352.51,387.25H251.29c-2.57,0-4.66,2.44-4.66,5.47v2.05H357.17v-2.05c0-3-2.08-5.47-4.66-5.47" transform="translate(-54.9 -13.54)"/><path class="cls-4" d="M149.69,333.12v21.75a7.57,7.57,0,0,0,7.58,7.58H446.53a7.58,7.58,0,0,0,7.58-7.58V333.12H149.69Z" transform="translate(-54.9 -13.54)"/><path class="cls-5" d="M454.11,333.12V149a7.58,7.58,0,0,0-7.58-7.58H157.26a7.57,7.57,0,0,0-7.58,7.58V333.12H454.11Z" transform="translate(-54.9 -13.54)"/><rect class="cls-6" x="107.26" y="139.69" width="279.49" height="167.32"/><rect class="cls-7" x="99.67" y="264.94" width="12" height="16"/><rect class="cls-7" x="123.68" y="250.53" width="12" height="30.41"/><path class="cls-8" d="M148.75,275.47a5,5,0,1,1-5-5,5,5,0,0,1,5,5" transform="translate(-54.9 -13.54)"/><path class="cls-5" d="M186.34,261.46H94.14a6.72,6.72,0,0,0-6.72,6.72V389.56a6.72,6.72,0,0,0,6.72,6.71h92.2a6.72,6.72,0,0,0,6.72-6.71V268.18a6.72,6.72,0,0,0-6.72-6.72" transform="translate(-54.9 -13.54)"/><path class="cls-9" d="M140.24,392.85a2.7,2.7,0,1,1,2.7-2.7,2.7,2.7,0,0,1-2.7,2.7" transform="translate(-54.9 -13.54)"/><rect class="cls-9" x="44.51" y="260.95" width="81.66" height="108.76"/><path class="cls-10" d="M497.9,405a9,9,0,0,1-9,9H63.9a9,9,0,0,1-9-9h0a9,9,0,0,1,9-9h425a9,9,0,0,1,9,9h0Z" transform="translate(-54.9 -13.54)"/><path class="cls-5" d="M458.13,300.14H412.66c-3.07,0-5.56,2.13-5.56,4.76v85.78c0,2.63,2.49,4.76,5.56,4.76h45.47c3.07,0,5.56-2.13,5.56-4.76V304.89c0-2.63-2.49-4.76-5.56-4.76" transform="translate(-54.9 -13.54)"/><path class="cls-11" d="M441.77,308.24a0.55,0.55,0,0,1-.59.51H429a0.51,0.51,0,1,1,0-1h12.15a0.55,0.55,0,0,1,.59.51" transform="translate(-54.9 -13.54)"/><path class="cls-12" d="M441.77,386.24a0.55,0.55,0,0,1-.59.51H429a0.51,0.51,0,1,1,0-1h12.15a0.55,0.55,0,0,1,.59.51" transform="translate(-54.9 -13.54)"/><path class="cls-13" d="M433.46,305a1.72,1.72,0,1,1,1.7,1.46,1.59,1.59,0,0,1-1.7-1.46" transform="translate(-54.9 -13.54)"/><path class="cls-14" d="M425.11,308.3a0.78,0.78,0,1,1,.77.66,0.72,0.72,0,0,1-.77-0.66" transform="translate(-54.9 -13.54)"/><rect class="cls-9" x="356.05" y="298.76" width="48.59" height="70.21"/><path class="cls-15" d="M426.06,326.84a1.57,1.57,0,0,1-1.67,1.43h-7a1.56,1.56,0,0,1-1.67-1.43v-6a1.56,1.56,0,0,1,1.67-1.43h7a1.57,1.57,0,0,1,1.67,1.43v6Z" transform="translate(-54.9 -13.54)"/><path class="cls-9" d="M416.74,323.77a4,4,0,1,1,3.93,3.36,3.68,3.68,0,0,1-3.93-3.36" transform="translate(-54.9 -13.54)"/><path class="cls-16" d="M420.34,323.77a0.33,0.33,0,1,1,.33.28,0.31,0.31,0,0,1-.33-0.28" transform="translate(-54.9 -13.54)"/><rect class="cls-17" x="365.54" y="307.13" width="0.59" height="1.27"/><polygon class="cls-17" points="364.86 308.51 364.6 308.64 363.91 307.63 364.17 307.5 364.86 308.51"/><polygon class="cls-17" points="363.97 309.13 363.82 309.35 362.63 308.77 362.79 308.54 363.97 309.13"/><rect class="cls-17" x="361.68" y="310.17" width="2.08" height="0.25"/><polygon class="cls-17" points="363.74 311.01 363.89 311.24 362.71 311.82 362.55 311.6 363.74 311.01"/><polygon class="cls-17" points="364.46 311.77 364.73 311.9 364.04 312.92 363.78 312.79 364.46 311.77"/><rect class="cls-17" x="365.54" y="311.94" width="0.3" height="1.52"/><polygon class="cls-17" points="366.67 311.97 366.93 311.84 367.61 312.85 367.35 312.98 366.67 311.97"/><polygon class="cls-17" points="367.56 311.35 367.71 311.13 368.9 311.71 368.74 311.94 367.56 311.35"/><rect class="cls-17" x="367.61" y="310.17" width="1.78" height="0.5"/><polygon class="cls-17" points="367.79 309.46 367.63 309.24 368.82 308.65 368.97 308.88 367.79 309.46"/><polygon class="cls-17" points="367.06 308.7 366.8 308.57 367.48 307.56 367.75 307.69 367.06 308.7"/><polygon class="cls-16" points="368.1 308.94 368.32 309.28 365.78 310.46 365.56 310.11 368.1 308.94"/><polygon class="cls-16" points="366.08 310.25 365.9 310.49 363.45 309.19 363.63 308.94 366.08 310.25"/><path class="cls-18" d="M426.06,350.53a1.62,1.62,0,0,1-1.82,1.31h-6.93a1.43,1.43,0,0,1-1.62-1.31V344.6a1.48,1.48,0,0,1,1.63-1.38h6.93a1.67,1.67,0,0,1,1.82,1.38v5.93Z" transform="translate(-54.9 -13.54)"/><path class="cls-19" d="M423,346.29c0,1.07-2.21,4.39-2.21,4.39s-2.32-3.27-2.33-4.35a2.3,2.3,0,0,1,4.55,0" transform="translate(-54.9 -13.54)"/><path class="cls-9" d="M419.51,346.33a1.26,1.26,0,1,1,1.26,1,1.17,1.17,0,0,1-1.26-1" transform="translate(-54.9 -13.54)"/><path class="cls-18" d="M454.51,338.61a1.55,1.55,0,0,1-1.74,1.32h-6.93a1.51,1.51,0,0,1-1.7-1.32v-5.93a1.55,1.55,0,0,1,1.7-1.37h6.93a1.59,1.59,0,0,1,1.74,1.37v5.93Z" transform="translate(-54.9 -13.54)"/><path class="cls-9" d="M452.79,335.3c0,1.48-1.54,2.68-3.45,2.68a4,4,0,0,1-2.28-.67,2.47,2.47,0,0,1-1.17-2c0-1.48,1.55-2.68,3.45-2.68s3.45,1.2,3.45,2.68" transform="translate(-54.9 -13.54)"/><path class="cls-9" d="M447.57,336.43s-0.71,1.77-1.68,1.92,2.76,0.07,3.3-1.13" transform="translate(-54.9 -13.54)"/><path class="cls-20" d="M440.29,326.84a1.57,1.57,0,0,1-1.68,1.43h-7a1.57,1.57,0,0,1-1.67-1.43v-6a1.57,1.57,0,0,1,1.67-1.43h7a1.57,1.57,0,0,1,1.68,1.43v6Z" transform="translate(-54.9 -13.54)"/><path class="cls-21" d="M438.8,325.2a1.14,1.14,0,0,1-1.22,1h-4.67a1.14,1.14,0,0,1-1.22-1v-2.73a1.14,1.14,0,0,1,1.22-1h4.67a1.14,1.14,0,0,1,1.22,1v2.73Z" transform="translate(-54.9 -13.54)"/><path class="cls-22" d="M433.52,323.77a1.54,1.54,0,1,1,1.52,1.3,1.43,1.43,0,0,1-1.52-1.3" transform="translate(-54.9 -13.54)"/><path class="cls-17" d="M434,323.77a1.06,1.06,0,1,1,1.05.9,1,1,0,0,1-1.05-.9" transform="translate(-54.9 -13.54)"/><rect class="cls-21" x="377.39" y="307.13" width="1.19" height="1.27"/><path class="cls-16" d="M425.77,338.78a1.53,1.53,0,0,1-1.63,1.4h-6.81a1.53,1.53,0,0,1-1.63-1.4V333a1.53,1.53,0,0,1,1.63-1.4h6.81a1.53,1.53,0,0,1,1.63,1.4v5.82Z" transform="translate(-54.9 -13.54)"/><path class="cls-16" d="M454.21,326.36a1.53,1.53,0,0,1-1.64,1.4h-6.81a1.53,1.53,0,0,1-1.63-1.4v-5.82a1.53,1.53,0,0,1,1.63-1.4h6.81a1.53,1.53,0,0,1,1.64,1.4v5.82Z" transform="translate(-54.9 -13.54)"/><path class="cls-9" d="M423.13,333.28l-3.88,0v3a1.42,1.42,0,0,0-1.09.23,0.9,0.9,0,0,0-.32,1.37,1.33,1.33,0,0,0,1.65,0,1.08,1.08,0,0,0,.52-1l0.06-3.17h2.14v2.53a1.29,1.29,0,0,0-1.07.22,0.9,0.9,0,0,0-.29,1.37,1.36,1.36,0,0,0,1.66,0,1.08,1.08,0,0,0,.49-0.78Z" transform="translate(-54.9 -13.54)"/><path class="cls-9" d="M451.57,321.88l-3.88,0v3a1.42,1.42,0,0,0-1.09.23,0.9,0.9,0,0,0-.32,1.37,1.33,1.33,0,0,0,1.65,0,1.07,1.07,0,0,0,.52-1l0.06-3.17h2.14V325a1.28,1.28,0,0,0-1.07.22,0.9,0.9,0,0,0-.29,1.37,1.35,1.35,0,0,0,1.67,0,1.08,1.08,0,0,0,.49-0.78Z" transform="translate(-54.9 -13.54)"/><path class="cls-23" d="M440,338.76a1.55,1.55,0,0,1-1.66,1.42h-6.76a1.55,1.55,0,0,1-1.65-1.42V333a1.55,1.55,0,0,1,1.65-1.42h6.76A1.55,1.55,0,0,1,440,333v5.79Z" transform="translate(-54.9 -13.54)"/><path class="cls-24" d="M436.69,335.17a2.46,2.46,0,1,1-2.43-2.08,2.27,2.27,0,0,1,2.43,2.08" transform="translate(-54.9 -13.54)"/><path class="cls-9" d="M438.72,338.2a0.8,0.8,0,0,0,.38-0.6,0.92,0.92,0,0,0-.92-0.91h-0.27a0.51,0.51,0,0,0,0-.25,0.94,0.94,0,0,0-.27-0.48,1.26,1.26,0,0,0-.79-0.34,1.35,1.35,0,0,0-.4,0,1.12,1.12,0,0,0-1.1-1,1.18,1.18,0,0,0-1.29.95,0.85,0.85,0,0,0,0,.29l-0.24,0a1.22,1.22,0,0,0-1.33,1,0.79,0.79,0,0,0,0,.16,2.4,2.4,0,0,0-.51.17,0.61,0.61,0,0,0-.23,1h7Z" transform="translate(-54.9 -13.54)"/><path class="cls-15" d="M440,350.68a1.55,1.55,0,0,1-1.66,1.42h-6.76a1.55,1.55,0,0,1-1.65-1.42v-5.78a1.55,1.55,0,0,1,1.65-1.42h6.76a1.55,1.55,0,0,1,1.66,1.42v5.78Z" transform="translate(-54.9 -13.54)"/><path class="cls-17" d="M435.84,350.59a0.53,0.53,0,0,1-.57.49h-0.93a0.53,0.53,0,0,1-.57-0.49v-1.3a0.53,0.53,0,0,1,.57-0.49h0.93a0.53,0.53,0,0,1,.57.49v1.3Z" transform="translate(-54.9 -13.54)"/><path class="cls-9" d="M437.7,346.81a2.85,2.85,0,0,0-5.64,0,2.36,2.36,0,0,0,1.37,2.06,1.45,1.45,0,0,0,2.9,0,2.36,2.36,0,0,0,1.37-2.06" transform="translate(-54.9 -13.54)"/><rect class="cls-25" x="249.11" y="61.5" width="58.5" height="48.59" rx="2.79" ry="2.79"/><path class="cls-26" d="M110.93,111.47a2.57,2.57,0,0,1-2.49,2.64H61.12a2.57,2.57,0,0,1-2.49-2.64V70.64A2.57,2.57,0,0,1,61.12,68h47.32a2.57,2.57,0,0,1,2.49,2.64v40.83Z" transform="translate(-54.9 -13.54)"/><rect class="cls-27" x="13.73" y="59.02" width="31.33" height="36.99"/><rect class="cls-28" x="13.73" y="59.02" width="31.33" height="3.17"/><rect class="cls-28" x="13.73" y="93.02" width="31.33" height="3.17"/><polygon class="cls-29" points="25.39 71.52 25.39 85.08 35.28 78.3 25.39 71.52"/><path class="cls-9" d="M245.24,97.59c-8.69-.76-16.21,4-16.79,10.73a10.86,10.86,0,0,0,3.72,8.82c-0.36,2.21-1.13,4.88-2.81,6.21,3.09,0.27,6.4-1.38,8.53-2.72a19.87,19.87,0,0,0,5.23,1.17c8.69,0.76,16.21-4,16.79-10.73s-6-12.72-14.67-13.48h0Zm0,0" transform="translate(-54.9 -13.54)"/><path class="cls-9" d="M265,112.69a10,10,0,0,0,2.61-5.84c0.59-6.69-6-12.72-14.67-13.48a18.85,18.85,0,0,0-10.31,1.91,22.29,22.29,0,0,1,4,0c9.35,0.82,16.42,7.44,15.77,14.79a11.52,11.52,0,0,1-3.85,7.49c1.85,1.69,4.84,3.9,7.92,4.17-2-2.27-1.77-6.91-1.52-9h0Zm0,0" transform="translate(-54.9 -13.54)"/><rect class="cls-30" x="385.36" y="0.94" width="75.94" height="50.76" rx="2" ry="2"/><polygon class="cls-30" points="448.62 48.28 448.62 65.61 432.62 48.28 448.62 48.28"/><path class="cls-31" d="M471.9,44.26c1.29-.83,1.14-3.29,1.14-3.87h10.35c0,0.57-.16,3,1.13,3.87l-6.3,7.06Zm0,0" transform="translate(-54.9 -13.54)"/><path class="cls-32" d="M482.24,46.71l2.28-2.46c-1.29-.83-1.13-3.29-1.13-3.87H473c0.74,2.13,5.65,5.8,9.2,6.32h0Zm0,0" transform="translate(-54.9 -13.54)"/><path class="cls-33" d="M486.26,32.92c0,4.6-2.65,10.35-8,10.35s-8-5.74-8-10.35,3.6-6.32,8-6.32,8,1.72,8,6.32h0Zm0,0" transform="translate(-54.9 -13.54)"/><path class="cls-34" d="M491.44,58.21a1.73,1.73,0,0,0,1.73-1.72V50.94a6.73,6.73,0,0,0-4.38-6l-3.6-1.15c-1.94,1.48-4.7,3.5-7,3.5s-5-2-7-3.5l-3.6,1.15a6.73,6.73,0,0,0-4.38,6v5.54A1.73,1.73,0,0,0,465,58.21h26.45Zm0,0" transform="translate(-54.9 -13.54)"/><g class="cls-35"><path class="cls-36" d="M474.76,23.14h-1.15a4,4,0,0,0-4,4,49.86,49.86,0,0,0,.57,5.73,6.07,6.07,0,0,1,3.45-4c1.71-.68,1.15-5.75,1.15-5.75h0Zm0,0" transform="translate(-54.9 -13.54)"/><path class="cls-36" d="M474.19,23.16c2.31-3.55,8.26-.6,12.07-0.6,0.58,0.83,1,7.08,0,10.35L484.54,30a14.24,14.24,0,0,1-10.92-1.13" transform="translate(-54.9 -13.54)"/></g><path class="cls-33" d="M470.44,34.07A1.06,1.06,0,0,0,469,35.22c0,1.2,1.16,4.13,2.38,2.3s-1-3.45-1-3.45h0Zm0,0" transform="translate(-54.9 -13.54)"/><path class="cls-33" d="M485.85,34.07a1.13,1.13,0,0,1,1.56,1.15c0,1.2-1.26,4.13-2.59,2.3s1-3.45,1-3.45h0Zm0,0" transform="translate(-54.9 -13.54)"/><path class="cls-37" d="M479.36,49a0.58,0.58,0,0,1-.58.57h-1.15a0.58,0.58,0,0,1-.57-0.57V47.9a0.58,0.58,0,0,1,.57-0.57h1.15a0.58,0.58,0,0,1,.58.57V49Zm0,0" transform="translate(-54.9 -13.54)"/><path class="cls-37" d="M479,49.3l-0.79.32-0.79-.32-0.36,8.88h2.3Zm0,0" transform="translate(-54.9 -13.54)"/><path class="cls-38" d="M478.21,47.29l-2.4,2.4a0.57,0.57,0,0,1-.87-0.07l-4.2-5.78,1.34-1.34a0.58,0.58,0,0,1,.79,0Zm0,0" transform="translate(-54.9 -13.54)"/><path class="cls-38" d="M478.21,47.29l2.4,2.4a0.57,0.57,0,0,0,.87-0.07l4.2-5.78-1.34-1.34a0.58,0.58,0,0,0-.79,0Zm0,0" transform="translate(-54.9 -13.54)"/><path class="cls-39" d="M488.8,44.94l-3.13-1h0l-7.44,9.17-7.44-9.17-3.13,1a6.73,6.73,0,0,0-4.38,6v5.54a1.72,1.72,0,0,0,1.52,1.7h26.87a1.72,1.72,0,0,0,1.52-1.7V50.94a6.73,6.73,0,0,0-4.38-6h0Zm0,0" transform="translate(-54.9 -13.54)"/><path class="cls-40" d="M482.42,58.19H483v-11l-0.58.71V58.19Zm0,0" transform="translate(-54.9 -13.54)"/><path class="cls-40" d="M478.83,58.19h0.58V51.65l-0.58.71v5.83Zm0,0" transform="translate(-54.9 -13.54)"/><path class="cls-40" d="M480.63,58.19h0.58V49.43l-0.58.71v8Zm0,0" transform="translate(-54.9 -13.54)"/><path class="cls-40" d="M486,58.19h0.57v-14L486,44.05V58.19Zm0,0" transform="translate(-54.9 -13.54)"/><path class="cls-40" d="M477,58.19h0.57V52.36L477,51.65v6.54Zm0,0" transform="translate(-54.9 -13.54)"/><path class="cls-40" d="M489.61,45.28V58.19h0.58V45.63a5.46,5.46,0,0,0-.58-0.34h0Zm0,0" transform="translate(-54.9 -13.54)"/><path class="cls-40" d="M487.81,44.63V58.19h0.58V44.81Zm0,0" transform="translate(-54.9 -13.54)"/><path class="cls-40" d="M484.22,45.71V58.19h0.58V45Zm0,0" transform="translate(-54.9 -13.54)"/><path class="cls-40" d="M468.05,58.19h0.58V44.63l-0.58.18V58.19Zm0,0" transform="translate(-54.9 -13.54)"/><path class="cls-40" d="M475.24,58.19h0.58v-8l-0.58-.71v8.76Zm0,0" transform="translate(-54.9 -13.54)"/><path class="cls-40" d="M464.46,47.42v10.7a1.81,1.81,0,0,0,.33.07H465V46.69a7.13,7.13,0,0,0-.58.72h0Zm0,0" transform="translate(-54.9 -13.54)"/><path class="cls-40" d="M491.41,58.19h0.25a1.82,1.82,0,0,0,.33-0.07V47.42a7.12,7.12,0,0,0-.58-0.72v11.5Zm0,0" transform="translate(-54.9 -13.54)"/><path class="cls-40" d="M466.26,45.63V58.19h0.57V45.28a5.55,5.55,0,0,0-.57.34h0Zm0,0" transform="translate(-54.9 -13.54)"/><path class="cls-40" d="M473.44,58.19H474V47.93l-0.57-.71v11Zm0,0" transform="translate(-54.9 -13.54)"/><path class="cls-40" d="M471.65,58.19h0.58V45.71L471.65,45V58.19Zm0,0" transform="translate(-54.9 -13.54)"/><path class="cls-40" d="M469.85,44.24v14h0.57V44.05Zm0,0" transform="translate(-54.9 -13.54)"/><path class="cls-41" d="M468.37,47.38l2,0.25v1.49a0.58,0.58,0,0,0,.24.47L478.21,55V53.11l-7.48-9.27-2.87,1.05v1.92a0.58,0.58,0,0,0,.5.57h0Zm0,0" transform="translate(-54.9 -13.54)"/><path class="cls-41" d="M488.06,47.38l-2,.25v1.49a0.57,0.57,0,0,1-.24.47L478.21,55V53.11l7.48-9.27,2.87,1.05v1.92a0.58,0.58,0,0,1-.5.57h0Zm0,0" transform="translate(-54.9 -13.54)"/><path class="cls-41" d="M478.2,53.79l-0.78-.05,0.53,4.45h0.51L479,53.74Zm0,0" transform="translate(-54.9 -13.54)"/><circle class="cls-42" cx="131.43" cy="43.49" r="43.49"/><path class="cls-43" d="M177.34,77.15L193.8,99.86s42.51-8.41,34.88-52.68c0,0-15.24-10.27-20.19-10.27l-5,26-16.22-2.17-1.33,14.62h-8.58" transform="translate(-54.9 -13.54)"/><path class="cls-44" d="M210.11,38.53V66.41A1.62,1.62,0,0,1,208.49,68H164.16a1.62,1.62,0,0,1-1.62-1.62V38.53a1.62,1.62,0,0,1,1.62-1.62h44.33a1.62,1.62,0,0,1,1.62,1.62h0Zm-3,26.52V39.89H165.52V65h41.61Zm0,0" transform="translate(-54.9 -13.54)"/><rect class="cls-44" x="122.44" y="61.82" width="17.97" height="1.79"/><rect class="cls-44" x="127.69" y="54.49" width="7.81" height="7.33"/><rect class="cls-9" x="110.62" y="26.35" width="41.61" height="25.16"/><path class="cls-45" d="M190.48,50.75v3a12.12,12.12,0,0,1-1,4.38s0.07,2.49-4.47,2.59a4.78,4.78,0,0,1-4.47-2.59,12.11,12.11,0,0,1-1-4.38V53.66h2.28V50.75h8.75Zm0,0" transform="translate(-54.9 -13.54)"/><path class="cls-45" d="M186.3,48.87a1,1,0,1,1,1.91,0v2.81H186.3V48.87Zm0,0" transform="translate(-54.9 -13.54)"/><path class="cls-45" d="M188.45,48.87a1,1,0,1,1,1.91,0v2.81h-1.91V48.87Zm0,0" transform="translate(-54.9 -13.54)"/><path class="cls-45" d="M184,48.31a1,1,0,1,1,1.91,0v4H184v-4Zm0,0" transform="translate(-54.9 -13.54)"/><path class="cls-45" d="M181.73,44.61a1,1,0,1,1,1.91,0v6.14h-1.91V44.61Zm0,0" transform="translate(-54.9 -13.54)"/><path class="cls-45" d="M179.55,53.88l-1.37-2.66a1,1,0,1,1,1.69-.87l2.51,3.53h-2.83Zm0,0" transform="translate(-54.9 -13.54)"/><path class="cls-9" d="M305.28,217.72a13.16,13.16,0,0,1-3.33.53,14.69,14.69,0,0,1,2.45-8.16c1.58-2.28,4.21-3.86,7.89-4.65a2,2,0,0,1,.09.35,2,2,0,0,0,.09.35v0.7a11.73,11.73,0,0,1-.88,4.3,12.71,12.71,0,0,1-2.89,4.38A9.37,9.37,0,0,1,305.28,217.72Zm14.21,22.19a12,12,0,0,1-.17-13.59,22.44,22.44,0,0,1,3.59-3.77,18.4,18.4,0,0,0-3.33-3.16,11.36,11.36,0,0,0-6.75-2,17.78,17.78,0,0,0-5.44,1.05,16.47,16.47,0,0,1-4.56,1.05,22.42,22.42,0,0,1-4.38-1,22.09,22.09,0,0,0-5.61-1,10.82,10.82,0,0,0-8.94,4.56c-2.37,3.07-3.59,7-3.59,11.84a32.47,32.47,0,0,0,4.65,15.87c3.16,5.44,6.31,8.16,9.56,8.16a12.14,12.14,0,0,0,4.21-1.05,12.08,12.08,0,0,1,4.47-1.05,12.93,12.93,0,0,1,4.74,1.05,14.43,14.43,0,0,0,4.38,1.05c2.72,0,5.44-2.1,8.15-6.23a29.79,29.79,0,0,0,3.86-7.89A10.38,10.38,0,0,1,319.48,239.91Z" transform="translate(-54.9 -13.54)"/><rect class="cls-46" x="429.63" y="214.91" width="42" height="34.88" rx="2" ry="2"/><path class="cls-9" d="M515.29,236.5a13.8,13.8,0,1,1-9.76-4,13.71,13.71,0,0,1,9.76,4h0Zm-1.22,18.3a12,12,0,0,0,3.29-6.12c-0.36.53-.71,0.73-0.92-0.46-0.22-2-2-.71-3.14-1.4-1.19.8-3.85-1.55-3.4,1.1,0.7,1.2,3.77-1.6,2.24.93-1,1.77-3.58,5.69-3.24,7.72,0,3-3,.62-4.08-0.36-0.71-2-.24-5.4-2.1-6.36-2-.09-3.75-0.27-4.53-2.52-0.47-1.61.5-4,2.23-4.38,2.53-1.59,3.43,1.86,5.81,1.93,0.74-.77,2.74-1,2.91-1.88-1.56-.27,2-1.31-0.15-1.9-1.17.14-1.93,1.21-1.3,2.13-2.27.53-2.34-3.29-4.53-2.08-0.06,1.9-3.56.62-1.21,0.23,0.81-.35-1.32-1.38-0.17-1.19,0.56,0,2.46-.7,1.95-1.14,1.06-.66,1.94,1.57,3-0.05,0.75-1.25-.31-1.48-1.25-0.84-0.53-.59.93-1.87,2.22-2.42a2.56,2.56,0,0,1,1.15-.26c0.65,0.75,1.85.88,1.91-.09a12.11,12.11,0,0,0-12.41,1.21c0.56,0.25.87,0.57,0.34,1-0.42,1.24-2.11,2.91-3.59,2.67a12,12,0,0,0-1.5,4.33c1.24,0.41,1.53,1.22,1.26,1.5a4.1,4.1,0,0,0-1.22,2.19,12.08,12.08,0,0,0,20.46,6.57h0Zm0,0" transform="translate(-54.9 -13.54)"/><rect class="cls-47" x="33.88" y="134.35" width="42" height="34.88" rx="2" ry="2"/><path class="cls-9" d="M121.85,154.4L105,171.3l-8.83-8.83-1.5,1.5L105,174.29l18.4-18.4Zm0,0" transform="translate(-54.9 -13.54)"/><path class="cls-9" d="M343.06,77.33H322.38a2.14,2.14,0,0,0-2.14,2.14v37.32a2.14,2.14,0,0,0,2.14,2.14h20.68a2.15,2.15,0,0,0,2.14-2.14V79.47a2.15,2.15,0,0,0-2.14-2.14h0Zm0.75,39.46a0.76,0.76,0,0,1-.75.75H322.38a0.75,0.75,0,0,1-.75-0.75v-2h22.19v2Zm0-3.41H321.63V82.88h22.19v30.51Zm0-31.89H321.63v-2a0.75,0.75,0,0,1,.75-0.75h20.68a0.76,0.76,0,0,1,.75.75v2Zm0,0" transform="translate(-54.9 -13.54)"/><path class="cls-9" d="M334.8,79.41h-4.16a0.69,0.69,0,0,0,0,1.39h4.16a0.69,0.69,0,1,0,0-1.39h0Zm0,0" transform="translate(-54.9 -13.54)"/><path class="cls-9" d="M330.64,116.85h4.16a0.69,0.69,0,1,0,0-1.39h-4.16a0.69,0.69,0,0,0,0,1.39h0Zm0,0" transform="translate(-54.9 -13.54)"/><path class="cls-48" d="M460.47,125.49a3.12,3.12,0,0,0,2.58-1.27,0.79,0.79,0,0,1,1.3,0,3.12,3.12,0,0,0,2.58,1.27,3.36,3.36,0,0,0,1-.16l-2.58-6.2H462l-2.58,6.2a3.35,3.35,0,0,0,1,.16h0Zm0,0" transform="translate(-54.9 -13.54)"/><path class="cls-49" d="M462.68,117.55h2l-1-2.43Zm0,0" transform="translate(-54.9 -13.54)"/><path class="cls-50" d="M468.19,128.38v-1.46a5,5,0,0,1-1.26.16,4.9,4.9,0,0,1-2.44-.64v7h3.7v-1.85a0.79,0.79,0,0,1,.79-0.79v-1.59a0.79,0.79,0,0,1-.79-0.79h0Zm0,0" transform="translate(-54.9 -13.54)"/><path class="cls-50" d="M460.47,127.08a5,5,0,0,1-1.26-.16v6.48h3.7v-7a4.89,4.89,0,0,1-2.44.64h0Zm0,0" transform="translate(-54.9 -13.54)"/><path class="cls-51" d="M449.16,108.3h29.06v-5.55a2.38,2.38,0,0,0-2.38-2.38H451.54a2.38,2.38,0,0,0-2.38,2.38v5.55Zm11.89-4.76h5.29a0.79,0.79,0,0,1,0,1.58h-5.29a0.79,0.79,0,0,1,0-1.58h0Zm0,0" transform="translate(-54.9 -13.54)"/><path class="cls-51" d="M478.23,138.95H449.16v5.55a2.38,2.38,0,0,0,2.38,2.38h24.31a2.38,2.38,0,0,0,2.38-2.38v-5.55Zm-14.53,6.34a2.38,2.38,0,1,1,2.38-2.38,2.38,2.38,0,0,1-2.38,2.38h0Zm0,0" transform="translate(-54.9 -13.54)"/><path class="cls-52" d="M478.23,137.36V109.88H449.16v27.48h29.06ZM457.62,125.7a0.83,0.83,0,0,1,.06-0.27l3.08-7.4h0l2.2-5.28a0.79,0.79,0,0,1,1.46,0l2.2,5.28h0l3.08,7.4a0.81,0.81,0,0,1,.06.27,0.28,0.28,0,0,1,0,0h0v2.64a0.79,0.79,0,0,1-.79.79v1.59a0.79,0.79,0,0,1,.79.79v2.64a0.79,0.79,0,0,1-.79.79H458.41a0.79,0.79,0,0,1-.79-0.79v-8.46h0a0.27,0.27,0,0,1,0,0h0Zm0,0" transform="translate(-54.9 -13.54)"/><path class="cls-53" d="M475.85,98.79H451.54a4,4,0,0,0-4,4V144.5a4,4,0,0,0,4,4h24.31a4,4,0,0,0,4-4V102.75a4,4,0,0,0-4-4h0Zm0,48.09H451.54a2.38,2.38,0,0,1-2.38-2.38v-5.55h29.06v5.55a2.38,2.38,0,0,1-2.38,2.38h0Zm-24.31-46.5h24.31a2.38,2.38,0,0,1,2.38,2.38v5.55H449.16v-5.55a2.38,2.38,0,0,1,2.38-2.38h0Zm26.69,9.51v27.48H449.16V109.88h29.06Zm0,0" transform="translate(-54.9 -13.54)"/><path class="cls-53" d="M461.05,105.13h5.29a0.79,0.79,0,0,0,0-1.58h-5.29a0.79,0.79,0,0,0,0,1.58h0Zm0,0" transform="translate(-54.9 -13.54)"/><path class="cls-54" d="M463.7,142.12a0.79,0.79,0,1,0,.79.79,0.79,0.79,0,0,0-.79-0.79h0Zm0,0" transform="translate(-54.9 -13.54)"/><path class="cls-53" d="M463.7,140.53a2.38,2.38,0,1,0,2.38,2.38,2.38,2.38,0,0,0-2.38-2.38h0Zm0,3.17a0.79,0.79,0,1,1,.79-0.79,0.79,0.79,0,0,1-.79.79h0Zm0,0" transform="translate(-54.9 -13.54)"/><path class="cls-53" d="M457.62,134.19a0.79,0.79,0,0,0,.79.79H469a0.79,0.79,0,0,0,.79-0.79v-2.64a0.79,0.79,0,0,0-1.58,0v1.85h-3.7v-7a4.9,4.9,0,0,0,2.44.64,5.05,5.05,0,0,0,1.26-.16v1.46a0.79,0.79,0,1,0,1.58,0v-2.64h0a0.28,0.28,0,0,0,0,0,0.81,0.81,0,0,0-.06-0.27l-3.08-7.4h0l-2.2-5.28a0.79,0.79,0,0,0-1.46,0l-2.2,5.28h0l-3.08,7.4a0.8,0.8,0,0,0-.06.27,0.27,0.27,0,0,0,0,0h0v8.46Zm4.4-15.06h3.35l2.58,6.2a3.36,3.36,0,0,1-1,.16,3.12,3.12,0,0,1-2.58-1.27,0.79,0.79,0,0,0-1.3,0,3.12,3.12,0,0,1-2.58,1.27,3.35,3.35,0,0,1-1-.16Zm0.66-1.59,1-2.43,1,2.43h-2ZM459.2,133.4v-6.48a5,5,0,0,0,1.26.16,4.89,4.89,0,0,0,2.44-.64v7h-3.7Zm0,0" transform="translate(-54.9 -13.54)"/><path class="cls-55" d="M121.48,318.88a3.5,3.5,0,0,0-3.5,3.5v14a3.5,3.5,0,1,0,7,0v-14A3.5,3.5,0,0,0,121.48,318.88Z" transform="translate(-54.9 -13.54)"/><path class="cls-55" d="M160,318.88a3.5,3.5,0,0,0-3.5,3.5v14a3.5,3.5,0,1,0,7,0v-14A3.5,3.5,0,0,0,160,318.88Z" transform="translate(-54.9 -13.54)"/><path class="cls-55" d="M126.73,346.89h3.5v8.75a3.5,3.5,0,1,0,7,0v-8.75h7v8.75a3.5,3.5,0,1,0,7,0v-8.75h3.5V320.63h-28v26.26Z" transform="translate(-54.9 -13.54)"/><path class="cls-55" d="M149,307.59l1.8-3.11a0.88,0.88,0,1,0-1.52-.87l-1.75,3a14,14,0,0,0-13.59,0l-1.75-3a0.88,0.88,0,1,0-1.52.88l1.8,3.12a14,14,0,0,0-5.74,11.29h28A14,14,0,0,0,149,307.59Zm-13.52,6a1.75,1.75,0,1,1,1.75-1.75A1.75,1.75,0,0,1,135.48,313.63Zm10.5,0a1.75,1.75,0,1,1,1.75-1.75A1.75,1.75,0,0,1,146,313.63Z" transform="translate(-54.9 -13.54)"/></svg>