<?xml version="1.0" encoding="utf-8"?>
<!-- Generator: Adobe Illustrator 19.1.0, SVG Export Plug-In . SVG Version: 6.00 Build 0)  -->
<svg version="1.1" id="Layer_1" xmlns="http://www.w3.org/2000/svg" xmlns:xlink="http://www.w3.org/1999/xlink" x="0px" y="0px"
	 width="354px" height="320px" viewBox="0 0 354 320" style="enable-background:new 0 0 354 320;" xml:space="preserve">
<style type="text/css">
	.st0{fill:#F2EFEF;}
	.st1{fill:none;stroke:#000000;stroke-width:3;stroke-miterlimit:10;}
	.st2{clip-path:url(#SVGID_2_);fill:none;stroke:#000000;stroke-width:3;stroke-miterlimit:10;}
	.st3{clip-path:url(#SVGID_2_);}
	.st4{fill:#FFFFFF;stroke:#000000;stroke-width:3;stroke-miterlimit:10;}
	.st5{fill:#FFFFFF;}
	.st6{fill:#D93627;}
	.st7{fill:none;stroke:#000000;stroke-width:3;stroke-linecap:round;stroke-miterlimit:10;}
	.st8{clip-path:url(#SVGID_4_);fill:none;stroke:#000000;stroke-width:3;stroke-miterlimit:10;}
	.st9{clip-path:url(#SVGID_4_);}
	.st10{fill:#D93427;}
	.st11{fill:#FFFFFF;stroke:#000000;stroke-width:7;stroke-miterlimit:10;}
	.st12{fill:#010101;}
	.st13{clip-path:url(#SVGID_6_);fill:none;stroke:#000000;stroke-width:3;stroke-miterlimit:10;}
	.st14{fill:none;stroke:#D93427;stroke-width:6;stroke-miterlimit:10;}
</style>
<path class="st0" d="M284.1,234.2l-95.9,55.4c-6.1,3.5-16.1,3.5-22.2,0L70,234.2c-6.1-3.5-11.1-12.2-11.1-19.2V104.1
	c0-7.1,5-15.7,11.1-19.2l95.9-55.4c6.1-3.5,16.1-3.5,22.2,0l95.9,55.4c6.1,3.5,11.1,12.2,11.1,19.2v110.8
	C295.2,222,290.2,230.6,284.1,234.2z"/>
<g>
	<path d="M177,4.4c4.7,0,9.4,1,13,3.1l112.2,64.8c7.2,4.1,13,14.2,13,22.5v129.5c0,8.3-5.8,18.4-13,22.5L190,311.6
		c-3.6,2.1-8.3,3.1-13,3.1s-9.4-1-13-3.1L51.8,246.8c-7.2-4.1-13-14.2-13-22.5V94.8c0-8.3,5.8-18.4,13-22.5L164,7.5
		C167.6,5.4,172.3,4.4,177,4.4 M177,1.4c-5.4,0-10.6,1.2-14.5,3.5L50.3,69.7c-8.1,4.7-14.5,15.7-14.5,25.1v129.5
		c0,9.4,6.4,20.4,14.5,25.1l112.2,64.8c3.9,2.3,9.1,3.5,14.5,3.5c5.4,0,10.6-1.2,14.5-3.5l112.2-64.8c8.1-4.7,14.5-15.7,14.5-25.1
		V94.8c0-9.4-6.4-20.4-14.5-25.1L191.5,4.9C187.6,2.6,182.4,1.4,177,1.4L177,1.4z"/>
</g>
<line class="st1" x1="315.2" y1="206" x2="38.8" y2="206"/>
<g>
	<defs>
		<path id="SVGID_1_" d="M302.2,246.8L190,311.6c-7.2,4.1-18.8,4.1-26,0L51.8,246.8c-7.2-4.1-13-14.2-13-22.5V94.8
			c0-8.3,5.8-18.4,13-22.5L164,7.5c7.2-4.1,18.8-4.1,26,0l112.2,64.8c7.2,4.1,13,14.2,13,22.5v129.5
			C315.2,232.6,309.4,242.7,302.2,246.8z"/>
	</defs>
	<clipPath id="SVGID_2_">
		<use xlink:href="#SVGID_1_"  style="overflow:visible;"/>
	</clipPath>
	<line class="st2" x1="49" y1="206" x2="49" y2="327.5"/>
	<line class="st2" x1="68.7" y1="206" x2="68.7" y2="327.5"/>
	<line class="st2" x1="88.3" y1="206" x2="88.3" y2="327.5"/>
	<line class="st2" x1="108" y1="327.5" x2="108" y2="206"/>
	<line class="st2" x1="127.6" y1="206" x2="127.6" y2="327.5"/>
	<line class="st2" x1="147.3" y1="206" x2="147.3" y2="327.5"/>
	<line class="st2" x1="166.9" y1="206" x2="166.9" y2="327.5"/>
	<line class="st2" x1="186.6" y1="206" x2="186.6" y2="327.5"/>
	<line class="st2" x1="206.3" y1="206" x2="206.3" y2="327.5"/>
	<line class="st2" x1="225.9" y1="206" x2="225.9" y2="327.5"/>
	<line class="st2" x1="245.6" y1="206" x2="245.6" y2="327.5"/>
	<line class="st2" x1="265.2" y1="206" x2="265.2" y2="327.5"/>
	<line class="st2" x1="284.9" y1="206" x2="284.9" y2="327.5"/>
	<line class="st2" x1="304.5" y1="206" x2="304.5" y2="327.5"/>
	<g class="st3">
		<rect x="148" y="220" class="st4" width="186" height="58"/>
		<g>
			<rect x="155.3" y="231" class="st0" width="9.3" height="9.3"/>
			<rect x="167.7" y="231" class="st0" width="9.3" height="9.3"/>
			<rect x="180" y="231" class="st0" width="9.3" height="9.3"/>
			<rect x="192.3" y="231" class="st0" width="9.3" height="9.3"/>
			<rect x="204.7" y="231" class="st0" width="9.3" height="9.3"/>
			<rect x="217" y="231" class="st0" width="9.3" height="9.3"/>
			<rect x="229.3" y="231" class="st0" width="9.3" height="9.3"/>
			<rect x="241.7" y="231" class="st0" width="9.3" height="9.3"/>
			<rect x="254" y="231" class="st0" width="9.3" height="9.3"/>
			<rect x="266.3" y="231" class="st0" width="9.3" height="9.3"/>
			<rect x="278.7" y="231" class="st0" width="9.3" height="9.3"/>
			<rect x="291" y="231" class="st0" width="9.3" height="9.3"/>
			<rect x="303.3" y="231" class="st0" width="9.3" height="9.3"/>
			<rect x="315.7" y="231" class="st0" width="9.3" height="9.3"/>
		</g>
		<g>
			<rect x="155.3" y="244.4" class="st0" width="9.3" height="9.3"/>
			<rect x="167.7" y="244.4" class="st0" width="9.3" height="9.3"/>
			<rect x="180" y="244.4" class="st0" width="9.3" height="9.3"/>
			<rect x="192.3" y="244.4" class="st0" width="9.3" height="9.3"/>
			<rect x="204.7" y="244.4" class="st0" width="9.3" height="9.3"/>
			<rect x="217" y="244.4" class="st0" width="9.3" height="9.3"/>
			<rect x="229.3" y="244.4" class="st0" width="9.3" height="9.3"/>
			<rect x="241.7" y="244.4" class="st0" width="9.3" height="9.3"/>
			<rect x="254" y="244.4" class="st0" width="9.3" height="9.3"/>
			<rect x="266.3" y="244.4" class="st0" width="9.3" height="9.3"/>
			<rect x="278.7" y="244.4" class="st0" width="9.3" height="9.3"/>
			<rect x="291" y="244.4" class="st0" width="9.3" height="9.3"/>
			<rect x="303.3" y="244.4" class="st0" width="9.3" height="9.3"/>
			<rect x="315.7" y="244.4" class="st0" width="9.3" height="9.3"/>
		</g>
		<g>
			<rect x="155.3" y="257.7" class="st0" width="9.3" height="9.3"/>
			<rect x="167.7" y="257.7" class="st0" width="9.3" height="9.3"/>
			<rect x="180" y="257.7" class="st0" width="9.3" height="9.3"/>
			<rect x="192.3" y="257.7" class="st0" width="9.3" height="9.3"/>
			<rect x="204.7" y="257.7" class="st0" width="9.3" height="9.3"/>
			<rect x="217" y="257.7" class="st0" width="41.7" height="9.3"/>
			<rect x="229.3" y="257.7" class="st0" width="9.3" height="9.3"/>
			<rect x="241.7" y="257.7" class="st0" width="9.3" height="9.3"/>
			<rect x="254" y="257.7" class="st0" width="9.3" height="9.3"/>
			<rect x="266.3" y="257.7" class="st0" width="9.3" height="9.3"/>
			<rect x="278.7" y="257.7" class="st0" width="9.3" height="9.3"/>
			<rect x="291" y="257.7" class="st0" width="9.3" height="9.3"/>
			<rect x="303.3" y="257.7" class="st0" width="9.3" height="9.3"/>
			<rect x="315.7" y="257.7" class="st0" width="9.3" height="9.3"/>
		</g>
	</g>
</g>
<rect x="148.7" y="53" class="st4" width="195" height="129"/>
<g>
	<rect x="152.2" y="56.5" class="st5" width="188" height="99.2"/>
	<path d="M336.7,60v92.2h-181V60H336.7 M343.7,53h-195v106.2h195V53L343.7,53z"/>
</g>
<g>
	<g>
		<g>
			<path class="st6" d="M215.7,80v28.6h-35.3V80H215.7 M218.7,77h-41.3v34.6h41.3V77L218.7,77z"/>
		</g>
	</g>
	<rect x="177.4" y="117.5" class="st0" width="41.3" height="34.6"/>
	<rect x="273.6" y="77" class="st0" width="41.3" height="21.5"/>
	<rect x="273.6" y="106.1" class="st0" width="41.3" height="46"/>
	<rect x="226" y="77" class="st0" width="41.3" height="47.3"/>
	<rect x="226" y="131" class="st0" width="41.3" height="21.1"/>
</g>
<path class="st4" d="M126,234.9c0,10.3-8.4,18.7-18.7,18.7l0,0c-10.3,0-18.7-8.4-18.7-18.7v-29.7c0-10.3,8.4-18.7,18.7-18.7l0,0
	c10.3,0,18.7,8.4,18.7,18.7V234.9z"/>
<line class="st7" x1="107.3" y1="208" x2="107.3" y2="201.3"/>
<polygon points="212.2,123.7 198.1,101.9 193.7,127.6 200.9,126.1 202.4,133.5 206.6,132.6 205,125.2 "/>
<path class="st0" d="M668.1,234.2l-95.9,55.4c-6.1,3.5-16.1,3.5-22.2,0l-95.9-55.4c-6.1-3.5-11.1-12.2-11.1-19.2V104.1
	c0-7.1,5-15.7,11.1-19.2l95.9-55.4c6.1-3.5,16.1-3.5,22.2,0l95.9,55.4c6.1,3.5,11.1,12.2,11.1,19.2v110.8
	C679.2,222,674.2,230.6,668.1,234.2z"/>
<g>
	<path d="M561,4.4c4.7,0,9.4,1,13,3.1l112.2,64.8c7.2,4.1,13,14.2,13,22.5v129.5c0,8.3-5.8,18.4-13,22.5L574,311.6
		c-3.6,2.1-8.3,3.1-13,3.1s-9.4-1-13-3.1l-112.2-64.8c-7.2-4.1-13-14.2-13-22.5V94.8c0-8.3,5.8-18.4,13-22.5L548,7.5
		C551.6,5.4,556.3,4.4,561,4.4 M561,1.4c-5.4,0-10.6,1.2-14.5,3.5L434.3,69.7c-8.1,4.7-14.5,15.7-14.5,25.1v129.5
		c0,9.4,6.4,20.4,14.5,25.1l112.2,64.8c3.9,2.3,9.1,3.5,14.5,3.5s10.6-1.2,14.5-3.5l112.2-64.8c8.1-4.7,14.5-15.7,14.5-25.1V94.8
		c0-9.4-6.4-20.4-14.5-25.1L575.5,4.9C571.6,2.6,566.4,1.4,561,1.4L561,1.4z"/>
</g>
<line class="st1" x1="699.2" y1="206" x2="422.8" y2="206"/>
<g>
	<defs>
		<path id="SVGID_3_" d="M686.2,246.8L574,311.6c-7.2,4.1-18.8,4.1-26,0l-112.2-64.8c-7.2-4.1-13-14.2-13-22.5V94.8
			c0-8.3,5.8-18.4,13-22.5L548,7.5c7.2-4.1,18.8-4.1,26,0l112.2,64.8c7.2,4.1,13,14.2,13,22.5v129.5
			C699.2,232.6,693.3,242.7,686.2,246.8z"/>
	</defs>
	<clipPath id="SVGID_4_">
		<use xlink:href="#SVGID_3_"  style="overflow:visible;"/>
	</clipPath>
	<line class="st8" x1="433" y1="206" x2="433" y2="327.5"/>
	<line class="st8" x1="452.6" y1="206" x2="452.6" y2="327.5"/>
	<line class="st8" x1="472.3" y1="206" x2="472.3" y2="327.5"/>
	<line class="st8" x1="492" y1="327.5" x2="492" y2="206"/>
	<line class="st8" x1="511.6" y1="206" x2="511.6" y2="327.5"/>
	<line class="st8" x1="531.3" y1="206" x2="531.3" y2="327.5"/>
	<line class="st8" x1="550.9" y1="206" x2="550.9" y2="327.5"/>
	<line class="st8" x1="570.6" y1="206" x2="570.6" y2="327.5"/>
	<line class="st8" x1="590.2" y1="206" x2="590.2" y2="327.5"/>
	<line class="st8" x1="609.9" y1="206" x2="609.9" y2="327.5"/>
	<line class="st8" x1="629.5" y1="206" x2="629.5" y2="327.5"/>
	<line class="st8" x1="649.2" y1="206" x2="649.2" y2="327.5"/>
	<line class="st8" x1="668.9" y1="206" x2="668.9" y2="327.5"/>
	<line class="st8" x1="688.5" y1="206" x2="688.5" y2="327.5"/>
	<g class="st9">
		<rect x="561" y="230.3" class="st4" width="144.4" height="96"/>
		<path class="st10" d="M576.7,260.3c-0.7-15.9,25.1-6.4,33.2-5.8c21.5,1.6,60-0.9,69,24.8c4.8,13.8-9,20.2-19.9,23.1
			c-15.9,4.2-34.2,8.1-50.7,8.4c-6.4,0.1-13.5-0.3-16.8-6.7c-3-5.8,1.9-12.3,1.4-18.2c-0.5-5.8-6.3-6.4-10.3-9
			c-5.2-3.3-7.1-11.5-5.8-17.3"/>
	</g>
</g>
<g>
	<rect x="206" y="196" class="st4" width="79.1" height="9.5"/>
	<g>
		<path class="st4" d="M245.6,196h26.7c-10.3,0-10.7-14-10.7-14h-16"/>
		<path class="st4" d="M245.6,196h-26.7c10.3,0,10.7-14,10.7-14h16"/>
	</g>
</g>
<path class="st4" d="M719.7,162c0,2.9-2.3,5.2-5.2,5.2h-113c-2.9,0-5.2-2.3-5.2-5.2V87.8c0-2.9,2.3-5.2,5.2-5.2h113
	c2.9,0,5.2,2.3,5.2,5.2V162z"/>
<circle class="st11" cx="658" cy="129.1" r="24"/>
<circle class="st0" cx="658" cy="129.1" r="16.3"/>
<rect x="609" y="96.3" class="st4" width="17" height="10.8"/>
<rect x="693.5" y="92.3" class="st4" width="17" height="18.3"/>
<line class="st4" x1="596.3" y1="117.7" x2="634.5" y2="117.7"/>
<line class="st4" x1="680.1" y1="117.7" x2="718.2" y2="117.7"/>
<path class="st1" d="M450,131.7c0-10.8,18.8-19.5,41.9-19.5c23.2,0,41.9,8.7,41.9,19.5"/>
<rect x="486.7" y="94" class="st5" width="8.4" height="59.1"/>
<rect x="507.7" y="92.9" class="st5" width="8.4" height="60"/>
<path class="st12" d="M491,178.2c-3.9,0-7-3.1-7-7c0-21,0-58.9,0-79.9h2.8l-2.8-5.6l5.6-14h2.8l5.6,14l-2.8,5.6h2.8
	c0,21,0,58.9,0,79.9C498,175.1,494.8,178.2,491,178.2L491,178.2z M489.6,91.2h2.8v-0.7l2.5-5.1l-2.5-6.3v5.1c0,0.8-0.6,1.4-1.4,1.4
	c-0.8,0-1.4-0.6-1.4-1.4v-5.1l-2.5,6.3l2.5,5.1V91.2L489.6,91.2z M486.7,94v70.1h8.4V94H486.7L486.7,94z M486.7,167v4.2
	c0,2.3,1.9,4.2,4.2,4.2c2.3,0,4.2-1.9,4.2-4.2V167H486.7z"/>
<g>
	<path class="st12" d="M511.9,92.2c3.3,0.1,4.1-1.9,4.1-1.9h2.8c0,21,0,45.9,0,66.9c0,3.9-3.1,7-7,7l0,0c-3.9,0-7-3.1-7-7
		c0-21,0-45.9,0-66.9h2.8C507.6,90.2,508.6,92.1,511.9,92.2z M507.6,93v57.1h8.4V93H507.6L507.6,93z M507.6,152.9v4.2
		c0,2.3,1.9,4.2,4.2,4.2c2.3,0,4.2-1.9,4.2-4.2v-4.2H507.6z"/>
	<path class="st10" d="M511.9,60.2c0,0,2.8,2.1,4.1,7.5s3,16.1,3,17.1c0,1-0.8,2.4-1.8,1.1c-1-1.3-2.2-3.5-2.8-4.7s-2.3-2.6-4.1-2.8
		c-1.8-0.2-2-1.8-2.6-3.2c-0.6-1.4-1.2-2.1,0.3-5.7S511.9,60.2,511.9,60.2z"/>
	<line class="st4" x1="505.4" y1="101.1" x2="516.8" y2="101.1"/>
	<path class="st4" d="M518.1,87.2c-2.6,0-3.1-3-3.9-4.8c-0.9-2.1-2.4-2.8-4.5-3.5c-2.1-0.8-3-2.2-3.6-4.3"/>
	<path class="st1" d="M504.8,85.9c0-3.9,3.2-25.6,7.1-25.6s7.1,21.7,7.1,25.6s-3.2,7.1-7.1,7.1S504.8,89.8,504.8,85.9z"/>
</g>
<g>
	<path class="st4" d="M450,206c0,10.8,18.8,19.5,41.9,19.5c23.2,0,41.9-8.7,41.9-19.5v-74.7c0,10.8-18.8,19.5-41.9,19.5
		c-23.2,0-41.9-8.7-41.9-19.5V206z"/>
	<path class="st1" d="M533.9,147.5c0,10.8-18.8,19.5-41.9,19.5c-23.2,0-41.9-8.7-41.9-19.5"/>
	<path class="st1" d="M533.9,162.2c0,10.8-18.8,19.5-41.9,19.5c-23.2,0-41.9-8.7-41.9-19.5"/>
	<path class="st1" d="M533.9,176.9c0,10.8-18.8,19.5-41.9,19.5c-23.2,0-41.9-8.7-41.9-19.5"/>
	<path class="st1" d="M533.9,191.5c0,10.8-18.8,19.5-41.9,19.5c-23.2,0-41.9-8.7-41.9-19.5"/>
</g>
<path class="st0" d="M1070,234.2l-95.9,55.4c-6.1,3.5-16.1,3.5-22.2,0l-95.9-55.4c-6.1-3.5-11.1-12.2-11.1-19.2V104.1
	c0-7.1,5-15.7,11.1-19.2l95.9-55.4c6.1-3.5,16.1-3.5,22.2,0l95.9,55.4c6.1,3.5,11.1,12.2,11.1,19.2v110.8
	C1081.1,222,1076.2,230.6,1070,234.2z"/>
<g>
	<path d="M963,4.4c4.7,0,9.4,1,13,3.1l112.2,64.8c7.2,4.1,13,14.2,13,22.5v129.5c0,8.3-5.8,18.4-13,22.5L976,311.6
		c-3.6,2.1-8.3,3.1-13,3.1s-9.4-1-13-3.1l-112.2-64.8c-7.2-4.1-13-14.2-13-22.5V94.8c0-8.3,5.8-18.4,13-22.5L950,7.5
		C953.6,5.4,958.3,4.4,963,4.4 M963,1.4c-5.4,0-10.6,1.2-14.5,3.5L836.3,69.7c-8.1,4.7-14.5,15.7-14.5,25.1v129.5
		c0,9.4,6.4,20.4,14.5,25.1l112.2,64.8c3.9,2.3,9.1,3.5,14.5,3.5s10.6-1.2,14.5-3.5l112.2-64.8c8.1-4.7,14.5-15.7,14.5-25.1V94.8
		c0-9.4-6.4-20.4-14.5-25.1L977.5,4.9C973.5,2.6,968.4,1.4,963,1.4L963,1.4z"/>
</g>
<line class="st1" x1="1101.1" y1="206" x2="824.8" y2="206"/>
<g>
	<defs>
		<path id="SVGID_5_" d="M1088.2,246.8L976,311.6c-7.2,4.1-18.8,4.1-26,0l-112.2-64.8c-7.2-4.1-13-14.2-13-22.5V94.8
			c0-8.3,5.8-18.4,13-22.5L950,7.5c7.2-4.1,18.8-4.1,26,0l112.2,64.8c7.2,4.1,13,14.2,13,22.5v129.5
			C1101.1,232.6,1095.3,242.7,1088.2,246.8z"/>
	</defs>
	<clipPath id="SVGID_6_">
		<use xlink:href="#SVGID_5_"  style="overflow:visible;"/>
	</clipPath>
	<line class="st13" x1="835" y1="206" x2="835" y2="327.5"/>
	<line class="st13" x1="854.6" y1="206" x2="854.6" y2="327.5"/>
	<line class="st13" x1="874.3" y1="206" x2="874.3" y2="327.5"/>
	<line class="st13" x1="893.9" y1="327.5" x2="893.9" y2="206"/>
	<line class="st13" x1="913.6" y1="206" x2="913.6" y2="327.5"/>
	<line class="st13" x1="933.3" y1="206" x2="933.3" y2="327.5"/>
	<line class="st13" x1="952.9" y1="206" x2="952.9" y2="327.5"/>
	<line class="st13" x1="972.6" y1="206" x2="972.6" y2="327.5"/>
	<line class="st13" x1="992.2" y1="206" x2="992.2" y2="327.5"/>
	<line class="st13" x1="1011.9" y1="206" x2="1011.9" y2="327.5"/>
	<line class="st13" x1="1031.5" y1="206" x2="1031.5" y2="327.5"/>
	<line class="st13" x1="1051.2" y1="206" x2="1051.2" y2="327.5"/>
	<line class="st13" x1="1070.8" y1="206" x2="1070.8" y2="327.5"/>
	<line class="st13" x1="1090.5" y1="206" x2="1090.5" y2="327.5"/>
</g>
<g>
	<path class="st4" d="M1053.5,178.8c0-10.9-6.8-18.7-9.9-21.6c3.1-2.9,9.9-10.7,9.9-21.6c0-7.9-4.6-13.5-8.7-18.4
		c-3-3.6-5.5-6.7-5.5-9.8c0-3.7,0.3-6.6,2.9-9.3c3.9-4,5.2-8,4.2-12.1l-0.1-0.5l-11.5-11.3l-0.5-0.1c-4.1-1.1-8.1,0.3-12.1,4.2
		c-2.8,2.7-5.6,2.9-9.4,2.9c-3.1,0-6.2-2.5-9.7-5.5c-4.9-4.1-10.6-8.7-18.4-8.7c-10.7,0-18.3,6.5-21.4,9.7
		c-3.1-3.1-10.7-9.7-21.4-9.7c-7.9,0-13.5,4.6-18.4,8.7c-3.6,2.9-6.7,5.5-9.8,5.5c-3.7,0-6.6-0.2-9.3-2.9c-4-3.9-8-5.2-12.1-4.2
		l-0.5,0.1l-11.5,11.3L880,86c-1.1,4.1,0.3,8.1,4.2,12.1c2.7,2.8,2.9,5.6,2.9,9.3c0,3.1-2.5,6.2-5.5,9.8c-4.1,4.9-8.7,10.6-8.7,18.4
		c0,10.9,6.8,18.7,9.9,21.6c-3.1,2.9-9.9,10.7-9.9,21.6c0,7.9,4.6,13.5,8.7,18.4c3,3.6,5.5,6.7,5.5,9.8c0,3.7-0.3,6.6-2.9,9.3
		c-3.9,4-5.2,8-4.2,12.1l0.1,0.5l11.5,11.3l0.5,0.1c4.1,1,8.1-0.3,12.1-4.2c2.8-2.7,5.6-2.9,9.4-2.9c3,0,6.1,2.5,9.7,5.5
		c5,4.1,10.6,8.7,18.4,8.7c10.7,0,18.3-6.6,21.4-9.7c3.1,3.1,10.7,9.7,21.4,9.7c7.9,0,13.5-4.6,18.4-8.7c3.6-2.9,6.7-5.5,9.8-5.5
		c3.7,0,6.6,0.3,9.3,2.9c3.2,3,6.2,4.5,9.5,4.5c0,0,0,0,0,0c0.9,0,1.8-0.1,2.7-0.3l0.5-0.1l11.5-11.3l0.1-0.5
		c1.1-4.1-0.3-8.1-4.2-12.1c-2.7-2.8-2.9-5.6-2.9-9.3c0-3.1,2.5-6.2,5.5-9.8C1048.9,192.3,1053.5,186.7,1053.5,178.8z M1021.7,99
		v116.9H905V99H1021.7z"/>
	<rect x="905" y="99" class="st11" width="116.7" height="116.9"/>
</g>
<g>
	<line class="st14" x1="949.7" y1="131.3" x2="949.7" y2="184.9"/>
	<line class="st14" x1="976.8" y1="131.3" x2="976.8" y2="184.9"/>
	<line class="st14" x1="936.4" y1="171.6" x2="990" y2="171.6"/>
	<line class="st14" x1="936.4" y1="144.6" x2="990" y2="144.6"/>
</g>
<polygon points="1127,155.8 1065.3,131.1 1094.1,191.2 1106.9,177.5 1121,190.7 1128.4,182.7 1114.2,169.6 "/>
</svg>
